<?xml version="1.0" standalone="no"?>
<!DOCTYPE svg PUBLIC "-//W3C//DTD SVG 1.1//EN" "http://www.w3.org/Graphics/SVG/1.1/DTD/svg11.dtd" >
<svg xmlns="http://www.w3.org/2000/svg">
<metadata>
Created by FontPrep 20130207 at Thu Aug 25 09:41:23 2016
 By Phillip De Vita
(c) 1989, 1992, 1994, 1996, 1998, 1999, 2000, 2001 Adobe Systems Incorporated. All rights reserved.
</metadata>
<defs>
<font id="3ba63f82a1b13c399d199d455e95ce26" horiz-adv-x='1024' >
  <font-face 
    font-family="AGaramondPro-Bold"
    font-weight="700"
    font-stretch="normal"
    units-per-em="2048"
    panose-1="2 2 7 2 6 5 6 2 4 3"
    ascent="1485"
    descent="-563"
    x-height="825"
    cap-height="1358"
    bbox="-324 -618 2349 1841"
    underline-thickness="102"
    underline-position="-102"
    unicode-range="U+0020-FB04"
  />
<missing-glyph horiz-adv-x="1024" 
d="M102 1239v-1044l349 522zM164 102h696l-348 523zM573 717l349 -522v1044zM512 809l348 522h-696zM0 0v1434h1024v-1434h-1024z" />
    <glyph glyph-name="T_h" unicode="Th" horiz-adv-x="2260" 
d="M543 295v903q0 39 -7 49t-42 10h-148q-104 0 -152 -51t-102 -180q-18 -10 -43 -5t-33 23q43 152 68 349q14 10 30 10t27 -8q8 -29 35 -36t137 -7h803q180 0 195 28v21l237 63q23 0 35 -14q-6 -127 -6 -299v-377q0 -25 14 -24q6 0 33 16q121 82 240 82q118 0 186 -73
t68 -185v-352q0 -106 13 -134t69 -34l32 -4q12 -8 12 -36t-14 -36q-96 6 -249 6t-220 -6q-14 8 -14 36t12 36l37 6q37 6 46 28t9 107v354q0 59 -35 98q-36 39 -112 39t-111 -49q-16 -18 -16 -76v-366q0 -84 9 -107t46 -28l37 -6q12 -8 12 -36t-14 -36q-94 6 -228 6t-239 -6
q-14 8 -14 36t12 36l37 4q51 6 63 34t13 134v852q0 98 -49 133t-218 34h-153q-37 0 -46 -10t-9 -49v-903q0 -141 17 -175t87 -44l82 -10q10 -8 10 -35t-10 -37q-199 6 -330 6t-346 -6q-12 10 -12 36t12 36l92 10q70 8 88 43t17 176z" />
    <glyph glyph-name="Tcaron_h" unicode="&#x164;h" horiz-adv-x="2260" 
d="M397 1753l248 -102q41 -16 72 -2l246 104q14 0 22 -17t4 -36l-264 -240q-47 -41 -90 0l-262 240q-2 18 6 34t18 19zM543 295v903q0 39 -7 49t-42 10h-148q-104 0 -152 -51t-102 -180q-18 -10 -43 -5t-33 23q43 152 68 349q14 10 30 10t27 -8q8 -29 35 -36t137 -7h803
q180 0 195 28v21l237 63q23 0 35 -14q-6 -127 -6 -299v-377q0 -25 14 -24q6 0 33 16q121 82 240 82q118 0 186 -73t68 -185v-352q0 -106 13 -134t69 -34l32 -4q12 -8 12 -36t-14 -36q-96 6 -249 6t-220 -6q-14 8 -14 36t12 36l37 6q37 6 46 28t9 107v354q0 59 -35 98
q-36 39 -112 39t-111 -49q-16 -18 -16 -76v-366q0 -84 9 -107t46 -28l37 -6q12 -8 12 -36t-14 -36q-94 6 -228 6t-239 -6q-14 8 -14 36t12 36l37 4q51 6 63 34t13 134v852q0 98 -49 133t-218 34h-153q-37 0 -46 -10t-9 -49v-903q0 -141 17 -175t87 -44l82 -10q10 -8 10 -35
t-10 -37q-199 6 -330 6t-346 -6q-12 10 -12 36t12 36l92 10q70 8 88 43t17 176z" />
    <glyph glyph-name="Tcommaaccent_h" unicode="&#x162;h" horiz-adv-x="2260" 
d="M658 -92q54 0 110 -52t55 -161t-75 -181t-193 -96q-20 2 -26 31q-5 29 10 37q51 18 95 58t44 87q0 78 -90 103q-49 14 -49 64t32 80q33 30 87 30zM543 295v903q0 39 -7 49t-42 10h-148q-104 0 -152 -51t-102 -180q-18 -10 -43 -5t-33 23q43 152 68 349q14 10 30 10t27 -8
q8 -29 35 -36t137 -7h803q180 0 195 28v21l237 63q23 0 35 -14q-6 -127 -6 -299v-377q0 -25 14 -24q6 0 33 16q121 82 240 82q118 0 186 -73t68 -185v-352q0 -106 13 -134t69 -34l32 -4q12 -8 12 -36t-14 -36q-96 6 -249 6t-220 -6q-14 8 -14 36t12 36l37 6q37 6 46 28
t9 107v354q0 59 -35 98q-36 39 -112 39t-111 -49q-16 -18 -16 -76v-366q0 -84 9 -107t46 -28l37 -6q12 -8 12 -36t-14 -36q-94 6 -228 6t-239 -6q-14 8 -14 36t12 36l37 4q51 6 63 34t13 134v852q0 98 -49 133t-218 34h-153q-37 0 -46 -10t-9 -49v-903q0 -141 17 -175
t87 -44l82 -10q10 -8 10 -35t-10 -37q-199 6 -330 6t-346 -6q-12 10 -12 36t12 36l92 10q70 8 88 43t17 176z" />
    <glyph glyph-name="f_f_j" unicode="ffj" horiz-adv-x="1714" 
d="M492 819h208q29 0 37 8t8 35q0 162 41 303q-14 59 -52 107t-108 49q-70 0 -129 -94q-58 -94 -59 -332v-18q0 -41 7 -50q8 -8 47 -8zM121 709h-76q-10 6 -12 26t6 29l88 45q45 25 45 53q0 162 57 287q123 266 422 266q174 0 248 -72q121 121 340 121q152 0 246 -60
t94 -151q0 -61 -43 -97q-44 -36 -106 -36t-89 43q-8 12 -26 51t-29 56q-53 92 -127 92q-39 0 -69 -29t-55 -117q-24 -88 -23 -231v-115q0 -39 7 -45t46 -6h158q266 0 338 17q33 0 34 -31q-10 -109 -10 -236v-460q0 -221 -44 -334t-133 -188t-278 -138q-23 8 -30 31
q-8 23 2 37q63 33 100 73q117 117 117 476v464q0 121 -16 150t-91 29h-147q-37 -1 -45 -9t-8 -49v-413q0 -111 12 -138t63 -34l27 -5q12 -7 12 -33t-14 -34q-88 6 -224 6t-235 -6q-14 8 -14 34t12 33l33 5q41 4 51 32t10 140v413q0 41 -7 49t-44 9h-202q-36 1 -48 -9t-6 -49
v-413q0 -111 12 -138t64 -34l27 -5q12 -7 12 -33t-14 -34q-87 6 -231 6t-242 -6q-14 8 -15 34q0 26 12 33l33 5q51 6 64 33q12 28 12 139v413q0 41 -7 49t-44 9z" />
    <glyph glyph-name="f_j" unicode="fj" horiz-adv-x="1140" 
d="M172 238v413q0 41 -7 49t-44 9h-76q-10 6 -12 26t6 29l88 45q45 25 45 53q0 199 64 334q125 268 430 268q152 0 246 -60t94 -151q0 -61 -43 -97t-106 -36t-89 43q-8 12 -27 51q-18 39 -28 56q-53 92 -127 92q-39 0 -70 -29q-30 -29 -54 -117t-24 -231v-115q0 -39 7 -45
t47 -6h157q266 0 338 17q33 0 35 -31q-10 -109 -10 -236v-460q0 -221 -44 -334t-133 -188t-278 -138q-23 8 -31 31t2 37q63 33 101 73q117 117 116 476v464q0 121 -16 150t-90 29h-147q-38 1 -46 -7t-8 -47v-417q0 -111 12 -138t64 -34l27 -5q12 -7 12 -33t-14 -34
q-87 6 -231 6t-242 -6q-14 8 -15 34q0 26 12 33l33 5q51 6 64 33q12 28 12 139z" />
    <glyph glyph-name="f_f" unicode="ff" horiz-adv-x="1210" 
d="M492 819h208q29 0 37 8t8 35q0 162 41 303q-14 59 -52 107t-108 49q-70 0 -129 -94q-58 -94 -59 -332v-18q0 -41 7 -50q8 -8 47 -8zM121 709h-76q-10 6 -12 26t6 29l88 45q45 25 45 53q0 162 57 287q123 266 420 266q166 0 240 -72q104 121 315 121q94 0 167 -46t73 -122
q0 -51 -33 -81q-33 -29 -84 -29t-84 37q-106 135 -145 135q-86 0 -86 -250v-231q0 -41 7 -49t46 -9h195q14 -8 14 -50t-27 -60h-182q-39 -1 -46 -9t-7 -49v-413q0 -111 12 -139t63 -31l68 -7q12 -7 12 -33t-14 -34q-145 6 -273 6t-227 -6q-14 8 -14 34t12 33l33 5
q41 4 51 32t10 140v413q0 41 -7 49t-44 9h-202q-36 1 -48 -9t-6 -49v-413q0 -111 12 -138t64 -34l27 -5q12 -7 12 -33t-14 -34q-87 6 -231 6t-242 -6q-14 8 -15 34q0 26 12 33l33 5q51 6 64 33q12 28 12 139v413q0 41 -7 49t-44 9z" />
    <glyph glyph-name="f_f_i" unicode="ffi" horiz-adv-x="1732" 
d="M492 819h208q29 0 37 8t8 35q0 162 41 303q-14 59 -52 107t-108 49q-70 0 -129 -94q-58 -94 -59 -332v-18q0 -41 7 -50q8 -8 47 -8zM121 709h-76q-10 6 -12 26t6 29l88 45q45 25 45 53q0 162 57 287q123 266 422 266q174 0 248 -72q121 121 340 121q152 0 246 -60
t94 -151q0 -61 -43 -97q-44 -36 -106 -36t-89 43q-8 12 -26 51t-29 56q-53 92 -127 92q-39 0 -69 -29t-55 -117q-24 -88 -23 -231v-115q0 -39 7 -45t46 -6h158q266 0 338 17q33 0 34 -31q-10 -109 -10 -236v-331q0 -111 12 -139t64 -33l33 -5q12 -7 12 -33t-14 -34
q-94 6 -230 6t-235 -6q-14 8 -15 34q0 26 13 33l32 5q41 4 52 32q10 29 10 140v292q0 121 -16 150t-91 29h-147q-37 -1 -45 -9t-8 -49v-413q0 -111 12 -138t63 -34l27 -5q12 -7 12 -33t-14 -34q-88 6 -224 6t-235 -6q-14 8 -14 34t12 33l33 5q41 4 51 32t10 140v413
q0 41 -7 49t-44 9h-202q-36 1 -48 -9t-6 -49v-413q0 -111 12 -138t64 -34l27 -5q12 -7 12 -33t-14 -34q-87 6 -231 6t-242 -6q-14 8 -15 34q0 26 12 33l33 5q51 6 64 33q12 28 12 139v413q0 41 -7 49t-44 9z" />
    <glyph glyph-name="f_f_l" unicode="ffl" horiz-adv-x="1732" 
d="M1065 819h199q39 0 47 7t8 44v330q0 58 -37 112t-102 54t-112 -87q-56 -99 -56 -355v-47q0 -41 7 -49t46 -9zM492 819h208q29 0 37 8t8 35q0 162 41 303q-14 59 -52 107t-108 49q-70 0 -129 -94q-58 -94 -59 -332v-18q0 -41 7 -50q8 -8 47 -8zM121 709h-76q-10 6 -12 26
t6 29l88 45q45 25 45 53q0 162 57 287q123 266 420 266q166 0 240 -72q39 43 122 82t203 39t207 -61q66 23 135 61q23 0 35 -14q-6 -127 -6 -299v-913q0 -106 12 -134t64 -34l33 -4q12 -8 12 -36t-14 -36q-98 6 -232 6t-233 -6q-14 8 -15 34q0 26 13 33l32 5q41 4 52 32
q10 29 10 140v419q0 37 -8 44t-47 8h-199q-39 -1 -46 -9t-7 -49v-413q0 -111 12 -138t63 -34l27 -5q12 -7 12 -33t-14 -34q-88 6 -232 6t-241 -6q-14 8 -14 36t12 36l33 4q51 6 63 34t12 134v413q0 41 -7 49t-44 9h-202q-36 1 -48 -9t-6 -49v-413q0 -111 12 -138t64 -34
l27 -5q12 -7 12 -33t-14 -34q-87 6 -231 6t-242 -6q-14 8 -15 34q0 26 12 33l33 5q51 6 64 33q12 28 12 139v413q0 41 -7 49t-44 9z" />
    <glyph glyph-name="f_i" unicode="fi" horiz-adv-x="1159" 
d="M172 238v413q0 41 -7 49t-44 9h-76q-10 6 -12 26t6 29l88 45q45 25 45 53q0 199 64 334q125 268 430 268q152 0 246 -60t94 -151q0 -61 -43 -97t-106 -36t-89 43q-8 12 -27 51q-18 39 -28 56q-53 92 -127 92q-39 0 -70 -29q-30 -29 -54 -117t-24 -231v-115q0 -39 7 -45
t47 -6h157q266 0 338 17q33 0 35 -31q-10 -109 -10 -236v-331q0 -111 12 -139t63 -33l33 -5q12 -7 12 -33t-14 -34q-98 6 -232 6t-233 -6q-14 8 -14 34t12 33l33 5q41 4 51 32t10 140v292q0 121 -16 150t-90 29h-147q-38 1 -46 -7t-8 -47v-417q0 -111 12 -138t64 -34l27 -5
q12 -7 12 -33t-14 -34q-87 6 -231 6t-242 -6q-14 8 -15 34q0 26 12 33l33 5q51 6 64 33q12 28 12 139z" />
    <glyph glyph-name="f_l" unicode="fl" horiz-adv-x="1159" 
d="M492 819h198q39 0 47 7t8 44v330q0 57 -36 112q-37 54 -102 54t-112 -87q-55 -97 -57 -355v-47q0 -41 7 -50q8 -8 47 -8zM121 709h-76q-10 6 -12 26t6 29l88 45q45 25 45 53q0 219 57 341t159 192q102 69 236 69q136 0 224 -61q66 23 135 61q23 0 35 -14q-6 -125 -6 -299
v-913q0 -106 12 -134t63 -34l33 -4q12 -8 12 -36t-14 -36q-98 6 -232 6t-233 -6q-14 8 -14 34t12 33l33 5q41 4 51 32t10 140v419q0 37 -8 44t-47 8h-198q-38 -1 -46 -9t-8 -49v-413q0 -111 12 -138t64 -34l27 -5q12 -7 12 -33t-14 -34q-87 6 -231 6t-242 -6q-14 8 -15 36
q0 28 12 36l33 4q51 6 64 33q12 28 12 135v413q0 41 -7 49t-44 9z" />
    <glyph glyph-name=".notdef" horiz-adv-x="1024" 
d="M102 1239v-1044l349 522zM164 102h696l-348 523zM573 717l349 -522v1044zM512 809l348 522h-696zM0 0v1434h1024v-1434h-1024z" />
    <glyph glyph-name=".null" horiz-adv-x="0" 
 />
    <glyph glyph-name="nonmarkingreturn" horiz-adv-x="681" 
 />
    <glyph glyph-name="space" unicode=" " horiz-adv-x="491" 
 />
    <glyph glyph-name="exclam" unicode="!" horiz-adv-x="520" 
d="M264 -29q-70 0 -120 47t-50 119t48 121t119 49t118 -51t47 -121t-46 -117t-116 -47zM260 1323q84 0 124 -19t40 -69q0 -10 -33 -240l-86 -575q-18 -12 -45 -12t-45 12l-86 575q-33 229 -33 240q0 49 40 69t124 19z" />
    <glyph glyph-name="quotedbl" unicode="&#x22;" horiz-adv-x="966" 
d="M688 1434q74 0 103 -12t29 -47q0 -34 -17 -128l-76 -420q-39 -29 -78 0l-76 420q-16 94 -16 128q1 35 29 47t102 12zM279 1434q75 0 103 -12t28 -47q0 -34 -17 -128l-76 -420q-39 -29 -77 0l-76 420q-16 94 -16 128q0 35 28 47q29 12 103 12z" />
    <glyph glyph-name="numbersign" unicode="#" horiz-adv-x="1064" 
d="M1008 811h-203l-82 -301h180l-22 -131h-193l-102 -373h-123l98 373h-199l-102 -373h-121l99 373h-201l22 131h213l80 301h-202l24 133h213l88 334h131l-90 -334h195l88 334h133l-90 -334h184zM676 811h-197l-82 -301h199z" />
    <glyph glyph-name="dollar" unicode="$" horiz-adv-x="1064" 
d="M991 360q0 -152 -126 -252q-126 -101 -345 -108l-22 -190q-10 -14 -49 -14t-50 14l23 194q-186 10 -283 78q-29 31 -47 114t-18 179q10 16 32 18t37 -14q29 -90 109 -174t182 -105l55 461l-65 29q-276 121 -277 342q-2 154 114 249t314 103l19 156q8 14 49 14t49 -14
l-18 -158q76 -4 231 -41q35 -100 35 -266q-8 -13 -33 -17t-37 11q-20 66 -72 129t-136 86l-48 -398l101 -43q111 -47 193 -139t83 -244zM582 518l-50 -424q100 8 152 62t51 139q1 141 -153 223zM383 1012q0 -107 139 -181l43 359q-88 -6 -135 -55t-47 -123z" />
    <glyph glyph-name="percent" unicode="%" horiz-adv-x="1773" 
d="M549 -82q-27 -6 -55 8t-37 41q414 737 757 1372q25 4 55 -10t38 -39q-414 -737 -758 -1372zM291 913q0 -315 131 -315q123 0 123 315t-123 316q-131 -1 -131 -316zM418 516q-113 0 -192 68q-138 119 -138 329q0 147 83 273t247 125q164 0 247 -125t83 -273
q0 -211 -139 -329q-78 -68 -191 -68zM1362 688q-131 0 -131 -315t131 -316q123 -1 123 315t-123 316zM1358 -25q-113 0 -192 68q-138 119 -138 330q0 147 83 272t247 125t247 -125t83 -272q0 -210 -139 -330q-78 -68 -191 -68z" />
    <glyph glyph-name="ampersand" unicode="&#x26;" horiz-adv-x="1689" 
d="M768 1058q0 70 -32 116t-88 47q-56 0 -91 -43q-35 -42 -35 -100q0 -130 125 -210q23 -14 33 -16q24 8 56 72t32 134zM387 416q0 -127 80 -203t197 -76q68 0 130 32q62 31 90 61t28 34t-33 62q-104 178 -306 307q-43 29 -51 29t-38 -26t-64 -86t-33 -134zM647 1311
q139 0 226 -78t88 -197q1 -64 -21 -98q-22 -33 -34 -48q-12 -16 -36 -34q-26 -18 -34 -26t-37 -23l-27 -16q143 -76 305 -287q61 106 111 220t49 140q0 26 -55 37l-37 6q-14 8 -12 37t18 35h84q84 0 403 12q16 -6 18 -34t-14 -37l-55 -9q-78 -12 -137 -61q-41 -30 -218 -302
q-46 -70 -64 -98q-18 -26 -23 -44h4q0 4 2 0l11 -22q11 -20 52 -80q42 -60 58 -76t50 -46q60 -51 163 -51q104 0 186 55q13 -4 21 -20t4 -31q-50 -61 -156 -112t-229 -51t-189 25q-66 26 -88 62q-4 8 -29 45t-38 68q-105 -100 -195 -150t-219 -51q-201 1 -320 103t-119 269
t120 270q94 84 198 126q-133 105 -133 249t104 234q105 89 244 89z" />
    <glyph glyph-name="quotesingle" unicode="'" horiz-adv-x="518" 
d="M260 1434q74 0 102 -12t29 -47q0 -34 -16 -128l-76 -420q-39 -29 -78 0l-76 420q-16 94 -16 128q1 35 29 47t102 12z" />
    <glyph glyph-name="parenleft" unicode="(" horiz-adv-x="696" 
d="M371 553q1 -246 75 -477t230 -371q0 -37 -35 -39q-229 125 -349 368t-120 519t120 519t349 368q35 -2 35 -39q-156 -139 -230 -371t-75 -477z" />
    <glyph glyph-name="parenright" unicode=")" horiz-adv-x="696" 
d="M326 553q0 246 -75 477t-231 371q0 37 35 39q229 -125 349 -368t120 -519t-120 -519t-349 -368q-35 2 -35 39q156 139 231 371t75 477z" />
    <glyph glyph-name="asterisk" unicode="*" horiz-adv-x="829" 
d="M416 641q-22 0 -33 8l-27 271l-260 -132q-14 6 -22 24t-4 34l235 166l-235 166q-4 16 4 33t22 26l260 -133l27 272q35 20 63 0l27 -272l254 135q17 -4 27 -22t6 -41l-234 -164l232 -160q10 -43 -29 -64l-256 132l-27 -271q-8 -8 -30 -8z" />
    <glyph glyph-name="plus" unicode="+" horiz-adv-x="1064" 
d="M625 0h-181v362h-321v148h321v326h181v-326h319v-148h-319v-362z" />
    <glyph glyph-name="comma" unicode="," horiz-adv-x="532" 
d="M246 344q70 0 136 -66t67 -204q1 -136 -95 -228t-241 -125q-27 2 -34 29t11 37q72 27 127 79t55 120q0 100 -118 133q-64 19 -64 83t43 103t113 39z" />
    <glyph glyph-name="hyphen" unicode="-" horiz-adv-x="671" 
d="M61 398q0 48 31 87l490 45q28 -33 28 -83t-26 -82l-492 -46q-31 31 -31 79z" />
    <glyph glyph-name="period" unicode="." horiz-adv-x="532" 
d="M270 -29q-70 0 -120 47t-50 119t48 121t119 49t118 -51t47 -121t-46 -117t-116 -47z" />
    <glyph glyph-name="slash" unicode="/" horiz-adv-x="694" 
d="M653 1384l-428 -1417h-184l428 1417h184z" />
    <glyph glyph-name="zero" unicode="0" horiz-adv-x="1064" 
d="M532 66q168 0 175 575q-1 171 -23 311t-59 202t-93 62q-138 1 -167 -406q-7 -83 -7 -169t6 -169q20 -251 76 -345q37 -61 92 -61zM532 1311q158 1 269 -103q203 -189 204 -567t-204 -568q-111 -101 -269 -101t-268 100q-204 188 -205 566q0 377 205 569q110 104 268 104z
" />
    <glyph glyph-name="one" unicode="1" horiz-adv-x="1064" 
d="M676 1053v-789q0 -122 18 -154t94 -38l84 -6q14 -8 12 -38t-16 -34q-112 6 -328 6t-327 -6q-14 4 -16 34t12 38l84 6q76 6 94 38t19 154v670q0 104 -16 137t-83 41l-94 12q-14 8 -15 36t11 36q217 30 413 113q26 10 31 10q23 0 29 -23q-6 -71 -6 -243z" />
    <glyph glyph-name="two" unicode="2" horiz-adv-x="1064" 
d="M453 211h247q117 0 154 16t80 97q10 12 37 9t33 -22q-14 -92 -44 -185t-57 -132q-123 6 -287 6h-325q-176 0 -230 -6q-29 6 -20 45q188 174 316 314q128 139 199 269t71 259q1 129 -61 199t-163 71q-154 0 -264 -188q-18 -13 -42 -5t-25 33q61 152 189 236t293 84
q165 1 270 -99q106 -100 106 -236t-65 -242t-244 -277l-99 -92q-109 -100 -108 -129q0 -25 39 -25z" />
    <glyph glyph-name="three" unicode="3" horiz-adv-x="1064" 
d="M436 1182q-139 0 -252 -170q-20 -6 -39 7q-18 13 -18 32q61 123 175 191t258 69q144 0 233 -66q88 -66 88 -170q-1 -74 -53 -136t-205 -128q-25 -12 -2 -23q8 -4 20 -4q141 4 243 -85t101 -232q0 -244 -235 -418q-227 -164 -474 -164q-92 0 -156 36t-65 110q0 45 33 79
t77 34t70 -19q26 -18 39 -33q12 -16 18 -23t14 -19q34 -62 108 -62q73 0 169 99q95 99 95 253t-66 242t-174 88t-202 -86q-31 6 -47 34q-15 29 -1 64q236 88 326 163t90 187q0 58 -47 104t-121 46z" />
    <glyph glyph-name="four" unicode="4" horiz-adv-x="1064" 
d="M567 264v58q0 41 -7 50t-40 9h-473q-37 16 -22 65l665 951q35 49 68 49h59q61 0 21 -55l-615 -852q-16 -19 -8 -31t53 -12h252q33 0 40 9t7 50v287q0 57 45 73q150 63 199 64q27 0 27 -35v-389q0 -41 7 -50t40 -9h135q22 -12 22 -56t-22 -59h-135q-33 0 -40 -9t-7 -50
v-58q0 -124 17 -156t85 -38l43 -4q14 -8 12 -38t-16 -34q-111 6 -305 6t-299 -6q-14 4 -17 34q-2 30 13 38l84 6q76 6 94 36t18 156z" />
    <glyph glyph-name="five" unicode="5" horiz-adv-x="1064" 
d="M958 444q0 -283 -294 -442q-236 -127 -555 -135q-23 10 -28 46t15 50q274 12 410 92q190 113 190 277q0 84 -36 146t-82 95q-47 33 -127 56q-81 23 -133 29t-116 12q-64 4 -77 19q-12 15 -2 52l123 471q10 36 24 46t68 16l543 65q23 0 22 -24q-31 -133 -112 -211
l-463 -51q-35 -4 -47 -60l-13 -47q-8 -33 6 -44t50 -15q281 -33 396 -91q238 -118 238 -352z" />
    <glyph glyph-name="six" unicode="6" horiz-adv-x="1064" 
d="M59 520q0 172 72 336q142 322 493 477q175 78 355 86q16 -9 18 -31t-12 -40q-178 -43 -279 -109t-194 -178q-154 -190 -154 -522q0 -181 60 -327t166 -146q84 0 120 70t35 156q0 203 -96 323q-55 71 -137 71q-12 2 -47 -2q-18 12 -15 37q30 33 92 61t113 29
q181 0 275 -113t94 -274q0 -203 -128 -328t-349 -125q-221 -1 -351 151t-131 398z" />
    <glyph glyph-name="seven" unicode="7" horiz-adv-x="1064" 
d="M346 1282h393q256 0 297 6q23 -6 19 -33q-68 -102 -203 -337l-590 -1045q-28 -6 -62 13t-36 51l538 935q68 119 68 162q0 33 -59 33h-435q-88 0 -118 -17t-68 -83q-12 -15 -38 -9t-32 23q23 66 80 307q103 -6 246 -6z" />
    <glyph glyph-name="eight" unicode="8" horiz-adv-x="1064" 
d="M540 1217q-69 -1 -116 -55t-47 -136q0 -152 237 -254q98 59 99 223q0 100 -52 161t-121 61zM542 66q85 0 134 52t49 152t-71 176q-71 74 -212 140q-104 -104 -104 -260q0 -111 59 -186q60 -74 145 -74zM993 326q0 -154 -121 -254q-120 -100 -330 -101q-210 0 -339 86
t-129 246q0 203 270 340q-217 119 -217 315q0 154 116 253t298 99t292 -86q110 -87 109 -233q0 -99 -59 -161t-164 -121q274 -139 274 -383z" />
    <glyph glyph-name="nine" unicode="9" horiz-adv-x="1064" 
d="M529 1311q210 0 340 -152t130 -375q0 -362 -282 -622q-125 -117 -304 -199t-311 -86q-18 8 -20 33t12 35q289 72 448 298t158 521q0 144 -33 251q-33 109 -77 155t-111 46t-107 -70t-40 -188t54 -224t153 -126q27 -4 57 -4q16 -10 12 -43q-59 -63 -203 -63t-246 105
q-101 105 -102 259q0 195 131 322t341 127z" />
    <glyph glyph-name="colon" unicode=":" horiz-adv-x="532" 
d="M270 471q-70 0 -120 45t-50 118t48 123t119 50t118 -52t47 -123t-46 -116t-116 -45zM270 -29q-70 0 -120 47t-50 119t48 121t119 49t118 -51t47 -121t-46 -117t-116 -47z" />
    <glyph glyph-name="semicolon" unicode=";" horiz-adv-x="532" 
d="M270 471q-70 0 -120 45t-50 118t48 123t119 50t118 -52t47 -123t-46 -116t-116 -45zM246 344q70 0 136 -66t67 -204q1 -136 -95 -228t-241 -125q-27 2 -34 29t11 37q72 27 127 79t55 120q0 100 -118 133q-64 19 -64 83t43 103t113 39z" />
    <glyph glyph-name="less" unicode="&#x3c;" horiz-adv-x="1064" 
d="M135 483l797 365v-170l-586 -252v-4l586 -254v-168l-797 362v121z" />
    <glyph glyph-name="equal" unicode="=" horiz-adv-x="1064" 
d="M944 512h-821v147h821v-147zM944 217h-821v148h821v-148z" />
    <glyph glyph-name="greater" unicode="&#x3e;" horiz-adv-x="1064" 
d="M135 848l797 -365v-121l-797 -362v168l586 254v4l-586 252v170z" />
    <glyph glyph-name="question" unicode="?" horiz-adv-x="679" 
d="M272 -29q-70 0 -120 47t-50 119t48 121t120 49q70 0 117 -51t47 -121t-46 -117t-116 -47zM113 668q0 68 41 109q41 40 143 83l96 41q53 23 76 38t23 36q0 47 -69 69t-228 21q-37 0 -75 35t-38 92t40 94t103 37q143 0 258 -126t115 -289t-129 -222l-135 -61
q-84 -37 -84 -88t20 -111q-8 -14 -32 -18t-35 8q-31 44 -61 114t-29 138z" />
    <glyph glyph-name="at" unicode="@" horiz-adv-x="1574" 
d="M946 680q-36 0 -110 -67t-139 -191t-64 -186q0 -29 20 -29q39 1 111 67t145 181q74 115 92 174q-20 51 -55 51zM903 1108q279 0 439 -161t161 -380q0 -219 -145 -351t-397 -132q-53 0 -95 14t-43 43q0 14 19 66l43 112l-4 3q-78 -94 -192 -166t-168 -72t-78 27
q-23 27 -23 65t39 127q96 222 307 369q109 76 213 76q53 0 70 -33l49 92q20 4 32 4q70 0 109 -29q-9 -30 -113 -270t-118 -278t-9 -53q6 -15 37 -15q135 0 247 106t112 296q1 190 -141 319t-351 129q-274 0 -450 -204t-177 -482q0 -154 74 -288q140 -257 508 -257
q140 0 305 68q13 -6 21 -29t-2 -37q-172 -94 -400 -94q-279 0 -484 155q-99 76 -158 201q-58 125 -58 283q0 346 242 561t579 215z" />
    <glyph glyph-name="A" unicode="A" horiz-adv-x="1277" 
d="M461 571h192q37 -1 44 9t-3 51l-53 166q-61 190 -84 241q-4 -12 -21 -60q-16 -48 -34 -99t-33 -93l-51 -153q-12 -41 -4 -51t47 -11zM1343 31q0 -27 -12 -37q-147 6 -299 6t-293 -6q-16 10 -18 35t14 37l66 10q55 10 55 35q0 18 -39 139l-55 176q-8 25 -26 31t-72 6h-244
q-37 0 -48 -6t-20 -35l-80 -238q-14 -47 -14 -73q0 -20 84 -35l61 -10q11 -12 11 -39t-15 -33q-18 2 -231 6l-211 -6q-16 8 -17 34t11 38l55 6q43 6 72 26t53 76q51 123 129 328l186 499q27 74 43 113q39 99 33 148q58 13 91 41q35 29 51 45l36 36q37 0 48 -41
q25 -86 92 -280l278 -803q37 -102 61 -138t76 -44l78 -12q10 -8 10 -35z" />
    <glyph glyph-name="B" unicode="B" horiz-adv-x="1300" 
d="M516 588v-242q0 -136 35 -198t145 -62t171 78t61 210t-78 215t-221 83q-85 0 -99 -12t-14 -72zM516 1157v-338q0 -41 15 -49t94 -8q123 0 182 66t59 182t-70 185q-71 69 -182 69q-70 0 -84 -18t-14 -89zM233 295v723q0 158 -13 194t-77 45l-55 9q-14 8 -14 40t22 33
q281 19 540 19t394 -81t135 -255q-1 -113 -69 -175q-68 -61 -124 -75t-57 -29q0 -10 29 -16q131 -29 215 -114t86 -222q3 -137 -65 -224t-194 -131t-388 -44l-211 8q-141 0 -317 -6q-12 10 -13 39q0 29 13 33l59 12q70 14 87 48t17 169z" />
    <glyph glyph-name="C" unicode="C" horiz-adv-x="1411" 
d="M897 1384q150 0 277 -25t145 -28q0 -162 24 -319q-7 -18 -37 -24t-40 9q-86 293 -385 293q-188 0 -330 -157q-141 -158 -141 -447t142 -457t339 -168q291 0 418 318q12 12 41 8t36 -22q-23 -229 -77 -322q-272 -76 -416 -76q-342 0 -551 156q-260 199 -260 537t248 542
q219 182 567 182z" />
    <glyph glyph-name="D" unicode="D" horiz-adv-x="1624" 
d="M526 1118v-747q0 -182 41 -230q53 -59 175 -59t217 52q166 91 228 331q26 100 25 211q0 280 -145 434t-420 154q-85 0 -103 -23t-18 -123zM233 295v725q0 154 -15 194t-83 50l-39 4q-16 8 -15 39t19 32q308 19 574 19t458 -69t301 -231t109 -366t-95 -362t-279 -250
t-511 -92l-272 12q-143 0 -319 -6q-12 10 -13 37q0 27 13 35l63 10q70 10 87 45t17 174z" />
    <glyph glyph-name="E" unicode="E" horiz-adv-x="1214" 
d="M758 1257h-164q-48 0 -58 -11t-10 -68v-359q0 -43 8 -52t50 -9h141q82 0 110 19t42 93l10 52q10 12 39 12t37 -14q-14 -234 0 -435q-8 -14 -37 -15t-39 13l-10 52q-14 74 -43 94t-109 20h-141q-41 0 -49 -9t-9 -54v-244q0 -148 26 -186t72 -50q44 -12 137 -12t131 5
t85 28t81 71t77 134q12 16 41 12t34 -22q-6 -76 -34 -180t-52 -148q-162 6 -473 6h-266q-123 0 -352 -6q-12 10 -13 37q0 27 13 35l96 14q72 10 88 43t16 172v764q0 137 -16 170t-88 47l-51 10q-14 8 -12 36t16 36q143 -6 295 -6h434q236 0 274 6l27 -318q-6 -16 -34 -19
t-42 11q-37 119 -78 162q-63 63 -200 63z" />
    <glyph glyph-name="F" unicode="F" horiz-adv-x="1122" 
d="M526 1174v-371q0 -43 8 -52t50 -10h157q82 1 110 21t42 94l10 49q10 13 39 13t39 -15q-6 -98 -6 -219t6 -213q-10 -14 -39 -15t-39 13l-10 49q-14 74 -42 94t-110 21h-157q-41 0 -49 -9t-9 -53v-276q0 -141 18 -175t87 -44l76 -10q10 -10 10 -36t-10 -36q-189 6 -325 6
t-321 -6q-12 10 -12 37t12 35l68 10q70 10 87 45t17 174v762q0 141 -17 177t-87 46l-41 6q-14 8 -13 37t17 35q131 -6 289 -6h430q233 0 276 6q0 -182 5 -320q-6 -16 -33 -18t-45 10q-35 127 -60 160q-55 68 -200 67h-160q-48 0 -58 -11t-10 -72z" />
    <glyph glyph-name="G" unicode="G" horiz-adv-x="1503" 
d="M1358 346v-115q0 -73 8 -101t35 -34q6 -6 4 -25t-10 -24q-109 -17 -155 -33t-158 -31t-193 -16q-221 0 -405 73q-184 72 -293 236t-109 371t90 368t280 265t470 104q133 0 263 -24t142 -25q2 -18 7 -123t22 -206q-6 -16 -37 -18t-41 13q-98 289 -385 289
q-233 0 -358 -168t-125 -426q0 -399 233 -557q117 -78 281 -78q88 0 114 29t27 127v129q0 82 -18 105t-93 32l-90 13q-16 8 -16 34t16 37q218 -6 364 -6t251 6q12 -10 12 -37t-12 -34l-47 -9q-47 -8 -61 -33q-13 -26 -13 -108z" />
    <glyph glyph-name="H" unicode="H" horiz-adv-x="1650" 
d="M1038 649h-426q-63 0 -74 -8t-12 -51v-295q0 -141 18 -176t87 -45l65 -8q12 -8 12 -35t-12 -37q-176 6 -317 6t-299 -6q-12 10 -12 37t12 35l49 6q72 10 88 45t16 178v762q0 143 -16 178t-88 45l-49 6q-12 8 -12 35t12 37q150 -6 302 -6t288 6q12 -10 12 -37t-12 -35
l-43 -6q-68 -10 -84 -46t-17 -177v-238q0 -45 12 -53t74 -8h426q63 0 75 8q11 8 11 53v238q0 141 -16 176t-88 45l-55 8q-12 8 -13 35q0 27 13 37q170 -6 314 -6t286 6q12 -10 12 -37t-12 -35l-41 -6q-72 -10 -89 -46t-18 -177v-762q-1 -141 17 -175t90 -46l49 -8
q12 -10 12 -36t-12 -36q-155 6 -303 6t-295 -6q-12 10 -12 37t12 35l45 6q72 10 88 45t16 178v295q0 43 -11 51q-12 8 -75 8z" />
    <glyph glyph-name="I" unicode="I" horiz-adv-x="759" 
d="M526 1053v-754q0 -141 18 -176t89 -47l57 -10q12 -10 11 -36t-13 -36q-166 6 -309 6t-309 -6q-12 10 -13 37q0 27 13 35l57 10q72 12 89 47t17 176v754q0 141 -17 176t-89 47l-57 10q-12 8 -13 35q0 27 13 37q166 -6 310 -6t310 6q12 -10 12 -37t-12 -35l-57 -10
q-71 -12 -89 -47t-18 -176z" />
    <glyph glyph-name="J" unicode="J" horiz-adv-x="784" 
d="M190 -287q84 0 84 570v770q0 141 -17 176t-89 45l-78 12q-12 8 -12 35t12 37q197 -6 337 -6t300 6q12 -10 12 -37t-12 -35l-53 -10q-72 -14 -89 -48t-18 -175v-742q0 -270 -47 -395q-121 -313 -479 -328q-57 -2 -107 16t-49 76q0 56 54 109q27 27 61 27t100 -52
q68 -52 90 -51z" />
    <glyph glyph-name="K" unicode="K" horiz-adv-x="1464" 
d="M526 1057v-250q0 -47 8 -61t34 -15q24 0 74 40t85 79q242 270 281 326t39 71q0 20 -35 27l-72 12q-16 10 -14 38t22 34q156 -6 268 -6t234 6q18 -6 20 -33t-10 -39q-123 -14 -176 -37q-113 -45 -303 -262l-94 -106q-27 -29 -27 -46t48 -89t172 -264q123 -192 189 -276
t99 -104t80 -26l65 -10q11 -14 9 -39t-15 -33q-153 6 -299 6t-317 -6q-20 6 -21 35q0 29 17 37l51 12q35 10 35 20q-1 16 -11 32q-98 154 -124 192l-109 165q-61 94 -92 128t-63 34q-32 1 -40 -25t-8 -114v-215q0 -141 18 -176t87 -45l57 -8q12 -10 12 -36t-12 -36
q-164 6 -308 6t-308 -6q-12 10 -13 37q0 27 13 35l57 8q70 10 87 45t17 176v762q0 141 -17 176t-87 45l-57 8q-16 8 -17 35q0 27 17 37q154 -6 303 -6t313 6q14 -10 14 -37t-14 -35l-57 -8q-69 -10 -87 -45t-18 -176z" />
    <glyph glyph-name="L" unicode="L" horiz-adv-x="1198" 
d="M526 1057v-717q0 -152 29 -188t71 -47t136 -11t133 4t84 29t80 73t80 138q12 14 40 10t38 -22q-8 -76 -37 -182t-52 -150q-162 6 -473 6h-274q-133 0 -324 -6q-14 10 -16 36t10 36l78 10q70 10 87 44t17 175v762q0 141 -17 176t-87 45l-59 8q-16 8 -16 36q1 28 20 36
q160 -6 308 -6t302 6q12 -10 12 -37t-12 -35l-53 -8q-69 -10 -87 -45t-18 -176z" />
    <glyph glyph-name="M" unicode="M" horiz-adv-x="1859" 
d="M340 221q0 -79 17 -107t77 -36l80 -12q12 -10 10 -37t-14 -35q-112 6 -228 6t-239 -6q-18 6 -20 35t12 37l37 6q80 14 100 39t26 94t11 141q4 72 18 317t15 453q0 82 -30 116t-97 46l-45 8q-12 12 -12 40q1 28 18 32q104 -6 244 -6t215 6q0 -98 64 -237q11 -25 48 -103
t49 -105l135 -288q12 -27 121 -222q51 94 115 234l104 225q110 240 142 326q31 86 53 170q72 -6 200 -6t238 6q16 -8 18 -33t-12 -39l-59 -10q-69 -12 -97 -41t-28 -107q0 -557 16 -901q4 -79 20 -113t73 -40l65 -8q12 -12 11 -39t-15 -33q-141 6 -290 6t-296 -6
q-18 8 -20 35t14 37l62 8q68 8 81 35t13 127l-4 532v233h-4q-346 -748 -451 -1015q-18 -14 -47 -14t-47 12q-51 166 -230 554q-179 389 -217 474h-4q-16 -282 -16 -791z" />
    <glyph glyph-name="N" unicode="N" horiz-adv-x="1531" 
d="M1335 838v-490q0 -262 4 -330q-10 -18 -47 -32t-73 -15l-21 29q-58 89 -145 195l-473 585q-195 238 -224 262q-10 -20 -10 -131v-397q0 -299 31 -375q23 -51 119 -65l57 -8q12 -12 11 -37t-11 -35q-167 6 -277 6t-227 -6q-10 10 -11 35t11 37l35 6q94 16 113 67
q29 70 28 375v520q0 141 -14 174q-27 57 -117 70l-57 8q-12 12 -9 40t17 32q145 -6 267 -6t188 6q24 -98 206 -310q36 -42 132 -157l172 -203q158 -186 196 -225q8 20 8 92v283q0 299 -30 374q-23 51 -119 66l-55 8q-12 12 -12 37q1 25 12 35q166 -6 274 -6t229 6
q9 -10 11 -35t-11 -37l-36 -6q-88 -14 -111 -68q-31 -75 -31 -374z" />
    <glyph glyph-name="O" unicode="O" horiz-adv-x="1613" 
d="M1204 656q0 269 -110 452q-111 182 -296 182t-287 -157q-101 -158 -101 -399t85 -439q44 -104 131 -169t205 -65q190 0 282 163q91 163 91 432zM82 660q0 312 207 518t525 206t518 -196t200 -516q0 -322 -203 -513t-526 -191t-522 190t-199 502z" />
    <glyph glyph-name="P" unicode="P" horiz-adv-x="1230" 
d="M233 295v725q0 158 -13 196t-77 46l-63 8q-14 8 -13 34t17 35q244 19 476 19t356 -47q266 -102 266 -361q0 -118 -52 -200q-81 -128 -277 -170q-97 -21 -183 -13q-12 9 -14 27t8 29q120 37 162 117t42 208q0 127 -66 221q-67 94 -196 95q-53 0 -66 -20t-14 -85v-864
q0 -141 18 -176t87 -45l65 -11q16 -7 16 -33t-16 -36q-172 6 -313 6t-307 -6q-16 10 -19 36q-2 26 15 33l57 11q70 12 87 47t17 174z" />
    <glyph glyph-name="Q" unicode="Q" horiz-adv-x="1613" 
d="M798 1290q-185 0 -287 -157q-101 -158 -101 -399t85 -439q44 -104 131 -170t205 -66q190 0 282 164q91 164 91 433t-110 452q-111 182 -296 182zM82 672q0 300 207 506t525 206t518 -194t200 -510q0 -246 -114 -416t-314 -246q-20 -12 18 -47q264 -248 445 -295
q68 -16 133 -16t108 16q31 -14 19 -49q-109 -76 -293 -76q-397 0 -739 353q-27 29 -45 47t-64 22q-260 23 -432 211t-172 488z" />
    <glyph glyph-name="R" unicode="R" horiz-adv-x="1359" 
d="M514 1159v-399q0 -54 18 -66t112 -12t161 66q65 66 65 208t-73 225q-74 83 -195 83q-64 0 -76 -16t-12 -89zM233 295v725q0 156 -13 194t-77 46l-55 8q-16 8 -15 36t19 35q276 19 532 19t377 -74q180 -106 181 -303q0 -121 -62 -191t-155 -116q-25 -12 -11 -45
q111 -225 180 -339q134 -221 275 -231q12 -8 14 -26t-6 -27q-43 -18 -172 -18q-255 0 -387 215q-78 129 -160 317q-33 72 -108 72q-52 0 -64 -7t-12 -38v-252q0 -139 17 -173t87 -46l56 -10q10 -8 10 -35t-10 -37q-162 6 -301 6t-299 -6q-12 10 -13 37q0 27 13 35l55 10
q70 12 87 46t17 173z" />
    <glyph glyph-name="S" unicode="S" horiz-adv-x="1036" 
d="M977 383q0 -188 -141 -302q-142 -114 -364 -114t-359 78q-29 33 -47 129t-19 203q10 20 38 21t40 -15q37 -117 135 -219t210 -102t170 60q58 62 58 146q0 186 -278 326q-309 156 -309 399q-2 176 126 284t349 107q125 0 233 -32q35 -10 70 -17q37 -100 37 -293
q-8 -18 -37 -20t-43 14q-33 98 -102 176t-168 78t-154 -55t-55 -129t52 -135t134 -105l135 -71q289 -154 289 -412z" />
    <glyph glyph-name="T" unicode="T" horiz-adv-x="1320" 
d="M522 295v903q0 39 -7 49t-42 10h-127q-104 0 -152 -51t-102 -180q-18 -10 -43 -5t-33 23q43 152 68 349q14 10 30 10t27 -8q8 -29 35 -36t137 -7h762q106 0 139 7t46 38q12 6 29 6t28 -14q-39 -131 -31 -353q-8 -14 -38 -16t-38 10q-16 61 -27 93t-35 68q-44 66 -155 66
h-123q-37 0 -46 -10t-9 -49v-903q-1 -141 17 -175t88 -44l81 -10q11 -8 11 -35t-11 -37q-199 6 -329 6t-346 -6q-12 10 -13 36q0 26 13 36l92 10q70 8 87 43t17 176z" />
    <glyph glyph-name="U" unicode="U" horiz-adv-x="1515" 
d="M223 545v512q0 139 -16 173t-88 48l-51 10q-12 8 -13 35q0 27 17 35q147 -6 299 -6t299 6q12 -10 12 -35t-12 -35l-49 -8q-70 -12 -87 -47t-18 -176v-473q0 -290 84 -398q36 -46 100 -76t154 -30q342 0 342 510v248q0 303 -31 374q-20 47 -118 66l-56 10q-12 12 -11 36
t11 34q166 -6 277 -6t227 6q10 -10 11 -34t-11 -36l-37 -8q-90 -20 -110 -68q-31 -72 -31 -374v-230q0 -168 -27 -288t-104 -205q-138 -147 -404 -147t-412 119q-146 120 -147 458z" />
    <glyph glyph-name="V" unicode="V" horiz-adv-x="1314" 
d="M549 1326q0 -24 -10 -38l-62 -12q-51 -12 -51 -39q0 -20 82 -225l180 -461q37 -98 68 -172q49 104 73 166l78 192q183 463 185 502q0 18 -66 35l-65 14q-12 12 -12 37q1 25 20 33q145 -6 249 -6t193 6q12 -6 13 -34t-9 -36l-53 -10q-86 -16 -119 -68q-53 -80 -166 -348
l-149 -354q-61 -142 -127 -318t-78 -206q-27 -16 -67 -16t-60 16q-10 24 -41 110t-45 123l-332 834q-55 141 -79 173t-74 44l-82 20q-12 16 -10 39q3 23 18 31l278 -6q119 0 308 6q12 -8 12 -32z" />
    <glyph glyph-name="W" unicode="W" horiz-adv-x="1966" 
d="M714 -43q-38 0 -67 16q-41 109 -184 424l-336 733q-41 90 -62 113q-22 23 -73 33l-51 10q-12 14 -11 39q2 25 19 33q113 -6 255 -6t259 6q12 -6 15 -34t-11 -38l-37 -6q-51 -8 -51 -31q0 -14 106 -254l203 -452q39 -84 113 -234q41 70 104 211l27 60q20 47 20 69t-22 78
l-197 432q-35 78 -58 98q-24 20 -81 27l-21 2q-14 12 -12 39t19 33q130 -6 272 -6t221 6q17 -4 19 -34t-11 -38l-34 -8q-55 -14 -56 -29q0 -20 19 -61l61 -141q25 -57 64 -136q4 8 63 140l19 41q59 133 59 151t-41 29l-74 14q-10 10 -9 37t15 35q88 -6 209 -6t201 6
q12 -8 14 -36t-12 -38l-57 -12q-42 -8 -58 -16q-58 -26 -208 -328q-62 -122 -62 -138t16 -53l97 -207q59 -125 94 -206q307 744 335 810t27 103q0 18 -59 37l-45 12q-12 14 -10 39t16 33q97 -6 205 -6t194 6q14 -8 16 -34t-9 -38l-62 -14q-70 -14 -92 -45q-41 -59 -91 -174
q-348 -808 -446 -1069q-20 -16 -60 -16t-63 16q-8 20 -77 180l-86 194q-55 129 -74 158q-33 -61 -70 -141l-96 -209q-14 -29 -41 -92t-45 -101q-16 -16 -54 -16z" />
    <glyph glyph-name="X" unicode="X" horiz-adv-x="1361" 
d="M547 656q-1 21 -25 56q-24 36 -136 206t-158 236t-85 90t-108 36l-35 6q-14 12 -13 38t15 34q98 -6 316 -6t315 6q16 -8 18 -34t-10 -38l-45 -8q-70 -12 -70 -33t54 -115t172 -264q154 231 192 296t37 89q0 14 -41 21l-82 14q-12 10 -11 37t17 35q96 -6 236 -6t237 6
q15 -8 17 -33t-8 -39l-86 -12q-76 -10 -114 -48t-87 -98t-115 -153q-67 -93 -97 -135t-30 -58t29 -59q219 -340 299 -460q80 -121 124 -151t105 -38l64 -8q12 -10 10 -36t-16 -36q-134 6 -316 6t-348 -6q-14 6 -17 35t11 37l55 6q76 8 76 28t-41 91t-127 203t-109 161
q-143 -209 -243 -401q-19 -36 -19 -56t66 -26l53 -6q14 -10 12 -38t-18 -34q-135 6 -263 6t-220 -6q-16 8 -20 32t11 35l48 7q86 12 133 46q46 34 118 129t244 351q29 41 29 62z" />
    <glyph glyph-name="Y" unicode="Y" horiz-adv-x="1177" 
d="M752 438v-143q0 -141 17 -175t87 -44l82 -10q10 -10 10 -36t-10 -36q-201 6 -336 6t-317 -6q-12 10 -13 36q0 26 13 36l69 10q70 10 87 45t18 174v102q0 82 -9 124t-47 120l-243 504q-35 69 -58 95t-73 34l-70 12q-14 12 -12 40t20 32q139 -6 311 -6t277 6q14 -6 16 -33
t-12 -39l-70 -16q-49 -10 -49 -19q0 -25 54 -143l96 -219q44 -96 69 -147q26 -50 33 -66q30 47 152 290t123 279q0 18 -82 33l-39 8q-12 8 -12 36t14 36q124 -6 232 -6t198 6q18 -6 19 -34t-11 -38l-53 -10q-78 -12 -107 -49q-59 -74 -178 -291l-129 -234q-41 -74 -54 -126
t-13 -138z" />
    <glyph glyph-name="Z" unicode="Z" horiz-adv-x="1257" 
d="M737 1257h-221q-212 0 -279 -95q-32 -44 -71 -140q-20 -12 -47 -7t-37 21q37 139 80 363q6 6 23 6t30 -4q10 -33 37 -41t137 -8h586q188 0 239 6q16 -10 13 -31q-76 -80 -307 -438l-224 -346q-27 -41 -140 -219t-118 -203q0 -27 189 -27h190q158 0 230 45t153 213
q18 12 44 7t36 -21q-10 -86 -38 -197t-52 -147q-258 6 -428 6h-516q-158 0 -207 -6q-25 10 -16 35q23 25 188 274l403 615q190 295 193 327q0 12 -70 12z" />
    <glyph glyph-name="bracketleft" unicode="[" horiz-adv-x="696" 
d="M434 1411q138 0 199 -8q12 -6 12 -32t-10 -32l-141 -22q-50 -9 -64 -63t-14 -265v-880q0 -211 13 -265t65 -63l141 -23q10 -6 10 -32t-12 -31q-61 -8 -199 -8t-186 2v1720q48 2 186 2z" />
    <glyph glyph-name="backslash" unicode="\" horiz-adv-x="657" 
d="M225 1384l391 -1417h-184l-391 1417h184z" />
    <glyph glyph-name="bracketright" unicode="]" horiz-adv-x="696" 
d="M264 -313q-138 0 -201 8q-12 6 -12 32t10 31l142 23q51 8 64 62t14 266v880q1 211 -13 265t-65 63l-142 22q-10 6 -10 32t12 32q61 8 200 8t186 -2v-1720q-47 -2 -185 -2z" />
    <glyph glyph-name="asciicircum" unicode="^" horiz-adv-x="1064" 
d="M944 500h-182l-227 538l-228 -538h-184l342 782h139z" />
    <glyph glyph-name="underscore" unicode="_" horiz-adv-x="1024" 
d="M1024 -154v-102h-1024v102h1024z" />
    <glyph glyph-name="grave" unicode="`" horiz-adv-x="778" 
d="M180 1296q0 30 52 69q52 37 84 37q34 0 63 -61l186 -372q-6 -39 -51 -33l-289 285q-45 45 -45 75z" />
    <glyph glyph-name="a" unicode="a" horiz-adv-x="907" 
d="M328 227q0 -49 30 -86t75 -37q44 0 60 24q15 24 17 77l4 129q2 25 -1 32t-13 5q-172 -23 -172 -144zM850 104q37 0 80 25q14 -2 21 -17t3 -30q-28 -35 -94 -73t-148 -38t-167 72q-19 16 -31 16t-45 -22q-90 -66 -180 -66q-90 1 -157 57q-66 56 -66 146t50 141t146 80
t209 62q45 12 49 41q4 45 4 92t-29 100q-30 53 -89 53q-88 0 -107 -116q-6 -43 -32 -63q-25 -20 -73 -34q-48 -16 -77 -16q-47 0 -47 51q0 80 98 158q158 125 344 125q276 0 262 -297l-14 -270q-6 -94 23 -136q30 -41 67 -41z" />
    <glyph glyph-name="b" unicode="b" horiz-adv-x="1089" 
d="M401 602v-313q0 -94 43 -159q43 -64 128 -64t128 87t43 231t-67 240q-68 95 -174 95q-51 1 -76 -17t-25 -100zM401 1151v-309q0 -45 25 -51q106 57 217 57q171 0 277 -116t106 -294q0 -219 -139 -343t-365 -124q-131 0 -219 37q-45 18 -73 18t-60 -30q-23 -4 -41 14
q6 39 6 203v926q0 69 -6 91t-35 38l-35 20q-10 10 -10 30t10 32q106 25 316 114q23 0 35 -14q-9 -113 -9 -299z" />
    <glyph glyph-name="c" unicode="c" horiz-adv-x="851" 
d="M575 848q121 0 216 -35q43 -37 43 -94t-18 -93t-40 -36q-23 0 -28 10q-109 154 -207 154q-97 0 -153 -89t-56 -212t79 -221t208 -97q129 0 188 101q21 2 37 -10t16 -36q-39 -88 -133 -154t-229 -65q-193 0 -314 116q-121 117 -121 313q1 196 149 322t363 126z" />
    <glyph glyph-name="d" unicode="d" horiz-adv-x="1099" 
d="M688 211v397q0 41 -14 70q-43 76 -122 76t-140 -85q-62 -85 -62 -223t58 -237q58 -100 172 -100q43 0 84 24q24 17 24 78zM954 1151v-815q0 -144 10 -192t37 -48q41 0 89 17q16 -14 17 -44t-15 -44q-175 -12 -294 -52q-34 -10 -55 -16l-20 -6q-27 0 -35 29l6 63
q-4 27 -18 16q-139 -88 -221 -88q-172 0 -282 117t-110 287q1 213 141 343t347 130q80 0 117 -10q20 8 20 39v262q0 69 -6 91t-35 38l-35 20q-12 10 -11 30t11 32q121 29 314 114q23 0 35 -14q-7 -125 -7 -299z" />
    <glyph glyph-name="e" unicode="e" horiz-adv-x="860" 
d="M428 575h76q54 -1 76 13t22 59t-29 76t-85 31t-104 -48q-50 -48 -50 -100q0 -20 20 -26t74 -5zM836 553q0 -68 -74 -68h-393q-35 0 -43 -6t-9 -30q0 -123 77 -213t208 -90t195 106q17 4 35 -9t18 -38q-58 -121 -156 -177t-202 -57q-199 0 -313 121q-113 120 -113 306
t125 318q126 132 317 132q154 0 241 -85t87 -210z" />
    <glyph glyph-name="f" unicode="f" horiz-adv-x="636" 
d="M492 709q-38 -1 -46 -9t-8 -49v-413q0 -111 12 -139t64 -31l68 -7q12 -7 12 -33t-14 -34q-144 6 -284 6t-237 -6q-14 8 -14 34t12 33l33 5q55 6 69 33q13 28 13 139v413q0 41 -7 49t-44 9h-76q-10 6 -12 26t6 29l88 45q45 25 45 53q0 205 57 338q117 264 402 264
q94 0 167 -46t72 -122q0 -51 -32 -81q-32 -29 -84 -29q-51 0 -84 37q-106 135 -146 135q-86 0 -86 -250v-231q0 -41 7 -49t47 -9h194q14 -8 14 -50t-26 -60h-182z" />
    <glyph glyph-name="g" unicode="g" horiz-adv-x="980" 
d="M567 -115h-137q-80 0 -115 -26q-29 -27 -28 -72q0 -104 72 -167q73 -62 181 -62t169 44q59 44 59 122t-55 120q-56 41 -146 41zM470 301q122 0 122 215q0 113 -37 175q-37 63 -92 63t-92 -52t-37 -158t40 -174t96 -69zM983 -152q0 -94 -51 -176t-133 -133
q-152 -90 -358 -90t-304 77t-98 185q0 63 65 103q20 12 54 34t47 29q35 20 2 29q-57 18 -92 64t-35 88t14 55q98 63 131 96q29 23 17 45q-78 32 -126 102t-48 162q0 138 104 234t282 96t318 -76h236q18 -16 18 -65t-31 -68h-151q6 -29 6 -83q0 -118 -88 -227
q-45 -54 -131 -87t-201 -33q-16 0 -84 6q-35 -14 -35 -48t29 -54t76 -21l250 4q317 0 317 -248z" />
    <glyph glyph-name="h" unicode="h" horiz-adv-x="1120" 
d="M164 238v901q0 69 -6 91t-35 38l-35 20q-10 10 -10 30t10 32q86 20 313 114q23 0 35 -14q-6 -127 -6 -299v-377q0 -25 14 -24q6 0 33 16q121 82 240 82t187 -73t67 -185v-352q0 -106 13 -134t69 -34l32 -4q13 -8 13 -36t-15 -36q-97 6 -249 6t-220 -6q-14 8 -14 36t12 36
l37 6q37 6 46 28t10 107v354q0 59 -36 98t-112 39t-111 -49q-16 -18 -16 -76v-366q0 -84 9 -107t46 -28l37 -6q12 -8 12 -36t-14 -36q-94 6 -228 6t-239 -6q-14 8 -14 36t12 36l37 4q51 6 64 33q12 29 12 135z" />
    <glyph glyph-name="i" unicode="i" horiz-adv-x="585" 
d="M311 1309q63 0 103 -42t41 -108q0 -65 -45 -105t-110 -40q-66 0 -104 41t-38 105t45 107q45 42 108 42zM438 614v-376q0 -109 12 -137t64 -31l39 -4q12 -8 12 -36t-14 -36q-109 6 -250 6t-242 -6q-14 8 -14 36t12 36l39 4q51 4 64 31q12 28 12 137v309q0 67 -6 91t-33 40
l-29 18q-10 8 -10 31t10 31q195 53 304 119q25 0 36 -19q-6 -92 -6 -244z" />
    <glyph glyph-name="j" unicode="j" horiz-adv-x="575" 
d="M313 1309q63 0 103 -42t41 -108q0 -65 -45 -105t-110 -40q-66 0 -104 41t-38 105t45 107q45 42 108 42zM440 614v-505q0 -221 -44 -334t-133 -188t-277 -138q-23 8 -31 31t2 37q63 33 100 73q117 117 117 476v481q0 67 -6 91t-33 40l-29 18q-10 8 -10 31t10 31
q188 51 304 119q25 0 36 -19q-6 -92 -6 -244z" />
    <glyph glyph-name="k" unicode="k" horiz-adv-x="1089" 
d="M156 238v901q0 69 -6 91t-35 38l-35 20q-10 10 -10 30t10 32q109 27 313 114q23 0 35 -14q-6 -127 -6 -299v-643q0 -16 6 -22t23 -7q70 0 118 58l86 100q49 59 50 82q0 16 -39 20l-52 9q-14 14 -12 40t16 31h50q199 0 387 29q14 -8 16 -34t-8 -38l-66 -14
q-61 -12 -138 -72t-136 -119q-12 -14 -12 -30q-1 -16 123 -204q124 -187 158 -218t122 -47l31 -6q12 -10 9 -38t-17 -34q-96 6 -260 6t-250 -6q-14 8 -18 33q-3 25 9 39l27 6q33 6 33 18t-35 64l-145 221q-20 31 -52 31q-25 0 -24 -50v-118q0 -106 13 -134t67 -34l33 -4
q12 -8 12 -36t-15 -36q-98 6 -243 6t-252 -6q-14 8 -14 36t12 36l39 4q54 6 68 34t14 134z" />
    <glyph glyph-name="l" unicode="l" horiz-adv-x="569" 
d="M156 238v901q0 69 -6 91t-35 38l-35 20q-10 10 -10 30t10 32q113 27 313 114q23 0 35 -14q-6 -127 -6 -299v-913q0 -106 13 -134t67 -34l35 -4q12 -8 12 -36t-14 -36q-99 6 -241 6t-251 -6q-14 8 -14 36t12 36l39 4q52 4 64 32t12 136z" />
    <glyph glyph-name="m" unicode="m" horiz-adv-x="1650" 
d="M1100 698q-129 0 -129 -112v-379q0 -84 10 -109t45 -28l33 -4q12 -8 12 -36t-14 -36q-94 6 -226 6t-213 -6q-14 8 -14 36t12 36l33 4q35 4 45 28t11 109v348q0 63 -35 103t-108 40t-107 -49q-16 -18 -17 -76v-366q0 -84 10 -109t50 -28l32 -4q12 -8 12 -36t-14 -36
q-94 6 -231 6t-229 -6q-14 8 -16 36q-1 28 11 36l33 4q51 6 64 33q12 29 12 135v309q0 67 -6 91t-33 40l-29 18q-10 8 -10 31t10 31q193 53 304 119q25 0 36 -19l-6 -92q0 -16 8 -16t41 16q139 82 245 82t175 -78q31 -37 43 -37q12 -1 35 13t31 18t36 20l42 24q80 40 161 40
q117 0 183 -74t65 -184v-352q1 -106 13 -134t63 -34l33 -4q12 -8 12 -36t-14 -36q-94 6 -238 6t-225 -6q-14 8 -14 36t12 36l33 4q39 4 49 28t10 109v348q0 61 -35 102t-102 41z" />
    <glyph glyph-name="n" unicode="n" horiz-adv-x="1126" 
d="M446 750q8 0 41 16q139 82 249 82t176 -74t67 -184v-352q0 -106 13 -134t69 -34l33 -4q12 -8 12 -36t-14 -36q-96 6 -238 6t-231 -6q-14 8 -15 36q0 28 13 36l36 6q37 6 46 28t10 107v346q0 65 -35 105t-112 40t-111 -49q-16 -18 -17 -76v-366q0 -84 10 -109t50 -28
l32 -4q12 -8 12 -36t-14 -36q-94 6 -228 6t-241 -6q-14 8 -14 36t12 36l33 4q55 6 69 33q13 29 13 135v309q0 67 -6 91t-33 40l-29 18q-10 8 -10 31t10 31q201 55 304 119q25 0 36 -19l-6 -92q0 -16 8 -16z" />
    <glyph glyph-name="o" unicode="o" horiz-adv-x="1056" 
d="M528 754q-78 0 -124 -78t-46 -241t50 -266t137 -103q158 0 153 317q-2 159 -47 265t-123 106zM526 -29q-200 0 -330 110q-130 109 -132 315t138 329t333 123t325 -115t133 -325q0 -210 -134 -323q-134 -114 -333 -114z" />
    <glyph glyph-name="p" unicode="p" horiz-adv-x="1112" 
d="M424 559v-328q0 -72 47 -118q43 -47 98 -47q92 0 145 89q52 89 52 236t-65 231t-169 85q-64 0 -86 -28t-22 -120zM158 -285v832q0 67 -6 91t-33 40l-29 18q-10 8 -10 31t10 31q66 18 160 59t135 70q31 4 43 -25q-4 -24 -4 -58t16 -38q164 82 260 82q160 0 254 -111
t95 -280q1 -215 -139 -351t-363 -135q-63 0 -92 6q-31 -6 -31 -59v-203q0 -106 12 -134t64 -32l69 -6q13 -8 13 -36t-15 -35q-153 6 -283 6t-241 -6q-14 8 -14 36t12 35l41 4q52 3 64 31t12 137z" />
    <glyph glyph-name="q" unicode="q" horiz-adv-x="1081" 
d="M688 526q0 228 -139 228q-84 0 -142 -85q-59 -85 -59 -235t80 -246q80 -94 184 -94q39 0 62 15q14 10 14 51v366zM954 575v-860q0 -106 12 -134t64 -32l70 -6q12 -8 12 -36t-14 -35q-144 6 -280 6t-253 -6q-14 8 -14 36t12 35l45 4q53 4 67 32q13 28 13 136v267
q0 39 -18 38q-106 -49 -203 -49q-184 0 -294 117t-110 287q-1 213 145 343t372 130q110 0 178 -16t93 -15q25 0 62 43q45 4 52 -20q-11 -85 -11 -265z" />
    <glyph glyph-name="r" unicode="r" horiz-adv-x="759" 
d="M172 233v310q0 67 -6 91t-33 40l-29 18q-10 8 -10 31t10 31q193 55 299 123q25 0 37 -19q-8 -82 -8 -88q0 -20 21 -25q10 7 72 55t117 48q56 0 90 -33t34 -93t-38 -94t-86 -34t-87 37q-49 41 -78 41q-39 0 -39 -123v-316q0 -106 12 -134t64 -31l66 -7q12 -7 12 -35
t-14 -36q-146 6 -282 6t-237 -6q-14 8 -14 36t12 35l39 5q51 4 64 31q12 27 12 136z" />
    <glyph glyph-name="s" unicode="s" horiz-adv-x="733" 
d="M326 -29q-162 0 -244 64q-39 72 -33 231q8 14 35 16t35 -12q25 -76 81 -140t128 -64q46 0 76 28t30 78q0 86 -135 154q-211 104 -211 258q0 128 92 196t234 68q72 0 135 -14t84 -29q31 -68 31 -205q-6 -16 -35 -18t-37 10q-55 162 -160 162q-45 0 -74 -25t-28 -65
q0 -68 131 -132q225 -109 225 -286q-2 -131 -100 -203t-260 -72z" />
    <glyph glyph-name="t" unicode="t" horiz-adv-x="661" 
d="M453 709q-21 1 -25 -7t-4 -40v-308q0 -152 34 -196q34 -45 109 -45q39 0 86 30q35 -10 29 -53q-47 -49 -126 -84t-169 -35q-229 0 -229 234v457q0 34 -6 40t-33 7h-64q-16 5 -20 29t8 34q68 25 170 92q80 57 152 160q9 6 31 4t30 -14v-154q0 -29 5 -35t34 -6h182
q17 -12 17 -53t-27 -57h-184z" />
    <glyph glyph-name="u" unicode="u" horiz-adv-x="1114" 
d="M965 643v-373q0 -98 10 -136t44 -38t83 17q14 -2 13 -41t-19 -47q-113 -4 -189 -23q-75 -18 -111 -28t-59 -15l-20 -8q-20 2 -25 24q6 37 6 65t-22 30q-53 -34 -82 -50q-87 -47 -205 -48q-231 -2 -231 261v349q0 78 -12 100t-50 33l-26 8q-10 14 -9 38q2 24 17 34
q170 6 229 23q58 18 77 24t22 6q20 0 24 -25q-6 -78 -6 -180v-338q0 -90 28 -137t100 -47t124 39q23 16 22 61v387q0 62 -16 82t-72 29l-28 4q-12 10 -11 38q2 28 21 34q216 10 333 47q22 6 25 6q16 0 21 -25q-6 -110 -6 -180z" />
    <glyph glyph-name="v" unicode="v" horiz-adv-x="935" 
d="M782 819q46 0 181 6q16 -9 16 -35t-12 -36l-35 -6q-43 -8 -65 -28t-84 -145q-62 -124 -263 -589q-18 -14 -46 -14t-50 14q-132 316 -224 510t-111 216t-56 31l-43 11q-14 10 -14 38q1 28 20 33q113 -6 254 -6l227 6q12 -7 13 -35t-9 -36l-32 -9q-35 -8 -35 -22
q0 -49 147 -387q150 341 152 387q0 12 -49 25l-29 6q-14 8 -13 36t15 35q99 -6 145 -6z" />
    <glyph glyph-name="w" unicode="w" horiz-adv-x="1396" 
d="M662 625q0 31 -24 67t-58 44q-34 7 -115 7q-82 0 -82 -30q0 -19 48 -141t116 -248q91 178 103 224t12 77zM227 819h414q166 0 363 6q16 -1 17 -33t-11 -38l-31 -6q-76 -16 -76 -32t35 -110q35 -96 121 -282q35 86 115 313q18 55 18 80q0 16 -51 28l-35 9q-10 10 -8 38
t16 33q102 -6 180 -6t146 6q14 -5 16 -31t-10 -40l-29 -6q-49 -10 -68 -30t-100 -200t-221 -532q-14 -14 -47 -14t-47 14q-72 184 -211 481q-23 -45 -223 -481q-14 -14 -47 -14t-47 14q-195 461 -300 680q-20 41 -36 55t-47 22l-37 11q-12 12 -11 38q2 26 17 33
q126 -6 235 -6z" />
    <glyph glyph-name="x" unicode="x" horiz-adv-x="937" 
d="M571 484q0 -14 43 -76l140 -207q51 -76 89 -103t93 -30l22 -2q12 -10 12 -38t-18 -34q-134 6 -256 6t-264 -6q-14 6 -16 34t10 38l45 8q35 8 35 22t-44 85t-69 106q-37 -53 -73 -115t-36 -78q0 -14 38 -22l32 -6q12 -10 10 -38t-14 -34q-88 6 -168 6t-176 -6
q-14 8 -16 34t12 38l51 8q70 12 95 38t105 130t83 133q0 6 -66 108l-110 170q-47 72 -125 90l-43 11q-12 8 -10 38t16 33q121 -6 239 -6t228 6q18 -7 19 -35t-15 -36l-25 -6q-31 -4 -30 -15q0 -26 102 -168q50 71 76 109t26 55q0 8 -32 19l-23 6q-14 8 -11 37t17 34
q87 -6 177 -6t165 6q14 -3 16 -33t-12 -38l-28 -4q-82 -12 -127 -40t-117 -120t-72 -106z" />
    <glyph glyph-name="y" unicode="y" horiz-adv-x="960" 
d="M243 819q138 0 251 6q14 -5 16 -33t-10 -38l-41 -9q-41 -8 -51 -16t-10 -23t61 -182q90 -229 92 -233q16 29 63 135l37 84q76 174 76 207q0 20 -45 28l-41 9q-14 10 -12 39t18 32q67 -6 173 -6t186 6q14 -7 16 -35t-12 -36l-39 -4q-66 -6 -94 -45q-49 -66 -121 -216
l-109 -223q-208 -429 -311 -645q-61 -131 -176 -135q-131 -2 -131 123q0 47 31 77q32 30 85 29h50q68 0 100 43q16 22 52 96t36 113t-39 139l-197 496q-33 80 -54 109t-68 37l-37 6q-12 10 -11 38q2 28 17 33q111 -6 249 -6z" />
    <glyph glyph-name="z" unicode="z" horiz-adv-x="849" 
d="M457 0h-199q-150 0 -199 -6q-23 8 -14 33q94 141 180 295l191 337q23 43 22 60q0 10 -57 10h-64q-113 0 -145 -39q-39 -39 -66 -119q-14 -12 -40 -6t-33 23q27 178 63 270q8 8 22 8t21 -8q3 -27 21 -33t94 -6h369q133 0 170 6q16 -8 12 -26q-18 -25 -146 -240l-219 -373
q-37 -63 -37 -84q0 -12 82 -12h50q150 0 192 70q23 31 61 110q12 12 39 8t35 -18q-4 -57 -31 -146t-47 -120q-251 6 -327 6z" />
    <glyph glyph-name="braceleft" unicode="{" horiz-adv-x="696" 
d="M489 332q0 -72 -19 -211t-19 -208q1 -69 35 -115t137 -64q8 -10 7 -32t-12 -26q-153 0 -241 43q-105 53 -105 226q0 68 17 211q16 143 16 206q0 108 -80 140q-39 16 -100 20q-10 12 -10 28t10 25q130 8 160 63q20 40 20 100t-16 204q-17 144 -17 212q-1 194 150 243
q74 24 196 24q10 -3 12 -25t-7 -32q-172 -31 -172 -178q0 -70 19 -209t19 -211q0 -174 -153 -213v-8q153 -39 153 -213z" />
    <glyph glyph-name="bar" unicode="|" horiz-adv-x="507" 
d="M344 1536v-2048h-180v2048h180z" />
    <glyph glyph-name="braceright" unicode="}" horiz-adv-x="696" 
d="M207 332q0 174 153 213v8q-154 39 -153 213q0 72 19 211t20 209q0 147 -172 178q-8 10 -7 32t11 25q204 0 274 -68t72 -200q0 -68 -16 -211q-16 -142 -16 -192t2 -67q4 -17 18 -45q27 -53 159 -63q11 -8 11 -24t-11 -29q-122 -8 -151 -57t-29 -107q1 -59 17 -202t16 -211
q0 -164 -89 -216t-257 -53q-10 4 -11 26t7 32q102 18 137 64t35 115t-20 208q-19 139 -19 211z" />
    <glyph glyph-name="asciitilde" unicode="~" horiz-adv-x="1064" 
d="M401 510h261q70 0 106 34t68 118q26 16 62 7t52 -38q-35 -131 -112 -215q-45 -53 -156 -54h-283q-61 0 -101 -40t-73 -121q-23 -14 -63 -7t-47 33q4 39 36 108t66 114q33 39 73 50t111 11z" />
    <glyph glyph-name="uni00A0" unicode="&#xa0;" horiz-adv-x="491" 
 />
    <glyph glyph-name="exclamdown" unicode="&#xa1;" horiz-adv-x="520" 
d="M264 807q70 0 116 -47t46 -117t-47 -121t-118 -51t-119 49t-48 121t50 119t120 47zM260 -545q-84 -1 -124 19t-40 69q0 10 33 240l86 575q18 12 45 12t45 -12l86 -575q33 -229 33 -240q0 -49 -40 -69t-124 -19z" />
    <glyph glyph-name="cent" unicode="&#xa2;" horiz-adv-x="1064" 
d="M926 956q0 -60 -18 -90t-38 -30t-32 12q-79 94 -115 121l-2 2h-4l-74 -611q10 -4 33 -4q133 0 223 119q23 4 40 -7t15 -32q-102 -199 -327 -215l-27 -213q-14 -12 -47 -12t-51 12l26 213q-194 12 -304 123t-109 277q1 221 151 337t365 121l20 174q15 12 49 12t50 -12
l-21 -178q86 -2 154 -26q43 -33 43 -93zM549 385l72 606q-101 -4 -163 -94t-63 -219q0 -223 154 -293z" />
    <glyph glyph-name="sterling" unicode="&#xa3;" horiz-adv-x="1064" 
d="M559 696h262q12 -16 8 -45t-18 -47h-250q-29 0 -37 -5t-8 -24q0 -125 -55 -197t-162 -122l2 -4q74 10 141 -2q68 -8 193 -72t187 -65q62 1 64 25q4 24 -20 81t-4 85t58 28t70 -31t32 -96q0 -95 -100 -191t-213 -96t-261 93t-223 93q-35 0 -53 -24t-22 -53q-4 -19 -58 -37
t-78 -19q-39 0 -39 37q0 53 103 133q150 121 149 439q0 16 -3 18t-13 3t-18 3h-177q-12 12 -10 43t21 49h163q23 0 28 3t3 19t-2 73q-1 231 145 375t359 145q88 0 133 -31q25 -23 25 -67q0 -45 -27 -81q-26 -36 -50 -36t-46 20q-98 80 -160 80q-46 0 -77 -106
q-17 -62 -17 -152t7 -160t14 -76t34 -6z" />
    <glyph glyph-name="currency" unicode="&#xa4;" horiz-adv-x="1064" 
d="M532 1079q143 0 244 -73l76 100q45 -4 85 -39t48 -84l-94 -86q84 -98 84 -256t-84 -256l94 -86q-8 -49 -48 -84t-85 -39l-76 100q-100 -74 -244 -74t-243 74l-76 -100q-45 4 -85 39t-48 84l94 86q-84 98 -84 256t84 256l-94 86q8 49 48 84t85 39l76 -100q100 73 243 73z
M532 922q-104 0 -179 -79t-75 -202t76 -202q74 -79 178 -79t180 80q75 80 74 201q0 121 -74 201q-76 80 -180 80z" />
    <glyph glyph-name="yen" unicode="&#xa5;" horiz-adv-x="1064" 
d="M666 502h307q16 -14 16 -45t-16 -47h-307v-172q0 -111 12 -139t63 -31l68 -7q12 -7 12 -33t-14 -34q-154 6 -279 6t-284 -6q-14 8 -15 34q0 26 13 33l73 7q51 4 64 31q12 28 12 139v172h-307q-14 16 -14 47t14 45h307v155h-307q-14 14 -14 46t14 47h268l-196 348
q-23 37 -36 56q-35 51 -104 65l-36 6q-12 10 -11 35q2 25 17 32q140 -6 298 -6t234 6q16 -6 16 -30t-14 -37l-55 -15q-41 -10 -41 -32q0 -40 186 -369q4 6 23 40q18 34 46 82t74 138t46 107q0 23 -60 38l-37 11q-18 10 -16 35t25 32q123 -6 197 -6t179 6q15 -6 15 -32
t-12 -35l-46 -13q-48 -14 -76 -41t-83 -114l-193 -307h281q16 -14 16 -46t-16 -47h-307v-155z" />
    <glyph glyph-name="brokenbar" unicode="&#xa6;" horiz-adv-x="507" 
d="M344 358v-716h-180v716h180zM344 1382v-716h-180v716h180z" />
    <glyph glyph-name="section" unicode="&#xa7;" horiz-adv-x="1075" 
d="M856 246q0 129 -62 228t-216 220t-208 212t-46 229q-43 -35 -74 -91t-31 -107q0 -50 6 -81q19 -100 101 -190t204 -192t178 -213q56 -112 42 -249l4 -4q102 109 102 238zM538 -141q101 1 101 113q0 60 -82 156t-210 198t-196 215q-69 113 -69 258q0 223 175 404t398 181
q113 0 159 -38t46 -80q0 -43 -33 -66q-74 -52 -164 15q-89 67 -125 67t-64 -30t-28 -78t58 -119q58 -70 239 -203q125 -92 187 -206t63 -277q0 -223 -179 -423t-431 -200q-86 0 -134 32t-48 80q1 48 27 74t71 27q45 0 118 -50t121 -50z" />
    <glyph glyph-name="dieresis" unicode="&#xa8;" horiz-adv-x="778" 
d="M575 997q-55 0 -91 32t-38 89q0 57 37 94t91 37t90 -36t36 -90t-35 -90t-90 -36zM207 997q-55 0 -91 32t-38 89q0 57 37 94t91 37t90 -36t36 -90t-35 -90t-90 -36z" />
    <glyph glyph-name="copyright" unicode="&#xa9;" horiz-adv-x="1597" 
d="M1376 678q0 256 -170 433t-408 177t-407 -177q-170 -177 -170 -433t170 -435t408 -179q237 0 407 178q170 180 170 436zM799 -33q-297 0 -507 208t-210 501t210 501q210 207 507 207t507 -208t210 -500q0 -293 -210 -501t-507 -208zM876 305q-339 0 -420 251
q-19 58 -20 118q0 168 116 278t312 109q96 1 165 -17t73 -18q2 -31 18 -211q-8 -10 -27 -12t-28 6q-53 180 -193 180q-84 0 -150 -74q-66 -75 -67 -229q0 -154 68 -232t162 -77q119 0 211 170q8 10 26 8t27 -12q-10 -111 -53 -183q-85 -55 -220 -55z" />
    <glyph glyph-name="ordfeminine" unicode="&#xaa;" horiz-adv-x="765" 
d="M270 668q0 -31 24 -56t58 -24q63 0 68 57l6 100q4 39 -16 39q-33 0 -58 -10q-82 -34 -82 -106zM66 909q0 49 53 95t129 74t176 28t156 -46t51 -153l-10 -219q-6 -102 59 -102q23 0 55 14q31 -5 19 -43q-25 -27 -75 -46q-49 -19 -113 -19t-94 29t-40 29t-47 -24
q-66 -35 -125 -34q-98 0 -146 48t-48 107q0 109 112 144q102 35 207 61q41 12 45 39v20q0 123 -90 123q-59 0 -70 -65q-6 -43 -32 -64q-52 -31 -112 -31t-60 35z" />
    <glyph glyph-name="guillemotleft" unicode="&#xab;" horiz-adv-x="884" 
d="M811 786l-156 -327q-14 -29 0 -60l156 -333q-16 -33 -45 -31q-176 207 -311 356q-31 37 0 74q150 162 311 352q35 -8 45 -31zM446 786l-155 -327q-14 -29 0 -60l155 -333q-16 -33 -45 -31q-176 209 -311 356q-31 37 0 74q150 162 311 352q35 -8 45 -31z" />
    <glyph glyph-name="logicalnot" unicode="&#xac;" horiz-adv-x="1064" 
d="M764 137v375h-641v147h821v-522h-180z" />
    <glyph glyph-name="uni00AD" unicode="&#xad;" horiz-adv-x="671" 
d="M61 398q0 48 31 87l490 45q28 -33 28 -83t-26 -82l-492 -46q-31 31 -31 79z" />
    <glyph glyph-name="registered" unicode="&#xae;" horiz-adv-x="708" 
d="M354 1337q-92 1 -158 -69t-65 -168q0 -98 66 -167q65 -69 157 -69t158 69t66 168t-66 167t-158 69zM354 1386q121 0 207 -84t86 -202q0 -119 -86 -203t-207 -84t-207 84t-86 203q0 118 86 202t207 84zM326 1190v-68q0 -12 3 -14t21 -2q41 0 41 51t-39 51q-18 0 -22 -3
t-4 -15zM252 1036v129q0 43 -27 45h-10q-4 6 -3 14t7 11q102 4 135 4q123 0 123 -76q0 -45 -45 -63q-6 -2 0 -17q36 -72 58 -87t26 -15t4 -7t-4 -9q-12 -2 -35 -2q-57 0 -90 47q-4 6 -35 57q-6 12 -18 12t-12 -10v-33q0 -27 3 -34t33 -15q2 -2 2 -11t-2 -11l-73 2l-70 -2
q-6 2 -7 11t3 11q28 6 32 13q5 7 5 36z" />
    <glyph glyph-name="macron" unicode="&#xaf;" horiz-adv-x="778" 
d="M111 1099q0 48 18 72h518q20 -25 20 -73t-20 -72h-518q-18 25 -18 73z" />
    <glyph glyph-name="degree" unicode="&#xb0;" horiz-adv-x="765" 
d="M543 1019q0 89 -45 145t-115 56t-115 -56t-45 -144t45 -144t118 -56t115 54q42 56 42 145zM383 1311q127 0 214 -81t87 -212t-87 -210t-214 -79t-214 79t-87 210t87 212t214 81z" />
    <glyph glyph-name="plusminus" unicode="&#xb1;" horiz-adv-x="1064" 
d="M944 0h-821v147h821v-147zM625 205h-181v301h-321v147h321v285h181v-285h319v-147h-319v-301z" />
    <glyph glyph-name="twosuperior" unicode="&#xb2;" 
d="M102 1255q106 205 336 205q114 0 186 -63q73 -63 72 -166q0 -147 -200 -297l-64 -47l-51 -43q-14 -14 -9 -24t25 -11h127q78 0 113 12t59 58q29 10 47 -9q-25 -133 -79 -219q-111 4 -234 4h-197q-88 0 -133 -4q-23 12 -14 39q102 80 207 187q154 162 153 323
q0 63 -32 103q-33 39 -88 38q-98 0 -166 -120q-16 -12 -37 -1q-20 11 -21 35z" />
    <glyph glyph-name="threesuperior" unicode="&#xb3;" 
d="M479 859q1 185 -143 185q-70 0 -127 -51q-29 6 -38 32t5 42q180 64 232 132q24 34 24 72q0 39 -24 61t-68 22q-84 0 -152 -103q-18 -8 -35 4t-16 31q43 82 122 128t173 46t156 -43t63 -100q0 -57 -33 -94t-124 -74q-19 -8 16 -19q92 -10 154 -58t61 -142
q0 -152 -170 -258q-151 -97 -317 -97q-59 0 -108 28q-48 28 -48 70q0 95 88 95q48 0 87 -62q7 -11 9 -14q23 -35 68 -36q45 0 95 56t50 147z" />
    <glyph glyph-name="acute" unicode="&#xb4;" horiz-adv-x="778" 
d="M197 969l186 372q29 61 63 61t80 -32q56 -43 56 -74t-45 -75l-289 -285q-45 -6 -51 33z" />
    <glyph glyph-name="mu" unicode="&#xb5;" horiz-adv-x="1097" 
d="M954 655v-438q0 -59 8 -82t40 -23t73 42q11 -8 21 -26t4 -32q-80 -123 -250 -123q-141 2 -154 156q-2 14 -4 19t-8 4q-74 -180 -270 -181q-70 0 -133 43q-25 0 -25 -45v-39q0 -111 96 -279q33 -56 33 -73q0 -45 -66 -87t-122 -42q-47 0 -47 105v1247q0 18 26 18h227
q18 -4 21 -18q-6 -37 -6 -158v-389q0 -141 93 -141t153 129q25 53 24 100v446q0 29 25 31h227q18 -4 21 -18q-7 -60 -7 -146z" />
    <glyph glyph-name="paragraph" unicode="&#xb6;" horiz-adv-x="1003" 
d="M459 -174q-29 -29 -29 -71q0 -41 24 -63t60 -22q139 0 139 295v240q0 43 -11 58t-42 16q-225 0 -372 115q-146 116 -146 300q0 240 197 353q158 90 415 90q178 0 244 -13q14 -8 14 -30t-12 -33l-70 -12q-80 -13 -94 -31t-14 -100v-873q0 -315 -127 -412q-57 -43 -157 -43
t-165 45q-66 45 -65 136q0 47 20 82t47 43q57 2 97 -20t47 -50z" />
    <glyph glyph-name="periodcentered" unicode="&#xb7;" horiz-adv-x="532" 
d="M270 258q-70 0 -120 47t-50 119t48 121t119 49t118 -51t47 -121t-46 -117t-116 -47z" />
    <glyph glyph-name="cedilla" unicode="&#xb8;" horiz-adv-x="778" 
d="M358 -514q-158 0 -157 90q0 29 18 48q18 20 48 20t74 -38q43 -38 63 -38t37 14t18 37q0 82 -156 148l-6 16l147 217h109l-78 -106q-12 -16 -8 -24t27 -20q125 -68 124 -174q0 -82 -78 -136t-182 -54z" />
    <glyph glyph-name="onesuperior" unicode="&#xb9;" 
d="M307 854v328q0 59 -11 82t-54 28l-64 8q-12 8 -12 28t12 30q203 27 342 102q20 0 25 -16q-6 -104 -6 -180v-410q0 -64 2 -84q5 -48 59 -55l62 -8q10 -9 8 -29t-13 -27q-153 4 -235 4t-234 -4q-10 7 -12 27t8 29l62 8q45 5 53 29t8 110z" />
    <glyph glyph-name="ordmasculine" unicode="&#xba;" horiz-adv-x="827" 
d="M420 565q106 -1 106 213q0 102 -30 178t-80 76q-51 0 -82 -51t-31 -163t32 -182t85 -71zM422 1106q150 0 244 -83t94 -227t-98 -224t-250 -80t-247 76t-95 222q0 144 101 230t251 86z" />
    <glyph glyph-name="guillemotright" unicode="&#xbb;" horiz-adv-x="884" 
d="M594 459l-156 327q10 23 45 31q162 -190 312 -352q31 -37 0 -74q-135 -147 -312 -356q-29 -2 -45 31l156 333q14 31 0 60zM229 459l-155 327q10 23 45 31q162 -190 311 -352q31 -37 0 -74q-135 -147 -311 -356q-29 -2 -45 31l155 333q14 31 0 60z" />
    <glyph glyph-name="onequarter" unicode="&#xbc;" horiz-adv-x="1720" 
d="M287 705v327q1 59 -11 82t-55 29l-63 8q-12 9 -12 29t12 28q203 27 342 103q20 0 24 -17q-6 -104 -6 -180v-409q0 -63 2 -83q5 -48 60 -57l61 -8q10 -9 8 -29t-12 -26q-152 4 -235 4t-234 -4q-10 6 -12 26t8 29l61 8q45 6 54 30q8 24 8 110zM1286 1290l-758 -1372
q-30 -6 -58 8t-38 41l758 1372q26 4 58 -10t38 -39zM1245 156v28q0 27 -4 32t-27 5h-313q-23 12 -14 47l442 580q20 25 41 24h60q22 0 18 -22q-2 -10 -12 -23l-402 -505q-2 -20 31 -23h149q20 0 26 6q5 6 5 29v153q0 35 37 45q123 37 157 37t34 -20v-215q0 -23 5 -29t25 -6
h90q17 -6 17 -38t-17 -40h-90q-23 0 -27 -5t-3 -32v-28q0 -62 11 -80t62 -23l27 -2q10 -8 10 -27t-12 -28q-160 4 -244 4t-203 -4q-12 6 -13 26t9 29l41 2q61 3 73 19t11 84z" />
    <glyph glyph-name="onehalf" unicode="&#xbd;" horiz-adv-x="1720" 
d="M1337 0h-196q-88 0 -133 -4q-23 12 -15 39q102 80 207 186q154 162 154 324q0 63 -33 102t-88 39q-98 0 -166 -121q-14 -12 -36 -1t-21 36q104 205 334 205q114 1 187 -63t73 -167q0 -147 -201 -296l-64 -48l-51 -43q-14 -14 -9 -24t26 -10h127q78 0 112 12t60 57
q29 10 47 -8q-25 -133 -80 -219q-111 4 -234 4zM264 705v327q0 59 -11 82t-54 29l-64 8q-12 9 -12 29t12 28q203 27 342 103q20 0 25 -17q-6 -104 -6 -180v-409q0 -63 2 -83q5 -48 59 -57l61 -8q10 -9 8 -29t-12 -26q-152 4 -234 4t-235 -4q-10 6 -12 26t8 29l62 8
q45 6 53 30t8 110zM1262 1290l-758 -1372q-29 -6 -58 8t-38 41l757 1372q27 4 59 -10t38 -39z" />
    <glyph glyph-name="threequarters" unicode="&#xbe;" horiz-adv-x="1720" 
d="M485 710q0 186 -143 185q-70 0 -127 -51q-29 6 -38 32t5 42q182 64 232 132q24 34 24 72t-24 60q-25 23 -68 22q-84 0 -151 -102q-18 -8 -36 4q-17 12 -16 31q43 82 122 128t173 46t156 -43q62 -42 63 -100q-1 -58 -33 -95t-124 -74q-23 -10 16 -18q92 -10 154 -58
t61 -143q0 -152 -170 -258q-151 -96 -317 -96q-59 0 -108 28q-48 28 -48 70t22 68t56 26t57 -17t34 -36t15 -22q23 -35 68 -36t95 55t50 148zM1337 1290l-757 -1372q-29 -6 -58 8t-39 41l758 1372q27 4 59 -10t37 -39zM1317 156v28q0 27 -4 32t-27 5h-313q-23 12 -15 47
l443 580q20 25 41 24h59q23 0 19 -22q-2 -10 -13 -23l-401 -505q-2 -20 31 -23h149q20 0 26 6q5 6 5 29v153q0 35 37 45q123 37 157 37t33 -20v-215q0 -23 5 -29t26 -6h90q16 -6 16 -38t-16 -40h-90q-23 0 -27 -5t-4 -32v-28q0 -62 11 -80t63 -23l27 -2q10 -8 10 -27
t-13 -28q-160 4 -244 4t-202 -4q-12 6 -13 26t9 29l41 2q61 3 73 19t11 84z" />
    <glyph glyph-name="questiondown" unicode="&#xbf;" horiz-adv-x="679" 
d="M413 807q71 0 117 -51t48 -121q0 -70 -46 -117t-116 -47t-120 47t-50 119t48 121t119 49zM455 -545q-143 0 -258 126t-115 289t129 222l135 62q84 37 84 88t-20 110q8 14 32 18t35 -8q31 -44 61 -114t30 -138t-42 -109q-41 -40 -143 -83l-96 -41q-53 -23 -76 -38t-23 -36
q0 -47 69 -69t228 -21q37 0 75 -35t38 -92t-40 -94t-103 -37z" />
    <glyph glyph-name="Agrave" unicode="&#xc0;" horiz-adv-x="1277" 
d="M475 1749l332 -242q12 -31 -23 -61l-401 131q-108 30 -45 139q33 63 70 64q22 0 67 -31zM461 571h192q37 -1 44 9t-3 51l-53 166q-61 190 -84 241q-4 -12 -21 -60q-16 -48 -34 -99t-33 -93l-51 -153q-12 -41 -4 -51t47 -11zM1343 31q0 -27 -12 -37q-147 6 -299 6t-293 -6
q-16 10 -18 35t14 37l66 10q55 10 55 35q0 18 -39 139l-55 176q-8 25 -26 31t-72 6h-244q-37 0 -48 -6t-20 -35l-80 -238q-14 -47 -14 -73q0 -20 84 -35l61 -10q11 -12 11 -39t-15 -33q-18 2 -231 6l-211 -6q-16 8 -17 34t11 38l55 6q43 6 72 26t53 76q51 123 129 328
l186 499q27 74 43 113q39 99 33 148q58 13 91 41q35 29 51 45l36 36q37 0 48 -41q25 -86 92 -280l278 -803q37 -102 61 -138t76 -44l78 -12q10 -8 10 -35z" />
    <glyph glyph-name="Aacute" unicode="&#xc1;" horiz-adv-x="1277" 
d="M909 1780q37 0 70 -64q63 -109 -45 -139l-402 -131q-32 12 -22 51l332 248q47 35 67 35zM461 571h192q37 -1 44 9t-3 51l-53 166q-61 190 -84 241q-4 -12 -21 -60q-16 -48 -34 -99t-33 -93l-51 -153q-12 -41 -4 -51t47 -11zM1343 31q0 -27 -12 -37q-147 6 -299 6t-293 -6
q-16 10 -18 35t14 37l66 10q55 10 55 35q0 18 -39 139l-55 176q-8 25 -26 31t-72 6h-244q-37 0 -48 -6t-20 -35l-80 -238q-14 -47 -14 -73q0 -20 84 -35l61 -10q11 -12 11 -39t-15 -33q-18 2 -231 6l-211 -6q-16 8 -17 34t11 38l55 6q43 6 72 26t53 76q51 123 129 328
l186 499q27 74 43 113q39 99 33 148q58 13 91 41q35 29 51 45l36 36q37 0 48 -41q25 -86 92 -280l278 -803q37 -102 61 -138t76 -44l78 -12q10 -8 10 -35z" />
    <glyph glyph-name="Acircumflex" unicode="&#xc2;" horiz-adv-x="1277" 
d="M940 1446l-248 102q-35 20 -67 2l-246 -104q-14 0 -25 16q-10 16 -4 33l260 244q47 47 97 0l260 -244q6 -16 -4 -32q-11 -15 -23 -17zM461 571h192q37 -1 44 9t-3 51l-53 166q-61 190 -84 241q-4 -12 -21 -60q-16 -48 -34 -99t-33 -93l-51 -153q-12 -41 -4 -51t47 -11z
M1343 31q0 -27 -12 -37q-147 6 -299 6t-293 -6q-16 10 -18 35t14 37l66 10q55 10 55 35q0 18 -39 139l-55 176q-8 25 -26 31t-72 6h-244q-37 0 -48 -6t-20 -35l-80 -238q-14 -47 -14 -73q0 -20 84 -35l61 -10q11 -12 11 -39t-15 -33q-18 2 -231 6l-211 -6q-16 8 -17 34
t11 38l55 6q43 6 72 26t53 76q51 123 129 328l186 499q27 74 43 113q39 99 33 148q58 13 91 41q35 29 51 45l36 36q37 0 48 -41q25 -86 92 -280l278 -803q37 -102 61 -138t76 -44l78 -12q10 -8 10 -35z" />
    <glyph glyph-name="Atilde" unicode="&#xc3;" horiz-adv-x="1277" 
d="M717 1520h-101q-72 0 -110 -24t-74 -87q-14 -6 -38 -3t-29 15q31 121 84 183t135 63h121q55 1 89 19t56 77q53 12 68 -10q-23 -105 -68 -169t-133 -64zM461 571h192q37 -1 44 9t-3 51l-53 166q-61 190 -84 241q-4 -12 -21 -60q-16 -48 -34 -99t-33 -93l-51 -153
q-12 -41 -4 -51t47 -11zM1343 31q0 -27 -12 -37q-147 6 -299 6t-293 -6q-16 10 -18 35t14 37l66 10q55 10 55 35q0 18 -39 139l-55 176q-8 25 -26 31t-72 6h-244q-37 0 -48 -6t-20 -35l-80 -238q-14 -47 -14 -73q0 -20 84 -35l61 -10q11 -12 11 -39t-15 -33q-18 2 -231 6
l-211 -6q-16 8 -17 34t11 38l55 6q43 6 72 26t53 76q51 123 129 328l186 499q27 74 43 113q39 99 33 148q58 13 91 41q35 29 51 45l36 36q37 0 48 -41q25 -86 92 -280l278 -803q37 -102 61 -138t76 -44l78 -12q10 -8 10 -35z" />
    <glyph glyph-name="Adieresis" unicode="&#xc4;" horiz-adv-x="1277" 
d="M854 1458q-53 0 -88 31t-37 88q0 57 36 94t89 37t88 -36t35 -89t-35 -89t-88 -36zM426 1458q-53 0 -88 31t-37 88q0 57 36 94t89 37t88 -36t35 -89t-35 -89t-88 -36zM461 571h192q37 -1 44 9t-3 51l-53 166q-61 190 -84 241q-4 -12 -21 -60q-16 -48 -34 -99t-33 -93
l-51 -153q-12 -41 -4 -51t47 -11zM1343 31q0 -27 -12 -37q-147 6 -299 6t-293 -6q-16 10 -18 35t14 37l66 10q55 10 55 35q0 18 -39 139l-55 176q-8 25 -26 31t-72 6h-244q-37 0 -48 -6t-20 -35l-80 -238q-14 -47 -14 -73q0 -20 84 -35l61 -10q11 -12 11 -39t-15 -33
q-18 2 -231 6l-211 -6q-16 8 -17 34t11 38l55 6q43 6 72 26t53 76q51 123 129 328l186 499q27 74 43 113q39 99 33 148q58 13 91 41q35 29 51 45l36 36q37 0 48 -41q25 -86 92 -280l278 -803q37 -102 61 -138t76 -44l78 -12q10 -8 10 -35z" />
    <glyph glyph-name="Aring" unicode="&#xc5;" horiz-adv-x="1277" 
d="M639 1489q43 0 68 36t24 89q0 53 -24 90q-25 37 -68 37t-68 -37t-25 -90t26 -89q24 -36 67 -36zM639 1411q-94 0 -153 60q-58 59 -58 141t58 142t152 60t154 -60q58 -60 58 -141t-58 -142q-59 -60 -153 -60zM461 571h192q37 -1 44 9t-3 51l-53 166q-61 190 -84 241
q-4 -12 -21 -60q-16 -48 -34 -99t-33 -93l-51 -153q-12 -41 -4 -51t47 -11zM1343 31q0 -27 -12 -37q-147 6 -299 6t-293 -6q-16 10 -18 35t14 37l66 10q55 10 55 35q0 18 -39 139l-55 176q-8 25 -26 31t-72 6h-244q-37 0 -48 -6t-20 -35l-80 -238q-14 -47 -14 -73
q0 -20 84 -35l61 -10q11 -12 11 -39t-15 -33q-18 2 -231 6l-211 -6q-16 8 -17 34t11 38l55 6q43 6 72 26t53 76q51 123 129 328l186 499q27 74 43 113q39 99 33 148q58 13 91 41q35 29 51 45l36 36q37 0 48 -41q25 -86 92 -280l278 -803q37 -102 61 -138t76 -44l78 -12
q10 -8 10 -35z" />
    <glyph glyph-name="AE" unicode="&#xc6;" horiz-adv-x="1722" 
d="M520 758h178q37 0 45 12t9 66v327q0 78 -7 94h-10q-25 -31 -82 -147l-161 -319q-8 -23 -4 -28t32 -5zM436 1358q167 -6 355 -6h528q233 0 274 6l27 -318q-6 -16 -34 -19t-42 11q-37 119 -78 162q-63 63 -200 63h-164q-48 0 -58 -11t-10 -68v-359q0 -43 8 -52t50 -9h141
q81 0 109 19t42 93l11 52q10 12 39 12t36 -14q-6 -98 -6 -218t6 -217q-8 -14 -36 -15t-39 13l-11 52q-14 74 -43 94t-108 20h-141q-42 0 -50 -9t-8 -54v-244q0 -148 26 -186t72 -50q44 -12 137 -12t131 5t85 28t81 71t76 134q12 16 41 12t35 -22q-6 -76 -35 -180t-51 -148
q-58 4 -215 4l-258 2h-266q-111 0 -342 -6q-12 10 -12 37t12 35l96 14q73 10 89 43t16 172v287q0 45 -8 56t-46 11h-215q-37 0 -51 -7t-26 -32q-226 -435 -230 -501q0 -23 51 -31l78 -12q15 -10 15 -38t-17 -34q-105 6 -219 6t-225 -6q-14 10 -16 36q-1 26 14 36l55 8
q47 6 80 34t71 95q221 395 467 882q61 123 62 148q0 25 -43 33l-119 20q-14 10 -14 37t20 35z" />
    <glyph glyph-name="Ccedilla" unicode="&#xc7;" horiz-adv-x="1411" 
d="M82 660q0 338 248 542q219 182 567 182q150 0 277 -25t145 -28q0 -162 24 -319q-7 -18 -37 -24t-40 9q-86 293 -385 293q-188 0 -330 -157q-141 -158 -141 -447t142 -457t339 -168q291 0 418 318q12 12 41 8t36 -22q-23 -229 -77 -322q-238 -68 -371 -74l-53 -75
q-8 -10 -8 -16q0 -13 26 -28q125 -68 125 -174q0 -82 -78 -136t-182 -54q-158 0 -158 90q0 29 18 48q18 20 49 20q30 0 74 -38t63 -38t37 14q17 14 17 37q0 82 -155 148l-6 16l124 186q-303 14 -489 154q-260 199 -260 537z" />
    <glyph glyph-name="Egrave" unicode="&#xc8;" horiz-adv-x="1214" 
d="M424 1749l332 -242q12 -31 -23 -61l-401 131q-108 30 -45 139q33 63 69 64q23 0 68 -31zM758 1257h-164q-48 0 -58 -11t-10 -68v-359q0 -43 8 -52t50 -9h141q82 0 110 19t42 93l10 52q10 12 39 12t37 -14q-14 -234 0 -435q-8 -14 -37 -15t-39 13l-10 52q-14 74 -43 94
t-109 20h-141q-41 0 -49 -9t-9 -54v-244q0 -148 26 -186t72 -50q44 -12 137 -12t131 5t85 28t81 71t77 134q12 16 41 12t34 -22q-6 -76 -34 -180t-52 -148q-162 6 -473 6h-266q-123 0 -352 -6q-12 10 -13 37q0 27 13 35l96 14q72 10 88 43t16 172v764q0 137 -16 170t-88 47
l-51 10q-14 8 -12 36t16 36q143 -6 295 -6h434q236 0 274 6l27 -318q-6 -16 -34 -19t-42 11q-37 119 -78 162q-63 63 -200 63z" />
    <glyph glyph-name="Eacute" unicode="&#xc9;" horiz-adv-x="1214" 
d="M920 1780q37 0 69 -64q64 -109 -45 -139l-401 -131q-33 12 -23 51l332 248q47 35 68 35zM758 1257h-164q-48 0 -58 -11t-10 -68v-359q0 -43 8 -52t50 -9h141q82 0 110 19t42 93l10 52q10 12 39 12t37 -14q-14 -234 0 -435q-8 -14 -37 -15t-39 13l-10 52q-14 74 -43 94
t-109 20h-141q-41 0 -49 -9t-9 -54v-244q0 -148 26 -186t72 -50q44 -12 137 -12t131 5t85 28t81 71t77 134q12 16 41 12t34 -22q-6 -76 -34 -180t-52 -148q-162 6 -473 6h-266q-123 0 -352 -6q-12 10 -13 37q0 27 13 35l96 14q72 10 88 43t16 172v764q0 137 -16 170t-88 47
l-51 10q-14 8 -12 36t16 36q143 -6 295 -6h434q236 0 274 6l27 -318q-6 -16 -34 -19t-42 11q-37 119 -78 162q-63 63 -200 63z" />
    <glyph glyph-name="Ecircumflex" unicode="&#xca;" horiz-adv-x="1214" 
d="M883 1446l-236 98q-35 16 -65 2l-234 -100q-14 0 -23 15t-3 32l247 231q47 43 90 0l248 -231q6 -17 -3 -31t-21 -16zM758 1257h-164q-48 0 -58 -11t-10 -68v-359q0 -43 8 -52t50 -9h141q82 0 110 19t42 93l10 52q10 12 39 12t37 -14q-14 -234 0 -435q-8 -14 -37 -15
t-39 13l-10 52q-14 74 -43 94t-109 20h-141q-41 0 -49 -9t-9 -54v-244q0 -148 26 -186t72 -50q44 -12 137 -12t131 5t85 28t81 71t77 134q12 16 41 12t34 -22q-6 -76 -34 -180t-52 -148q-162 6 -473 6h-266q-123 0 -352 -6q-12 10 -13 37q0 27 13 35l96 14q72 10 88 43
t16 172v764q0 137 -16 170t-88 47l-51 10q-14 8 -12 36t16 36q143 -6 295 -6h434q236 0 274 6l27 -318q-6 -16 -34 -19t-42 11q-37 119 -78 162q-63 63 -200 63z" />
    <glyph glyph-name="Edieresis" unicode="&#xcb;" horiz-adv-x="1214" 
d="M852 1458q-53 0 -88 31t-37 88q0 57 36 94t89 37t88 -36t35 -89t-35 -89t-88 -36zM424 1458q-53 0 -88 31t-37 88q0 57 36 94t89 37t88 -36t35 -89t-35 -89t-88 -36zM758 1257h-164q-48 0 -58 -11t-10 -68v-359q0 -43 8 -52t50 -9h141q82 0 110 19t42 93l10 52
q10 12 39 12t37 -14q-14 -234 0 -435q-8 -14 -37 -15t-39 13l-10 52q-14 74 -43 94t-109 20h-141q-41 0 -49 -9t-9 -54v-244q0 -148 26 -186t72 -50q44 -12 137 -12t131 5t85 28t81 71t77 134q12 16 41 12t34 -22q-6 -76 -34 -180t-52 -148q-162 6 -473 6h-266
q-123 0 -352 -6q-12 10 -13 37q0 27 13 35l96 14q72 10 88 43t16 172v764q0 137 -16 170t-88 47l-51 10q-14 8 -12 36t16 36q143 -6 295 -6h434q236 0 274 6l27 -318q-6 -16 -34 -19t-42 11q-37 119 -78 162q-63 63 -200 63z" />
    <glyph glyph-name="Igrave" unicode="&#xcc;" horiz-adv-x="759" 
d="M136 1790q26 0 67 -33l323 -250q12 -31 -22 -61l-402 131q-110 31 -43 137q51 76 77 76zM526 1053v-754q0 -141 18 -176t89 -47l57 -10q12 -10 11 -36t-13 -36q-166 6 -309 6t-309 -6q-12 10 -13 37q0 27 13 35l57 10q72 12 89 47t17 176v754q0 141 -17 176t-89 47
l-57 10q-12 8 -13 35q0 27 13 37q166 -6 310 -6t310 6q12 -10 12 -37t-12 -35l-57 -10q-71 -12 -89 -47t-18 -176z" />
    <glyph glyph-name="Iacute" unicode="&#xcd;" horiz-adv-x="759" 
d="M631 1788q37 0 69 -64t21 -96q-8 -35 -66 -51l-401 -131q-33 12 -23 51l332 256q47 35 68 35zM526 1053v-754q0 -141 18 -176t89 -47l57 -10q12 -10 11 -36t-13 -36q-166 6 -309 6t-309 -6q-12 10 -13 37q0 27 13 35l57 10q72 12 89 47t17 176v754q0 141 -17 176t-89 47
l-57 10q-12 8 -13 35q0 27 13 37q166 -6 310 -6t310 6q12 -10 12 -37t-12 -35l-57 -10q-71 -12 -89 -47t-18 -176z" />
    <glyph glyph-name="Icircumflex" unicode="&#xce;" horiz-adv-x="759" 
d="M672 1446l-248 108q-35 14 -68 0l-245 -108q-14 0 -25 16q-10 16 -4 33l260 244q47 47 96 0l260 -244q6 -15 -4 -31t-22 -18zM526 1053v-754q0 -141 18 -176t89 -47l57 -10q12 -10 11 -36t-13 -36q-166 6 -309 6t-309 -6q-12 10 -13 37q0 27 13 35l57 10q72 12 89 47
t17 176v754q0 141 -17 176t-89 47l-57 10q-12 8 -13 35q0 27 13 37q166 -6 310 -6t310 6q12 -10 12 -37t-12 -35l-57 -10q-71 -12 -89 -47t-18 -176z" />
    <glyph glyph-name="Idieresis" unicode="&#xcf;" horiz-adv-x="759" 
d="M596 1458q-53 0 -88 31t-37 88q0 57 36 94t89 37t88 -36t35 -89t-35 -89t-88 -36zM168 1458q-53 0 -88 31t-37 88q0 57 36 94t89 37t88 -36t35 -89t-35 -89t-88 -36zM526 1053v-754q0 -141 18 -176t89 -47l57 -10q12 -10 11 -36t-13 -36q-166 6 -309 6t-309 -6
q-12 10 -13 37q0 27 13 35l57 10q72 12 89 47t17 176v754q0 141 -17 176t-89 47l-57 10q-12 8 -13 35q0 27 13 37q166 -6 310 -6t310 6q12 -10 12 -37t-12 -35l-57 -10q-71 -12 -89 -47t-18 -176z" />
    <glyph glyph-name="Eth" unicode="&#xd0;" horiz-adv-x="1644" 
d="M539 1118v-360h274q16 -16 16 -53t-16 -56h-274v-278q0 -182 41 -230q53 -59 175 -59t217 52q165 90 227 331q26 100 26 211q1 280 -145 434t-421 154q-86 0 -103 -23t-17 -123zM66 31q0 27 12 35l63 10q69 10 87 45t18 174v354h-172q-16 18 -17 52q0 34 17 57h172v262
q0 154 -16 194t-83 50l-38 4q-16 8 -16 39q1 31 20 32q309 19 575 19t456 -69q192 -69 302 -231t108 -366q0 -204 -95 -362t-279 -250t-510 -92l-273 12q-143 0 -319 -6q-12 10 -12 37z" />
    <glyph glyph-name="Ntilde" unicode="&#xd1;" horiz-adv-x="1531" 
d="M907 1528h-104q-74 0 -114 -25t-79 -90q-14 -8 -39 -5t-32 17q12 43 40 105t52 92q51 59 137 59h127q57 1 92 21t60 80q53 12 71 -10q-29 -116 -65 -168q-37 -52 -65 -64t-81 -12zM1335 838v-490q0 -262 4 -330q-10 -18 -47 -32t-73 -15l-21 29q-58 89 -145 195l-473 585
q-195 238 -224 262q-10 -20 -10 -131v-397q0 -299 31 -375q23 -51 119 -65l57 -8q12 -12 11 -37t-11 -35q-167 6 -277 6t-227 -6q-10 10 -11 35t11 37l35 6q94 16 113 67q29 70 28 375v520q0 141 -14 174q-27 57 -117 70l-57 8q-12 12 -9 40t17 32q145 -6 267 -6t188 6
q24 -98 206 -310q36 -42 132 -157l172 -203q158 -186 196 -225q8 20 8 92v283q0 299 -30 374q-23 51 -119 66l-55 8q-12 12 -12 37q1 25 12 35q166 -6 274 -6t229 6q9 -10 11 -35t-11 -37l-36 -6q-88 -14 -111 -68q-31 -75 -31 -374z" />
    <glyph glyph-name="Ograve" unicode="&#xd2;" horiz-adv-x="1613" 
d="M643 1749l332 -242q12 -31 -23 -61l-401 131q-108 30 -45 139q33 63 69 64q23 0 68 -31zM1204 656q0 269 -110 452q-111 182 -296 182t-287 -157q-101 -158 -101 -399t85 -439q44 -104 131 -169t205 -65q190 0 282 163q91 163 91 432zM82 660q0 312 207 518t525 206
t518 -196t200 -516q0 -322 -203 -513t-526 -191t-522 190t-199 502z" />
    <glyph glyph-name="Oacute" unicode="&#xd3;" horiz-adv-x="1613" 
d="M1057 1780q37 0 69 -64q64 -109 -45 -139l-401 -131q-33 12 -23 51l332 248q47 35 68 35zM1204 656q0 269 -110 452q-111 182 -296 182t-287 -157q-101 -158 -101 -399t85 -439q44 -104 131 -169t205 -65q190 0 282 163q91 163 91 432zM82 660q0 312 207 518t525 206
t518 -196t200 -516q0 -322 -203 -513t-526 -191t-522 190t-199 502z" />
    <glyph glyph-name="Ocircumflex" unicode="&#xd4;" horiz-adv-x="1613" 
d="M1100 1446l-248 102q-35 20 -68 2l-245 -104q-14 0 -25 16q-10 16 -4 33l260 244q47 47 96 0l260 -244q6 -15 -4 -31t-22 -18zM1204 656q0 269 -110 452q-111 182 -296 182t-287 -157q-101 -158 -101 -399t85 -439q44 -104 131 -169t205 -65q190 0 282 163q91 163 91 432
zM82 660q0 312 207 518t525 206t518 -196t200 -516q0 -322 -203 -513t-526 -191t-522 190t-199 502z" />
    <glyph glyph-name="Otilde" unicode="&#xd5;" horiz-adv-x="1613" 
d="M887 1528h-105q-74 0 -114 -25t-78 -92q-16 -6 -41 -2t-31 16q65 258 230 258h126q58 -1 94 19t60 82q55 12 70 -10q-23 -114 -69 -180t-142 -66zM1204 656q0 269 -110 452q-111 182 -296 182t-287 -157q-101 -158 -101 -399t85 -439q44 -104 131 -169t205 -65
q190 0 282 163q91 163 91 432zM82 660q0 312 207 518t525 206t518 -196t200 -516q0 -322 -203 -513t-526 -191t-522 190t-199 502z" />
    <glyph glyph-name="Odieresis" unicode="&#xd6;" horiz-adv-x="1613" 
d="M1022 1458q-53 0 -88 31t-37 88q0 57 36 94t89 37t88 -36t35 -89t-35 -89t-88 -36zM594 1458q-53 0 -88 31t-37 88q0 57 36 94t89 37t88 -36t35 -89t-35 -89t-88 -36zM1204 656q0 269 -110 452q-111 182 -296 182t-287 -157q-101 -158 -101 -399t85 -439
q44 -104 131 -169t205 -65q190 0 282 163q91 163 91 432zM82 660q0 312 207 518t525 206t518 -196t200 -516q0 -322 -203 -513t-526 -191t-522 190t-199 502z" />
    <glyph glyph-name="multiply" unicode="&#xd7;" horiz-adv-x="1064" 
d="M938 719l-299 -301l299 -299l-107 -111l-301 301l-297 -301l-104 111l295 297l-295 297l104 110l299 -299l299 303z" />
    <glyph glyph-name="Oslash" unicode="&#xd8;" horiz-adv-x="1613" 
d="M1532 680q0 -330 -203 -521t-536 -192q-207 0 -365 86l-100 -141q-25 -2 -54 18t-34 47l94 134q-252 195 -252 555q0 307 207 513t524 205q205 0 365 -79l88 122q28 2 56 -16t36 -43l-86 -121q260 -193 260 -567zM835 61q186 0 278 163q91 162 91 410t-78 408l-583 -827
q106 -154 292 -154zM786 1290q-172 0 -275 -157q-101 -157 -101 -401t73 -410l584 825q-109 143 -281 143z" />
    <glyph glyph-name="Ugrave" unicode="&#xd9;" horiz-adv-x="1515" 
d="M594 1749l332 -242q12 -31 -23 -61l-401 131q-108 30 -45 139q33 63 69 64q23 0 68 -31zM223 545v512q0 139 -16 173t-88 48l-51 10q-12 8 -13 35q0 27 17 35q147 -6 299 -6t299 6q12 -10 12 -35t-12 -35l-49 -8q-70 -12 -87 -47t-18 -176v-473q0 -290 84 -398
q36 -46 100 -76t154 -30q342 0 342 510v248q0 303 -31 374q-20 47 -118 66l-56 10q-12 12 -11 36t11 34q166 -6 277 -6t227 6q10 -10 11 -34t-11 -36l-37 -8q-90 -20 -110 -68q-31 -72 -31 -374v-230q0 -168 -27 -288t-104 -205q-138 -147 -404 -147t-412 119
q-146 120 -147 458z" />
    <glyph glyph-name="Uacute" unicode="&#xda;" horiz-adv-x="1515" 
d="M1090 1780q37 0 69 -64q64 -109 -45 -139l-401 -131q-33 12 -23 51l332 248q47 35 68 35zM223 545v512q0 139 -16 173t-88 48l-51 10q-12 8 -13 35q0 27 17 35q147 -6 299 -6t299 6q12 -10 12 -35t-12 -35l-49 -8q-70 -12 -87 -47t-18 -176v-473q0 -290 84 -398
q36 -46 100 -76t154 -30q342 0 342 510v248q0 303 -31 374q-20 47 -118 66l-56 10q-12 12 -11 36t11 34q166 -6 277 -6t227 6q10 -10 11 -34t-11 -36l-37 -8q-90 -20 -110 -68q-31 -72 -31 -374v-230q0 -168 -27 -288t-104 -205q-138 -147 -404 -147t-412 119
q-146 120 -147 458z" />
    <glyph glyph-name="Ucircumflex" unicode="&#xdb;" horiz-adv-x="1515" 
d="M1049 1446l-236 98q-35 16 -65 0l-234 -98q-14 0 -24 15q-9 15 -3 32l248 231q47 43 90 0l248 -231q6 -17 -3 -31t-21 -16zM223 545v512q0 139 -16 173t-88 48l-51 10q-12 8 -13 35q0 27 17 35q147 -6 299 -6t299 6q12 -10 12 -35t-12 -35l-49 -8q-70 -12 -87 -47
t-18 -176v-473q0 -290 84 -398q36 -46 100 -76t154 -30q342 0 342 510v248q0 303 -31 374q-20 47 -118 66l-56 10q-12 12 -11 36t11 34q166 -6 277 -6t227 6q10 -10 11 -34t-11 -36l-37 -8q-90 -20 -110 -68q-31 -72 -31 -374v-230q0 -168 -27 -288t-104 -205
q-138 -147 -404 -147t-412 119q-146 120 -147 458z" />
    <glyph glyph-name="Udieresis" unicode="&#xdc;" horiz-adv-x="1515" 
d="M1014 1458q-53 0 -88 31t-37 88q0 57 36 94t89 37t88 -36t35 -89t-35 -89t-88 -36zM586 1458q-53 0 -88 31t-37 88q0 57 36 94t89 37t88 -36t35 -89t-35 -89t-88 -36zM223 545v512q0 139 -16 173t-88 48l-51 10q-12 8 -13 35q0 27 17 35q147 -6 299 -6t299 6
q12 -10 12 -35t-12 -35l-49 -8q-70 -12 -87 -47t-18 -176v-473q0 -290 84 -398q36 -46 100 -76t154 -30q342 0 342 510v248q0 303 -31 374q-20 47 -118 66l-56 10q-12 12 -11 36t11 34q166 -6 277 -6t227 6q10 -10 11 -34t-11 -36l-37 -8q-90 -20 -110 -68q-31 -72 -31 -374
v-230q0 -168 -27 -288t-104 -205q-138 -147 -404 -147t-412 119q-146 120 -147 458z" />
    <glyph glyph-name="Yacute" unicode="&#xdd;" horiz-adv-x="1177" 
d="M901 1780q37 0 70 -64q63 -109 -45 -139l-402 -131q-32 12 -22 51l332 248q47 35 67 35zM752 438v-143q0 -141 17 -175t87 -44l82 -10q10 -10 10 -36t-10 -36q-201 6 -336 6t-317 -6q-12 10 -13 36q0 26 13 36l69 10q70 10 87 45t18 174v102q0 82 -9 124t-47 120
l-243 504q-35 69 -58 95t-73 34l-70 12q-14 12 -12 40t20 32q139 -6 311 -6t277 6q14 -6 16 -33t-12 -39l-70 -16q-49 -10 -49 -19q0 -25 54 -143l96 -219q44 -96 69 -147q26 -50 33 -66q30 47 152 290t123 279q0 18 -82 33l-39 8q-12 8 -12 36t14 36q124 -6 232 -6t198 6
q18 -6 19 -34t-11 -38l-53 -10q-78 -12 -107 -49q-59 -74 -178 -291l-129 -234q-41 -74 -54 -126t-13 -138z" />
    <glyph glyph-name="Thorn" unicode="&#xde;" horiz-adv-x="1216" 
d="M840 688q0 118 -58 207q-58 88 -164 88q-60 0 -76 -19t-16 -85v-584q0 -139 18 -174t87 -45l67 -10q12 -8 12 -35t-12 -37q-178 6 -317 6t-309 -6q-12 10 -13 37q0 27 13 35l57 10q72 12 88 46t16 173v762q0 139 -16 173t-88 46l-57 10q-14 8 -14 36q1 28 20 36
q150 -6 302 -6t308 6q16 -10 16 -37t-16 -35l-57 -10q-70 -12 -87 -43t-18 -156h138q301 0 428 -162q66 -84 65 -215q0 -180 -134 -271t-325 -91l-39 2q-14 8 -16 26t10 27q111 37 149 107t38 188z" />
    <glyph glyph-name="germandbls" unicode="&#xdf;" horiz-adv-x="1173" 
d="M438 866v-628q0 -106 12 -133t74 -39q12 -8 12 -36t-14 -36q-58 6 -212 6t-249 -6q-14 8 -15 36t11 36l33 4q55 6 69 33q13 28 13 135v413q0 41 -8 49t-43 9h-76q-10 6 -12 26t6 29l88 45q45 25 45 53q0 182 56 304t182 210t306 88q181 0 278 -87t98 -206q0 -82 -30 -127
t-101 -102l-33 -27q-92 -76 -92 -143t62 -124q11 -11 44 -41t43 -40q154 -141 154 -283q-1 -142 -99 -228t-266 -85q-80 0 -138 31t-58 104q0 41 15 73t37 32t56 -36q33 -36 75 -73q42 -36 76 -36q33 0 55 24t21 68q0 90 -122 196q-84 72 -131 134q-46 62 -46 127t23 115
t39 70t63 72q121 129 121 245t-52 185t-126 68q-116 0 -180 -133t-64 -371z" />
    <glyph glyph-name="agrave" unicode="&#xe0;" horiz-adv-x="907" 
d="M193 1292q0 30 55 74q46 32 80 32t63 -61l187 -372q-6 -39 -52 -33l-288 285q-45 45 -45 75zM328 227q0 -49 30 -86t75 -37q44 0 60 24q15 24 17 77l4 129q2 25 -1 32t-13 5q-172 -23 -172 -144zM850 104q37 0 80 25q14 -2 21 -17t3 -30q-28 -35 -94 -73t-148 -38
t-167 72q-19 16 -31 16t-45 -22q-90 -66 -180 -66q-90 1 -157 57q-66 56 -66 146t50 141t146 80t209 62q45 12 49 41q4 45 4 92t-29 100q-30 53 -89 53q-88 0 -107 -116q-6 -43 -32 -63q-25 -20 -73 -34q-48 -16 -77 -16q-47 0 -47 51q0 80 98 158q158 125 344 125
q276 0 262 -297l-14 -270q-6 -94 23 -136q30 -41 67 -41z" />
    <glyph glyph-name="aacute" unicode="&#xe1;" horiz-adv-x="907" 
d="M630 1382q34 0 81 -32q55 -43 55 -74t-45 -76l-289 -285q-45 -6 -51 33l186 373q29 61 63 61zM328 227q0 -49 30 -86t75 -37q44 0 60 24q15 24 17 77l4 129q2 25 -1 32t-13 5q-172 -23 -172 -144zM850 104q37 0 80 25q14 -2 21 -17t3 -30q-28 -35 -94 -73t-148 -38
t-167 72q-19 16 -31 16t-45 -22q-90 -66 -180 -66q-90 1 -157 57q-66 56 -66 146t50 141t146 80t209 62q45 12 49 41q4 45 4 92t-29 100q-30 53 -89 53q-88 0 -107 -116q-6 -43 -32 -63q-25 -20 -73 -34q-48 -16 -77 -16q-47 0 -47 51q0 80 98 158q158 125 344 125
q276 0 262 -297l-14 -270q-6 -94 23 -136q30 -41 67 -41z" />
    <glyph glyph-name="acircumflex" unicode="&#xe2;" horiz-adv-x="907" 
d="M455 1149q-8 0 -43 -37l-164 -190q-44 3 -58 36l218 392q14 26 47 26t47 -26l217 -392q-14 -33 -60 -36l-163 188q-33 39 -41 39zM328 227q0 -49 30 -86t75 -37q44 0 60 24q15 24 17 77l4 129q2 25 -1 32t-13 5q-172 -23 -172 -144zM850 104q37 0 80 25q14 -2 21 -17
t3 -30q-28 -35 -94 -73t-148 -38t-167 72q-19 16 -31 16t-45 -22q-90 -66 -180 -66q-90 1 -157 57q-66 56 -66 146t50 141t146 80t209 62q45 12 49 41q4 45 4 92t-29 100q-30 53 -89 53q-88 0 -107 -116q-6 -43 -32 -63q-25 -20 -73 -34q-48 -16 -77 -16q-47 0 -47 51
q0 80 98 158q158 125 344 125q276 0 262 -297l-14 -270q-6 -94 23 -136q30 -41 67 -41z" />
    <glyph glyph-name="atilde" unicode="&#xe3;" horiz-adv-x="907" 
d="M537 1044h-115q-119 0 -176 -100q-8 -6 -33 -3t-31 15q39 121 84 179q47 57 125 57h115q68 0 102 18t58 78q12 4 34 1t27 -11q-18 -102 -62 -168t-128 -66zM328 227q0 -49 30 -86t75 -37q44 0 60 24q15 24 17 77l4 129q2 25 -1 32t-13 5q-172 -23 -172 -144zM850 104
q37 0 80 25q14 -2 21 -17t3 -30q-28 -35 -94 -73t-148 -38t-167 72q-19 16 -31 16t-45 -22q-90 -66 -180 -66q-90 1 -157 57q-66 56 -66 146t50 141t146 80t209 62q45 12 49 41q4 45 4 92t-29 100q-30 53 -89 53q-88 0 -107 -116q-6 -43 -32 -63q-25 -20 -73 -34
q-48 -16 -77 -16q-47 0 -47 51q0 80 98 158q158 125 344 125q276 0 262 -297l-14 -270q-6 -94 23 -136q30 -41 67 -41z" />
    <glyph glyph-name="adieresis" unicode="&#xe4;" horiz-adv-x="907" 
d="M641 987q-55 0 -91 32t-38 89q0 57 37 94t91 37t90 -36t36 -90t-35 -90t-90 -36zM272 987q-55 0 -91 32t-38 89q0 57 37 94t91 37t90 -36t36 -90t-35 -90t-90 -36zM328 227q0 -49 30 -86t75 -37q44 0 60 24q15 24 17 77l4 129q2 25 -1 32t-13 5q-172 -23 -172 -144z
M850 104q37 0 80 25q14 -2 21 -17t3 -30q-28 -35 -94 -73t-148 -38t-167 72q-19 16 -31 16t-45 -22q-90 -66 -180 -66q-90 1 -157 57q-66 56 -66 146t50 141t146 80t209 62q45 12 49 41q4 45 4 92t-29 100q-30 53 -89 53q-88 0 -107 -116q-6 -43 -32 -63q-25 -20 -73 -34
q-48 -16 -77 -16q-47 0 -47 51q0 80 98 158q158 125 344 125q276 0 262 -297l-14 -270q-6 -94 23 -136q30 -41 67 -41z" />
    <glyph glyph-name="aring" unicode="&#xe5;" horiz-adv-x="907" 
d="M455 1016q45 0 71 36t27 89q0 53 -27 90q-28 37 -72 37t-71 -37t-27 -90t27 -89t72 -36zM456 938q-99 0 -161 60q-61 60 -61 142t60 141q62 60 162 60t159 -59q61 -59 61 -141q0 -83 -60 -143t-160 -60zM328 227q0 -49 30 -86t75 -37q44 0 60 24q15 24 17 77l4 129
q2 25 -1 32t-13 5q-172 -23 -172 -144zM850 104q37 0 80 25q14 -2 21 -17t3 -30q-28 -35 -94 -73t-148 -38t-167 72q-19 16 -31 16t-45 -22q-90 -66 -180 -66q-90 1 -157 57q-66 56 -66 146t50 141t146 80t209 62q45 12 49 41q4 45 4 92t-29 100q-30 53 -89 53
q-88 0 -107 -116q-6 -43 -32 -63q-25 -20 -73 -34q-48 -16 -77 -16q-47 0 -47 51q0 80 98 158q158 125 344 125q276 0 262 -297l-14 -270q-6 -94 23 -136q30 -41 67 -41z" />
    <glyph glyph-name="ae" unicode="&#xe6;" horiz-adv-x="1284" 
d="M1016 647q0 43 -30 75t-84 32t-96 -52t-42 -99q0 -46 8 -55t33 -1l168 45q43 12 43 55zM905 -29q-203 0 -291 121q-12 16 -21 17t-54 -32q-46 -32 -54 -37q-9 -6 -35 -22t-39 -20t-46 -16t-78 -11q-84 -1 -153 61t-68 158q0 152 204 211l213 62q16 4 22 14q5 10 5 39v23
q0 154 -46 187q-24 17 -63 17q-86 0 -104 -116q-6 -43 -32 -63t-75 -34q-49 -16 -73 -16q-47 0 -47 49q0 78 100 162q61 49 148 86t167 37q139 0 205 -90q112 90 260 90t232 -68t84 -149q0 -57 -70 -74l-403 -108q-23 -7 -29 -15t-6 -37q0 -121 72 -195t197 -73
q126 0 196 115q45 0 51 -41q-101 -232 -369 -232zM510 209v135q0 29 -21 29q-39 -4 -88 -27q-80 -35 -79 -119q0 -55 32 -87t72 -31q84 0 84 100z" />
    <glyph glyph-name="ccedilla" unicode="&#xe7;" horiz-adv-x="851" 
d="M575 848q121 0 216 -35q43 -37 43 -94t-18 -93t-40 -36q-23 0 -28 10q-109 154 -207 154q-97 0 -153 -89t-56 -212t79 -221t208 -97q129 0 188 101q21 2 37 -10t16 -36q-35 -78 -115 -140t-194 -75l-59 -81q-12 -16 -9 -24q4 -7 27 -20q125 -68 125 -174q0 -82 -78 -136
t-182 -54q-158 0 -158 90q1 29 19 48q47 48 121 -18q43 -38 63 -38t38 14q17 14 17 37q0 82 -156 148l-6 16l131 192q-172 14 -276 127t-105 283q1 211 149 337t363 126z" />
    <glyph glyph-name="egrave" unicode="&#xe8;" horiz-adv-x="860" 
d="M209 1296q0 30 55 74q47 32 81 32t63 -61l186 -372q-6 -39 -51 -33l-289 285q-45 45 -45 75zM428 575h76q54 -1 76 13t22 59t-29 76t-85 31t-104 -48q-50 -48 -50 -100q0 -20 20 -26t74 -5zM836 553q0 -68 -74 -68h-393q-35 0 -43 -6t-9 -30q0 -123 77 -213t208 -90
t195 106q17 4 35 -9t18 -38q-58 -121 -156 -177t-202 -57q-199 0 -313 121q-113 120 -113 306t125 318q126 132 317 132q154 0 241 -85t87 -210z" />
    <glyph glyph-name="eacute" unicode="&#xe9;" horiz-adv-x="860" 
d="M408 961l186 372q28 61 62 61t81 -32q55 -43 55 -74t-44 -76l-289 -284q-45 -6 -51 33zM428 575h76q54 -1 76 13t22 59t-29 76t-85 31t-104 -48q-50 -48 -50 -100q0 -20 20 -26t74 -5zM836 553q0 -68 -74 -68h-393q-35 0 -43 -6t-9 -30q0 -123 77 -213t208 -90t195 106
q17 4 35 -9t18 -38q-58 -121 -156 -177t-202 -57q-199 0 -313 121q-113 120 -113 306t125 318q126 132 317 132q154 0 241 -85t87 -210z" />
    <glyph glyph-name="ecircumflex" unicode="&#xea;" horiz-adv-x="860" 
d="M475 1366q33 0 47 -27l217 -391q-14 -33 -59 -37l-164 189q-33 39 -41 39t-43 -37l-164 -191q-43 4 -57 37l217 391q14 27 47 27zM428 575h76q54 -1 76 13t22 59t-29 76t-85 31t-104 -48q-50 -48 -50 -100q0 -20 20 -26t74 -5zM836 553q0 -68 -74 -68h-393q-35 0 -43 -6
t-9 -30q0 -123 77 -213t208 -90t195 106q17 4 35 -9t18 -38q-58 -121 -156 -177t-202 -57q-199 0 -313 121q-113 120 -113 306t125 318q126 132 317 132q154 0 241 -85t87 -210z" />
    <glyph glyph-name="edieresis" unicode="&#xeb;" horiz-adv-x="860" 
d="M657 987q-55 0 -91 32t-38 89q0 57 37 94t91 37t90 -36t36 -90t-35 -90t-90 -36zM289 987q-55 0 -91 32t-38 89q0 57 37 94t91 37t90 -36t36 -90t-35 -90t-90 -36zM428 575h76q54 -1 76 13t22 59t-29 76t-85 31t-104 -48q-50 -48 -50 -100q0 -20 20 -26t74 -5zM836 553
q0 -68 -74 -68h-393q-35 0 -43 -6t-9 -30q0 -123 77 -213t208 -90t195 106q17 4 35 -9t18 -38q-58 -121 -156 -177t-202 -57q-199 0 -313 121q-113 120 -113 306t125 318q126 132 317 132q154 0 241 -85t87 -210z" />
    <glyph glyph-name="igrave" unicode="&#xec;" horiz-adv-x="585" 
d="M29 1296q0 30 55 74q46 32 80 32t63 -61l187 -372q-6 -39 -52 -33l-288 285q-45 45 -45 75zM438 614v-376q0 -109 12 -137t64 -31l39 -4q12 -8 12 -36t-14 -36q-109 6 -250 6t-242 -6q-14 8 -14 36t12 36l39 4q51 4 64 31q12 28 12 137v309q0 67 -6 91t-33 40l-29 18
q-10 8 -10 31t10 31q195 53 304 119q25 0 36 -19q-6 -92 -6 -244z" />
    <glyph glyph-name="iacute" unicode="&#xed;" horiz-adv-x="585" 
d="M197 963l186 372q29 61 63 61t80 -32q56 -43 56 -74t-45 -76l-289 -284q-45 -6 -51 33zM438 614v-376q0 -109 12 -137t64 -31l39 -4q12 -8 12 -36t-14 -36q-109 6 -250 6t-242 -6q-14 8 -14 36t12 36l39 4q51 4 64 31q12 28 12 137v309q0 67 -6 91t-33 40l-29 18
q-10 8 -10 31t10 31q195 53 304 119q25 0 36 -19q-6 -92 -6 -244z" />
    <glyph glyph-name="icircumflex" unicode="&#xee;" horiz-adv-x="585" 
d="M292 1159q-9 0 -42 -37l-164 -190q-43 4 -57 37l217 391q14 26 47 26t47 -26l217 -391q-14 -33 -59 -37l-164 188q-33 39 -42 39zM438 614v-376q0 -109 12 -137t64 -31l39 -4q12 -8 12 -36t-14 -36q-109 6 -250 6t-242 -6q-14 8 -14 36t12 36l39 4q51 4 64 31
q12 28 12 137v309q0 67 -6 91t-33 40l-29 18q-10 8 -10 31t10 31q195 53 304 119q25 0 36 -19q-6 -92 -6 -244z" />
    <glyph glyph-name="idieresis" unicode="&#xef;" horiz-adv-x="585" 
d="M479 987q-55 0 -91 32t-38 89q0 57 37 94t91 37t90 -36t36 -90t-35 -90t-90 -36zM111 987q-55 0 -92 32q-36 32 -37 89q0 57 36 94q38 37 92 37t90 -36t36 -90t-35 -90t-90 -36zM438 614v-376q0 -109 12 -137t64 -31l39 -4q12 -8 12 -36t-14 -36q-109 6 -250 6t-242 -6
q-14 8 -14 36t12 36l39 4q51 4 64 31q12 28 12 137v309q0 67 -6 91t-33 40l-29 18q-10 8 -10 31t10 31q195 53 304 119q25 0 36 -19q-6 -92 -6 -244z" />
    <glyph glyph-name="eth" unicode="&#xf0;" horiz-adv-x="1056" 
d="M551 754q-84 0 -138 -84q-55 -84 -55 -250t48 -260t138 -94q89 0 129 123t36 378q-2 92 -50 140q-51 47 -108 47zM995 581q0 -325 -134 -467q-133 -142 -337 -142t-331 110t-129 316t140 328t345 122q82 0 137 -25q-12 109 -108 260l-295 -143q-27 12 -36 45t3 53
l268 129q-78 101 -177 161t-169 69q-16 8 -18 34t20 33q170 0 305 -65q119 -53 213 -144l275 131q25 -10 36 -40t3 -56l-236 -112q225 -272 225 -597z" />
    <glyph glyph-name="ntilde" unicode="&#xf1;" horiz-adv-x="1126" 
d="M651 1065h-121q-123 0 -184 -104q-10 -9 -36 -5t-31 17q37 123 88 185t131 63h120q70 0 107 19t61 81q12 4 35 1t29 -11q-18 -106 -70 -187q-41 -59 -129 -59zM446 750q8 0 41 16q139 82 249 82t176 -74t67 -184v-352q0 -106 13 -134t69 -34l33 -4q12 -8 12 -36t-14 -36
q-96 6 -238 6t-231 -6q-14 8 -15 36q0 28 13 36l36 6q37 6 46 28t10 107v346q0 65 -35 105t-112 40t-111 -49q-16 -18 -17 -76v-366q0 -84 10 -109t50 -28l32 -4q12 -8 12 -36t-14 -36q-94 6 -228 6t-241 -6q-14 8 -14 36t12 36l33 4q55 6 69 33q13 29 13 135v309
q0 67 -6 91t-33 40l-29 18q-10 8 -10 31t10 31q201 55 304 119q25 0 36 -19l-6 -92q0 -16 8 -16z" />
    <glyph glyph-name="ograve" unicode="&#xf2;" horiz-adv-x="1056" 
d="M227 1284q-1 31 51 69q52 37 86 37t62 -61l186 -373q-6 -39 -51 -32l-289 284q-45 45 -45 76zM528 754q-78 0 -124 -78t-46 -241t50 -266t137 -103q158 0 153 317q-2 159 -47 265t-123 106zM526 -29q-200 0 -330 110q-130 109 -132 315t138 329t333 123t325 -115
t133 -325q0 -210 -134 -323q-134 -114 -333 -114z" />
    <glyph glyph-name="oacute" unicode="&#xf3;" horiz-adv-x="1056" 
d="M803 1286q0 -31 -45 -76l-289 -284q-45 -7 -51 32l186 373q29 61 63 61t81 -32q55 -43 55 -74zM528 754q-78 0 -124 -78t-46 -241t50 -266t137 -103q158 0 153 317q-2 159 -47 265t-123 106zM526 -29q-200 0 -330 110q-130 109 -132 315t138 329t333 123t325 -115
t133 -325q0 -210 -134 -323q-134 -114 -333 -114z" />
    <glyph glyph-name="ocircumflex" unicode="&#xf4;" horiz-adv-x="1056" 
d="M528 1366q33 0 47 -27l218 -391q-14 -33 -60 -37l-164 189q-33 39 -41 39t-43 -37l-163 -191q-44 4 -58 37l217 391q14 27 47 27zM528 754q-78 0 -124 -78t-46 -241t50 -266t137 -103q158 0 153 317q-2 159 -47 265t-123 106zM526 -29q-200 0 -330 110q-130 109 -132 315
t138 329t333 123t325 -115t133 -325q0 -210 -134 -323q-134 -114 -333 -114z" />
    <glyph glyph-name="otilde" unicode="&#xf5;" horiz-adv-x="1056" 
d="M610 1044h-114q-119 0 -177 -100q-9 -6 -33 -3t-30 15q39 121 84 179q47 57 125 57h115q68 0 102 18t57 78q12 4 34 1t28 -11q-19 -102 -63 -168t-128 -66zM528 754q-78 0 -124 -78t-46 -241t50 -266t137 -103q158 0 153 317q-2 159 -47 265t-123 106zM526 -29
q-200 0 -330 110q-130 109 -132 315t138 329t333 123t325 -115t133 -325q0 -210 -134 -323q-134 -114 -333 -114z" />
    <glyph glyph-name="odieresis" unicode="&#xf6;" horiz-adv-x="1056" 
d="M715 987q-55 0 -91 32t-38 89q0 57 37 94t91 37t90 -36t36 -90t-35 -90t-90 -36zM346 987q-55 0 -91 32t-38 89q0 57 37 94t91 37t90 -36t36 -90t-35 -90t-90 -36zM528 754q-78 0 -124 -78t-46 -241t50 -266t137 -103q158 0 153 317q-2 159 -47 265t-123 106zM526 -29
q-200 0 -330 110q-130 109 -132 315t138 329t333 123t325 -115t133 -325q0 -210 -134 -323q-134 -114 -333 -114z" />
    <glyph glyph-name="divide" unicode="&#xf7;" horiz-adv-x="1064" 
d="M944 362h-821v148h821v-148zM532 852q50 0 86 -37t37 -87t-35 -87t-86 -37t-88 36q-36 36 -36 88t36 88t86 36zM655 145q1 -51 -35 -88t-86 -37t-88 37q-37 37 -36 88q0 51 36 87t86 36t86 -36t37 -87z" />
    <glyph glyph-name="oslash" unicode="&#xf8;" horiz-adv-x="1056" 
d="M535 848q131 0 219 -47l71 98q59 -4 72 -53l-68 -90q164 -117 164 -337t-134 -334t-337 -114q-129 0 -221 47l-84 -114q-57 8 -70 53l78 104q-160 113 -162 327q-1 214 139 337t333 123zM545 66q164 0 160 317q-1 92 -21 172l-274 -391q43 -98 135 -98zM352 469
q0 -129 23 -205l274 393q-43 97 -124 97t-127 -78t-46 -207z" />
    <glyph glyph-name="ugrave" unicode="&#xf9;" horiz-adv-x="1114" 
d="M287 1274q0 31 55 74q46 32 80 32t63 -61l187 -373q-6 -39 -51 -33l-289 285q-45 45 -45 76zM965 643v-373q0 -98 10 -136t44 -38t83 17q14 -2 13 -41t-19 -47q-113 -4 -189 -23q-75 -18 -111 -28t-59 -15l-20 -8q-20 2 -25 24q6 37 6 65t-22 30q-53 -34 -82 -50
q-87 -47 -205 -48q-231 -2 -231 261v349q0 78 -12 100t-50 33l-26 8q-10 14 -9 38q2 24 17 34q170 6 229 23q58 18 77 24t22 6q20 0 24 -25q-6 -78 -6 -180v-338q0 -90 28 -137t100 -47t124 39q23 16 22 61v387q0 62 -16 82t-72 29l-28 4q-12 10 -11 38q2 28 21 34
q216 10 333 47q22 6 25 6q16 0 21 -25q-6 -110 -6 -180z" />
    <glyph glyph-name="uacute" unicode="&#xfa;" horiz-adv-x="1114" 
d="M846 1296q0 -31 -45 -75l-289 -285q-45 -6 -51 33l186 372q29 61 63 61t81 -32q55 -43 55 -74zM965 643v-373q0 -98 10 -136t44 -38t83 17q14 -2 13 -41t-19 -47q-113 -4 -189 -23q-75 -18 -111 -28t-59 -15l-20 -8q-20 2 -25 24q6 37 6 65t-22 30q-53 -34 -82 -50
q-87 -47 -205 -48q-231 -2 -231 261v349q0 78 -12 100t-50 33l-26 8q-10 14 -9 38q2 24 17 34q170 6 229 23q58 18 77 24t22 6q20 0 24 -25q-6 -78 -6 -180v-338q0 -90 28 -137t100 -47t124 39q23 16 22 61v387q0 62 -16 82t-72 29l-28 4q-12 10 -11 38q2 28 21 34
q216 10 333 47q22 6 25 6q16 0 21 -25q-6 -110 -6 -180z" />
    <glyph glyph-name="ucircumflex" unicode="&#xfb;" horiz-adv-x="1114" 
d="M557 1157q-8 0 -43 -37l-164 -190q-43 4 -57 37l217 391q14 26 47 26t47 -26l217 -391q-14 -33 -59 -37l-164 188q-33 39 -41 39zM965 643v-373q0 -98 10 -136t44 -38t83 17q14 -2 13 -41t-19 -47q-113 -4 -189 -23q-75 -18 -111 -28t-59 -15l-20 -8q-20 2 -25 24
q6 37 6 65t-22 30q-53 -34 -82 -50q-87 -47 -205 -48q-231 -2 -231 261v349q0 78 -12 100t-50 33l-26 8q-10 14 -9 38q2 24 17 34q170 6 229 23q58 18 77 24t22 6q20 0 24 -25q-6 -78 -6 -180v-338q0 -90 28 -137t100 -47t124 39q23 16 22 61v387q0 62 -16 82t-72 29l-28 4
q-12 10 -11 38q2 28 21 34q216 10 333 47q22 6 25 6q16 0 21 -25q-6 -110 -6 -180z" />
    <glyph glyph-name="udieresis" unicode="&#xfc;" horiz-adv-x="1114" 
d="M743 987q-55 0 -91 32t-38 89q0 57 37 94t91 37t90 -36t36 -90t-35 -90t-90 -36zM375 987q-55 0 -91 32t-38 89q0 57 37 94t91 37t90 -36t36 -90t-35 -90t-90 -36zM965 643v-373q0 -98 10 -136t44 -38t83 17q14 -2 13 -41t-19 -47q-113 -4 -189 -23q-75 -18 -111 -28
t-59 -15l-20 -8q-20 2 -25 24q6 37 6 65t-22 30q-53 -34 -82 -50q-87 -47 -205 -48q-231 -2 -231 261v349q0 78 -12 100t-50 33l-26 8q-10 14 -9 38q2 24 17 34q170 6 229 23q58 18 77 24t22 6q20 0 24 -25q-6 -78 -6 -180v-338q0 -90 28 -137t100 -47t124 39q23 16 22 61
v387q0 62 -16 82t-72 29l-28 4q-12 10 -11 38q2 28 21 34q216 10 333 47q22 6 25 6q16 0 21 -25q-6 -110 -6 -180z" />
    <glyph glyph-name="yacute" unicode="&#xfd;" horiz-adv-x="960" 
d="M831 1284q0 -31 -45 -76l-288 -284q-46 -7 -52 32l187 373q29 61 63 61t80 -32q55 -43 55 -74zM243 819q138 0 251 6q14 -5 16 -33t-10 -38l-41 -9q-41 -8 -51 -16t-10 -23t61 -182q90 -229 92 -233q16 29 63 135l37 84q76 174 76 207q0 20 -45 28l-41 9q-14 10 -12 39
t18 32q67 -6 173 -6t186 6q14 -7 16 -35t-12 -36l-39 -4q-66 -6 -94 -45q-49 -66 -121 -216l-109 -223q-208 -429 -311 -645q-61 -131 -176 -135q-131 -2 -131 123q0 47 31 77q32 30 85 29h50q68 0 100 43q16 22 52 96t36 113t-39 139l-197 496q-33 80 -54 109t-68 37l-37 6
q-12 10 -11 38q2 28 17 33q111 -6 249 -6z" />
    <glyph glyph-name="thorn" unicode="&#xfe;" horiz-adv-x="1091" 
d="M416 559v-328q0 -72 47 -118q43 -47 98 -47q92 0 145 89q52 89 52 236t-65 231t-169 85q-64 0 -86 -28t-22 -120zM150 -285v1383q0 68 -6 90t-35 39l-35 20q-10 11 -10 31t10 31q100 25 313 114q23 0 35 -14q-6 -127 -6 -299v-326q0 -14 16 -18q154 82 260 82
q160 0 254 -111t94 -280q0 -215 -139 -351t-362 -135q-63 0 -93 6q-31 -6 -30 -59v-203q0 -106 12 -134t64 -32l69 -6q12 -8 12 -36t-14 -35q-153 6 -283 6t-241 -6q-15 8 -15 36t13 35l41 4q52 3 64 31t12 137z" />
    <glyph glyph-name="ydieresis" unicode="&#xff;" horiz-adv-x="960" 
d="M711 1008q-55 0 -91 32t-38 88q0 57 36 95q38 37 92 37t90 -36t36 -90t-35 -90t-90 -36zM330 1008q-55 0 -91 32t-38 88q0 56 37 94t91 38t90 -36t36 -90t-35 -90t-90 -36zM243 819q138 0 251 6q14 -5 16 -33t-10 -38l-41 -9q-41 -8 -51 -16t-10 -23t61 -182
q90 -229 92 -233q16 29 63 135l37 84q76 174 76 207q0 20 -45 28l-41 9q-14 10 -12 39t18 32q67 -6 173 -6t186 6q14 -7 16 -35t-12 -36l-39 -4q-66 -6 -94 -45q-49 -66 -121 -216l-109 -223q-208 -429 -311 -645q-61 -131 -176 -135q-131 -2 -131 123q0 47 31 77
q32 30 85 29h50q68 0 100 43q16 22 52 96t36 113t-39 139l-197 496q-33 80 -54 109t-68 37l-37 6q-12 10 -11 38q2 28 17 33q111 -6 249 -6z" />
    <glyph glyph-name="Amacron" unicode="&#x100;" horiz-adv-x="1277" 
d="M917 1562q0 -52 -20 -77h-518q-18 25 -19 77q0 52 19 76h518q20 -24 20 -76zM461 571h192q37 -1 44 9t-3 51l-53 166q-61 190 -84 241q-4 -12 -21 -60q-16 -48 -34 -99t-33 -93l-51 -153q-12 -41 -4 -51t47 -11zM1343 31q0 -27 -12 -37q-147 6 -299 6t-293 -6
q-16 10 -18 35t14 37l66 10q55 10 55 35q0 18 -39 139l-55 176q-8 25 -26 31t-72 6h-244q-37 0 -48 -6t-20 -35l-80 -238q-14 -47 -14 -73q0 -20 84 -35l61 -10q11 -12 11 -39t-15 -33q-18 2 -231 6l-211 -6q-16 8 -17 34t11 38l55 6q43 6 72 26t53 76q51 123 129 328
l186 499q27 74 43 113q39 99 33 148q58 13 91 41q35 29 51 45l36 36q37 0 48 -41q25 -86 92 -280l278 -803q37 -102 61 -138t76 -44l78 -12q10 -8 10 -35z" />
    <glyph glyph-name="amacron" unicode="&#x101;" horiz-adv-x="907" 
d="M733 1094q0 -53 -20 -78h-518q-18 25 -19 74q0 49 19 73h518q20 -16 20 -69zM328 227q0 -49 30 -86t75 -37q44 0 60 24q15 24 17 77l4 129q2 25 -1 32t-13 5q-172 -23 -172 -144zM850 104q37 0 80 25q14 -2 21 -17t3 -30q-28 -35 -94 -73t-148 -38t-167 72q-19 16 -31 16
t-45 -22q-90 -66 -180 -66q-90 1 -157 57q-66 56 -66 146t50 141t146 80t209 62q45 12 49 41q4 45 4 92t-29 100q-30 53 -89 53q-88 0 -107 -116q-6 -43 -32 -63q-25 -20 -73 -34q-48 -16 -77 -16q-47 0 -47 51q0 80 98 158q158 125 344 125q276 0 262 -297l-14 -270
q-6 -94 23 -136q30 -41 67 -41z" />
    <glyph glyph-name="Abreve" unicode="&#x102;" horiz-adv-x="1277" 
d="M639 1475q-139 1 -211 77t-63 215q31 16 59 0q16 -67 78 -107t137 -40q76 0 137 41t78 106q29 16 59 0q8 -139 -63 -216q-72 -76 -211 -76zM461 571h192q37 -1 44 9t-3 51l-53 166q-61 190 -84 241q-4 -12 -21 -60q-16 -48 -34 -99t-33 -93l-51 -153q-12 -41 -4 -51
t47 -11zM1343 31q0 -27 -12 -37q-147 6 -299 6t-293 -6q-16 10 -18 35t14 37l66 10q55 10 55 35q0 18 -39 139l-55 176q-8 25 -26 31t-72 6h-244q-37 0 -48 -6t-20 -35l-80 -238q-14 -47 -14 -73q0 -20 84 -35l61 -10q11 -12 11 -39t-15 -33q-18 2 -231 6l-211 -6
q-16 8 -17 34t11 38l55 6q43 6 72 26t53 76q51 123 129 328l186 499q27 74 43 113q39 99 33 148q58 13 91 41q35 29 51 45l36 36q37 0 48 -41q25 -86 92 -280l278 -803q37 -102 61 -138t76 -44l78 -12q10 -8 10 -35z" />
    <glyph glyph-name="abreve" unicode="&#x103;" horiz-adv-x="907" 
d="M455 979q-131 0 -199 86t-61 246q11 8 33 8t30 -8q16 -78 70 -124t127 -46q72 0 126 46t70 124q8 8 31 8t33 -8q7 -160 -61 -246t-199 -86zM328 227q0 -49 30 -86t75 -37q44 0 60 24q15 24 17 77l4 129q2 25 -1 32t-13 5q-172 -23 -172 -144zM850 104q37 0 80 25
q14 -2 21 -17t3 -30q-28 -35 -94 -73t-148 -38t-167 72q-19 16 -31 16t-45 -22q-90 -66 -180 -66q-90 1 -157 57q-66 56 -66 146t50 141t146 80t209 62q45 12 49 41q4 45 4 92t-29 100q-30 53 -89 53q-88 0 -107 -116q-6 -43 -32 -63q-25 -20 -73 -34q-48 -16 -77 -16
q-47 0 -47 51q0 80 98 158q158 125 344 125q276 0 262 -297l-14 -270q-6 -94 23 -136q30 -41 67 -41z" />
    <glyph glyph-name="Aogonek" unicode="&#x104;" horiz-adv-x="1277" 
d="M856 111q0 18 -39 139l-55 176q-8 25 -26 31t-72 6h-246q-37 0 -48 -6t-20 -35l-76 -238q-14 -47 -14 -73q0 -20 82 -35l61 -10q11 -12 11 -39t-15 -33q-18 2 -231 6l-211 -6q-16 8 -17 34t11 38l55 6q43 6 72 26t53 76q51 123 129 328l189 499q8 21 25 69l24 64
q30 77 24 128q58 13 91 41q35 29 51 45l36 36q37 0 48 -41q25 -86 92 -280l278 -803q37 -102 61 -138t76 -44l78 -12q10 -8 10 -35t-12 -37q-147 6 -151 6q-66 -43 -108 -116t-42 -120q0 -127 133 -126q55 0 92 18q18 -8 19 -49q-84 -100 -223 -101q-103 0 -159 54t-56 137
q0 147 239 303l-336 -6q-16 10 -18 35t14 37l66 10q55 10 55 35zM461 571h192q37 -1 44 9t-3 51l-53 166q-57 174 -84 237q-27 -57 -88 -248l-51 -153q-12 -41 -4 -51t47 -11z" />
    <glyph glyph-name="aogonek" unicode="&#x105;" horiz-adv-x="907" 
d="M686 -29q-35 1 -79 19t-61 44q-16 26 -30 25q-14 0 -47 -22q-90 -66 -180 -66q-90 1 -157 57q-66 56 -66 146t50 141t146 80t209 62q45 12 49 41q4 45 4 92t-29 100q-30 53 -89 53q-88 0 -107 -116q-6 -43 -32 -63q-25 -20 -73 -34q-48 -16 -77 -16q-47 0 -47 51
q0 80 98 158q158 125 344 125q276 0 262 -297l-14 -270q-6 -94 23 -136q30 -41 67 -41t80 25q14 -2 21 -17t3 -30q-20 -23 -55 -53q-174 -158 -174 -285q0 -53 30 -85t84 -32t103 27q20 -6 21 -43q-37 -55 -99 -84t-119 -29q-109 0 -159 54t-49 131q0 147 229 303
q-45 -15 -80 -15zM328 227q0 -49 30 -86t75 -37q44 0 60 24q15 24 17 77l4 129q2 25 -1 32t-13 5q-172 -23 -172 -144z" />
    <glyph glyph-name="Cacute" unicode="&#x106;" horiz-adv-x="1411" 
d="M1120 1780q37 0 70 -64q63 -109 -45 -139l-402 -131q-32 12 -22 51l332 248q47 35 67 35zM897 1384q150 0 277 -25t145 -28q0 -162 24 -319q-7 -18 -37 -24t-40 9q-86 293 -385 293q-188 0 -330 -157q-141 -158 -141 -447t142 -457t339 -168q291 0 418 318q12 12 41 8
t36 -22q-23 -229 -77 -322q-272 -76 -416 -76q-342 0 -551 156q-260 199 -260 537t248 542q219 182 567 182z" />
    <glyph glyph-name="cacute" unicode="&#x107;" horiz-adv-x="851" 
d="M686 1386q34 0 80 -32q55 -43 55 -74t-45 -76l-289 -284q-45 -7 -51 32l187 373q29 61 63 61zM575 848q121 0 216 -35q43 -37 43 -94t-18 -93t-40 -36q-23 0 -28 10q-109 154 -207 154q-97 0 -153 -89t-56 -212t79 -221t208 -97q129 0 188 101q21 2 37 -10t16 -36
q-39 -88 -133 -154t-229 -65q-193 0 -314 116q-121 117 -121 313q1 196 149 322t363 126z" />
    <glyph glyph-name="Ccaron" unicode="&#x10c;" horiz-adv-x="1411" 
d="M541 1763l247 -118q37 -16 72 0l246 118q14 0 22 -17t5 -36l-265 -240q-47 -41 -90 0l-262 240q-2 18 6 34t19 19zM897 1384q150 0 277 -25t145 -28q0 -162 24 -319q-7 -18 -37 -24t-40 9q-86 293 -385 293q-188 0 -330 -157q-141 -158 -141 -447t142 -457t339 -168
q291 0 418 318q12 12 41 8t36 -22q-23 -229 -77 -322q-272 -76 -416 -76q-342 0 -551 156q-260 199 -260 537t248 542q219 182 567 182z" />
    <glyph glyph-name="ccaron" unicode="&#x10d;" horiz-adv-x="851" 
d="M515 1155q9 0 42 37l164 190q43 -3 57 -36l-217 -392q-14 -26 -47 -26t-47 26l-217 392q14 33 59 36l164 -188q33 -39 42 -39zM575 848q121 0 216 -35q43 -37 43 -94t-18 -93t-40 -36q-23 0 -28 10q-109 154 -207 154q-97 0 -153 -89t-56 -212t79 -221t208 -97
q129 0 188 101q21 2 37 -10t16 -36q-39 -88 -133 -154t-229 -65q-193 0 -314 116q-121 117 -121 313q1 196 149 322t363 126z" />
    <glyph glyph-name="Dcaron" unicode="&#x10e;" horiz-adv-x="1624" 
d="M483 1763l248 -118q37 -16 72 0l246 118q14 0 22 -17t4 -36l-264 -240q-47 -41 -90 0l-262 240q-2 18 6 34t18 19zM526 1118v-747q0 -182 41 -230q53 -59 175 -59t217 52q166 91 228 331q26 100 25 211q0 280 -145 434t-420 154q-85 0 -103 -23t-18 -123zM233 295v725
q0 154 -15 194t-83 50l-39 4q-16 8 -15 39t19 32q308 19 574 19t458 -69t301 -231t109 -366t-95 -362t-279 -250t-511 -92l-272 12q-143 0 -319 -6q-12 10 -13 37q0 27 13 35l63 10q70 10 87 45t17 174z" />
    <glyph glyph-name="dcaron" unicode="&#x10f;" horiz-adv-x="1099" 
d="M1223 1464q45 0 45 -103t-50 -226t-112 -185q-18 -6 -38 -2q-19 4 -13 19q53 131 53 264q0 35 -18 67q-18 33 -20 42q-3 9 -3 31q1 21 53 57t103 36zM688 211v397q0 41 -14 70q-43 76 -122 76t-140 -85q-62 -85 -62 -223t58 -237q58 -100 172 -100q43 0 84 24
q24 17 24 78zM954 1151v-815q0 -144 10 -192t37 -48q41 0 89 17q16 -14 17 -44t-15 -44q-175 -12 -294 -52q-34 -10 -55 -16l-20 -6q-27 0 -35 29l6 63q-4 27 -18 16q-139 -88 -221 -88q-172 0 -282 117t-110 287q1 213 141 343t347 130q80 0 117 -10q20 8 20 39v262
q0 69 -6 91t-35 38l-35 20q-12 10 -11 30t11 32q121 29 314 114q23 0 35 -14q-7 -125 -7 -299z" />
    <glyph glyph-name="Dcroat" unicode="&#x110;" horiz-adv-x="1644" 
d="M539 1118v-360h274q16 -16 16 -53t-16 -56h-274v-278q0 -182 41 -230q53 -59 175 -59t217 52q165 90 227 331q26 100 26 211q1 280 -145 434t-421 154q-86 0 -103 -23t-17 -123zM66 31q0 27 12 35l63 10q69 10 87 45t18 174v354h-172q-16 18 -17 52q0 34 17 57h172v262
q0 154 -16 194t-83 50l-38 4q-16 8 -16 39q1 31 20 32q309 19 575 19t456 -69q192 -69 302 -231t108 -366q0 -204 -95 -362t-279 -250t-510 -92l-273 12q-143 0 -319 -6q-12 10 -12 37z" />
    <glyph glyph-name="dcroat" unicode="&#x111;" horiz-adv-x="1099" 
d="M1090 1151v-107h-136v-708q0 -144 10 -192t37 -48q41 0 89 17q16 -14 17 -44t-15 -44q-175 -12 -294 -52q-34 -10 -55 -16l-20 -6q-27 0 -35 29l6 63q-4 27 -18 16q-139 -88 -221 -88q-172 0 -282 117t-110 287q1 213 141 343t347 130q80 0 117 -10q20 8 20 39v167h-192
v107h192q0 59 -6 79t-35 38l-35 20q-12 10 -11 30t11 32q121 29 314 114q23 0 35 -14q-6 -125 -7 -299h136zM688 211v397q0 41 -14 70q-43 76 -122 76t-140 -85q-62 -85 -62 -223t58 -237q58 -100 172 -100q43 0 84 24q24 17 24 78z" />
    <glyph glyph-name="Emacron" unicode="&#x112;" horiz-adv-x="1214" 
d="M330 1562q0 52 18 76h518q20 -24 20 -76t-20 -77h-518q-18 25 -18 77zM758 1257h-164q-48 0 -58 -11t-10 -68v-359q0 -43 8 -52t50 -9h141q82 0 110 19t42 93l10 52q10 12 39 12t37 -14q-14 -234 0 -435q-8 -14 -37 -15t-39 13l-10 52q-14 74 -43 94t-109 20h-141
q-41 0 -49 -9t-9 -54v-244q0 -148 26 -186t72 -50q44 -12 137 -12t131 5t85 28t81 71t77 134q12 16 41 12t34 -22q-6 -76 -34 -180t-52 -148q-162 6 -473 6h-266q-123 0 -352 -6q-12 10 -13 37q0 27 13 35l96 14q72 10 88 43t16 172v764q0 137 -16 170t-88 47l-51 10
q-14 8 -12 36t16 36q143 -6 295 -6h434q236 0 274 6l27 -318q-6 -16 -34 -19t-42 11q-37 119 -78 162q-63 63 -200 63z" />
    <glyph glyph-name="emacron" unicode="&#x113;" horiz-adv-x="860" 
d="M197 1080q0 48 18 73h518q20 -16 20 -69t-20 -78h-518q-18 26 -18 74zM428 575h76q54 -1 76 13t22 59t-29 76t-85 31t-104 -48q-50 -48 -50 -100q0 -20 20 -26t74 -5zM836 553q0 -68 -74 -68h-393q-35 0 -43 -6t-9 -30q0 -123 77 -213t208 -90t195 106q17 4 35 -9t18 -38
q-58 -121 -156 -177t-202 -57q-199 0 -313 121q-113 120 -113 306t125 318q126 132 317 132q154 0 241 -85t87 -210z" />
    <glyph glyph-name="Edotaccent" unicode="&#x116;" horiz-adv-x="1214" 
d="M609 1458q-56 0 -94 33t-40 92q0 59 39 98t94 39t93 -37t38 -93t-37 -94t-93 -38zM758 1257h-164q-48 0 -58 -11t-10 -68v-359q0 -43 8 -52t50 -9h141q82 0 110 19t42 93l10 52q10 12 39 12t37 -14q-14 -234 0 -435q-8 -14 -37 -15t-39 13l-10 52q-14 74 -43 94t-109 20
h-141q-41 0 -49 -9t-9 -54v-244q0 -148 26 -186t72 -50q44 -12 137 -12t131 5t85 28t81 71t77 134q12 16 41 12t34 -22q-6 -76 -34 -180t-52 -148q-162 6 -473 6h-266q-123 0 -352 -6q-12 10 -13 37q0 27 13 35l96 14q72 10 88 43t16 172v764q0 137 -16 170t-88 47l-51 10
q-14 8 -12 36t16 36q143 -6 295 -6h434q236 0 274 6l27 -318q-6 -16 -34 -19t-42 11q-37 119 -78 162q-63 63 -200 63z" />
    <glyph glyph-name="edotaccent" unicode="&#x117;" horiz-adv-x="860" 
d="M489 997q-55 0 -91 32t-38 89q0 57 37 94t91 37t90 -36t36 -90t-35 -90t-90 -36zM428 575h76q54 -1 76 13t22 59t-29 76t-85 31t-104 -48q-50 -48 -50 -100q0 -20 20 -26t74 -5zM836 553q0 -68 -74 -68h-393q-35 0 -43 -6t-9 -30q0 -123 77 -213t208 -90t195 106
q17 4 35 -9t18 -38q-58 -121 -156 -177t-202 -57q-199 0 -313 121q-113 120 -113 306t125 318q126 132 317 132q154 0 241 -85t87 -210z" />
    <glyph glyph-name="Eogonek" unicode="&#x118;" horiz-adv-x="1214" 
d="M758 1257h-164q-49 0 -58 -11t-10 -68v-359q0 -43 8 -52t50 -9h141q82 0 110 19t42 93l10 52q10 12 39 12t37 -14q-14 -234 0 -435q-8 -14 -37 -15t-39 13l-10 52q-14 74 -43 94t-109 20h-141q-41 0 -49 -9t-9 -54v-244q0 -148 26 -186t72 -50q44 -12 137 -12t131 5
t85 28t81 71t77 134q12 16 41 12t34 -22q-6 -76 -34 -180t-52 -148h-43q-141 -109 -141 -236q0 -121 127 -120q66 0 98 18q18 -6 19 -47q-40 -51 -104 -78t-124 -27q-100 0 -156 58t-57 133q0 137 240 303h-78q-82 2 -254 2h-266q-123 0 -352 -6q-12 10 -13 37q0 27 13 35
l96 14q72 10 88 43t16 172v764q0 137 -16 170t-88 47l-51 10q-14 8 -12 36t16 36q147 -6 295 -6h434q236 0 274 6l27 -318q-6 -16 -34 -19t-42 11q-37 119 -78 162q-63 63 -200 63z" />
    <glyph glyph-name="eogonek" unicode="&#x119;" horiz-adv-x="860" 
d="M567 -18q-66 -11 -75 -11q-199 0 -313 121q-113 120 -113 306t125 318q127 132 317 132q154 0 241 -85t87 -210q0 -33 -16 -50t-58 -18h-393q-35 0 -43 -6t-9 -30q0 -123 77 -213t208 -90t195 106q17 4 35 -9t18 -38q-29 -61 -139 -172q-166 -164 -166 -286t110 -122
q55 0 109 25q20 -6 20 -39q-76 -113 -223 -113q-109 0 -158 54t-49 126t46 140t167 164zM428 575h76q54 -1 76 13t22 59t-29 76t-85 31t-104 -48q-50 -48 -50 -100q0 -20 20 -26t74 -5z" />
    <glyph glyph-name="Ecaron" unicode="&#x11a;" horiz-adv-x="1214" 
d="M319 1763l248 -102q41 -16 72 -2l246 104q14 0 22 -17t4 -36l-264 -240q-47 -41 -90 0l-262 240q-2 18 6 34t18 19zM758 1257h-164q-48 0 -58 -11t-10 -68v-359q0 -43 8 -52t50 -9h141q82 0 110 19t42 93l10 52q10 12 39 12t37 -14q-14 -234 0 -435q-8 -14 -37 -15
t-39 13l-10 52q-14 74 -43 94t-109 20h-141q-41 0 -49 -9t-9 -54v-244q0 -148 26 -186t72 -50q44 -12 137 -12t131 5t85 28t81 71t77 134q12 16 41 12t34 -22q-6 -76 -34 -180t-52 -148q-162 6 -473 6h-266q-123 0 -352 -6q-12 10 -13 37q0 27 13 35l96 14q72 10 88 43
t16 172v764q0 137 -16 170t-88 47l-51 10q-14 8 -12 36t16 36q143 -6 295 -6h434q236 0 274 6l27 -318q-6 -16 -34 -19t-42 11q-37 119 -78 162q-63 63 -200 63z" />
    <glyph glyph-name="ecaron" unicode="&#x11b;" horiz-adv-x="860" 
d="M492 934q-33 0 -48 27l-217 391q14 33 60 37l164 -189q33 -39 41 -39t43 37l163 191q44 -4 58 -37l-217 -391q-14 -27 -47 -27zM428 575h76q54 -1 76 13t22 59t-29 76t-85 31t-104 -48q-50 -48 -50 -100q0 -20 20 -26t74 -5zM836 553q0 -68 -74 -68h-393q-35 0 -43 -6
t-9 -30q0 -123 77 -213t208 -90t195 106q17 4 35 -9t18 -38q-58 -121 -156 -177t-202 -57q-199 0 -313 121q-113 120 -113 306t125 318q126 132 317 132q154 0 241 -85t87 -210z" />
    <glyph glyph-name="Gbreve" unicode="&#x11e;" horiz-adv-x="1503" 
d="M854 1475q-139 1 -211 77t-63 215q31 16 59 0q15 -67 77 -107t138 -40t137 41t78 106q29 16 59 0q8 -139 -63 -216q-72 -76 -211 -76zM1358 346v-115q0 -73 8 -101t35 -34q6 -6 4 -25t-10 -24q-109 -17 -155 -33t-158 -31t-193 -16q-221 0 -405 73q-184 72 -293 236
t-109 371t90 368t280 265t470 104q133 0 263 -24t142 -25q2 -18 7 -123t22 -206q-6 -16 -37 -18t-41 13q-98 289 -385 289q-233 0 -358 -168t-125 -426q0 -399 233 -557q117 -78 281 -78q88 0 114 29t27 127v129q0 82 -18 105t-93 32l-90 13q-16 8 -16 34t16 37
q218 -6 364 -6t251 6q12 -10 12 -37t-12 -34l-47 -9q-47 -8 -61 -33q-13 -26 -13 -108z" />
    <glyph glyph-name="gbreve" unicode="&#x11f;" horiz-adv-x="980" 
d="M492 985q-131 0 -199 86t-62 246q10 8 33 8t31 -8q17 -78 71 -124t126 -46t126 46t70 124q8 8 31 8t33 -8q6 -160 -62 -246t-198 -86zM567 -115h-137q-80 0 -115 -26q-29 -27 -28 -72q0 -104 72 -167q73 -62 181 -62t169 44q59 44 59 122t-55 120q-56 41 -146 41z
M470 301q122 0 122 215q0 113 -37 175q-37 63 -92 63t-92 -52t-37 -158t40 -174t96 -69zM983 -152q0 -94 -51 -176t-133 -133q-152 -90 -358 -90t-304 77t-98 185q0 63 65 103q20 12 54 34t47 29q35 20 2 29q-57 18 -92 64t-35 88t14 55q98 63 131 96q29 23 17 45
q-78 32 -126 102t-48 162q0 138 104 234t282 96t318 -76h236q18 -16 18 -65t-31 -68h-151q6 -29 6 -83q0 -118 -88 -227q-45 -54 -131 -87t-201 -33q-16 0 -84 6q-35 -14 -35 -48t29 -54t76 -21l250 4q317 0 317 -248z" />
    <glyph glyph-name="Gcommaaccent" unicode="&#x122;" horiz-adv-x="1503" 
d="M840 -113q60 0 113 -52q55 -52 55 -166q0 -115 -77 -189t-202 -98q-21 2 -27 30t9 37q53 21 99 65t46 91q0 76 -94 98q-51 15 -51 69t34 85q35 30 95 30zM1358 346v-115q0 -73 8 -101t35 -34q6 -6 4 -25t-10 -24q-109 -17 -155 -33t-158 -31t-193 -16q-221 0 -405 73
q-184 72 -293 236t-109 371t90 368t280 265t470 104q133 0 263 -24t142 -25q2 -18 7 -123t22 -206q-6 -16 -37 -18t-41 13q-98 289 -385 289q-233 0 -358 -168t-125 -426q0 -399 233 -557q117 -78 281 -78q88 0 114 29t27 127v129q0 82 -18 105t-93 32l-90 13q-16 8 -16 34
t16 37q218 -6 364 -6t251 6q12 -10 12 -37t-12 -34l-47 -9q-47 -8 -61 -33q-13 -26 -13 -108z" />
    <glyph glyph-name="gcommaaccent" unicode="&#x123;" horiz-adv-x="980" 
d="M492 975q-58 0 -112 49t-54 150t77 173q78 71 199 93q20 -2 26 -28t-7 -34q-53 -18 -93 -56t-41 -87q0 -66 82 -90q51 -13 51 -63t-34 -78q-36 -28 -94 -29zM567 -115h-137q-80 0 -115 -26q-29 -27 -28 -72q0 -104 72 -167q73 -62 181 -62t169 44q59 44 59 122t-55 120
q-56 41 -146 41zM470 301q122 0 122 215q0 113 -37 175q-37 63 -92 63t-92 -52t-37 -158t40 -174t96 -69zM983 -152q0 -94 -51 -176t-133 -133q-152 -90 -358 -90t-304 77t-98 185q0 63 65 103q20 12 54 34t47 29q35 20 2 29q-57 18 -92 64t-35 88t14 55q98 63 131 96
q29 23 17 45q-78 32 -126 102t-48 162q0 138 104 234t282 96t318 -76h236q18 -16 18 -65t-31 -68h-151q6 -29 6 -83q0 -118 -88 -227q-45 -54 -131 -87t-201 -33q-16 0 -84 6q-35 -14 -35 -48t29 -54t76 -21l250 4q317 0 317 -248z" />
    <glyph glyph-name="Imacron" unicode="&#x12a;" horiz-adv-x="759" 
d="M659 1556q0 -46 -20 -71h-518q-19 25 -19 71t19 72h518q20 -26 20 -72zM526 1053v-754q0 -141 18 -176t89 -47l57 -10q12 -10 11 -36t-13 -36q-166 6 -309 6t-309 -6q-12 10 -13 37q0 27 13 35l57 10q72 12 89 47t17 176v754q0 141 -17 176t-89 47l-57 10q-12 8 -13 35
q0 27 13 37q166 -6 310 -6t310 6q12 -10 12 -37t-12 -35l-57 -10q-71 -12 -89 -47t-18 -176z" />
    <glyph glyph-name="imacron" unicode="&#x12b;" horiz-adv-x="585" 
d="M25 1093q0 44 18 68h518q20 -25 20 -69t-20 -68h-518q-18 25 -18 69zM438 614v-376q0 -109 12 -137t64 -31l39 -4q12 -8 12 -36t-14 -36q-109 6 -250 6t-242 -6q-14 8 -14 36t12 36l39 4q51 4 64 31q12 28 12 137v309q0 67 -6 91t-33 40l-29 18q-10 8 -10 31t10 31
q195 53 304 119q25 0 36 -19q-6 -92 -6 -244z" />
    <glyph glyph-name="Iogonek" unicode="&#x12e;" horiz-adv-x="759" 
d="M233 299v754q0 141 -17 176t-89 47l-57 10q-12 8 -13 35q0 27 13 37q166 -6 310 -6t310 6q12 -10 12 -37t-12 -35l-57 -10q-72 -12 -89 -47t-18 -176v-754q0 -141 18 -176t89 -47l57 -10q12 -10 11 -36t-13 -36q-156 6 -229 6q-43 -43 -68 -102t-24 -105q0 -131 149 -131
q55 0 92 19q16 -8 17 -48q-94 -111 -222 -110q-96 0 -152 58t-56 140q0 123 174 279q-160 0 -299 -6q-12 10 -13 37q0 27 13 35l57 10q72 12 89 47t17 176z" />
    <glyph glyph-name="iogonek" unicode="&#x12f;" horiz-adv-x="585" 
d="M311 1309q63 0 103 -42t41 -108q0 -65 -45 -105t-110 -40q-66 0 -104 41t-38 105t45 107q45 42 108 42zM438 614v-376q0 -109 12 -137t64 -31l39 -4q12 -8 12 -36t-14 -36q-88 6 -166 6q-35 -38 -59 -104t-23 -109q0 -139 111 -139q61 0 110 24q20 -10 21 -43
q-82 -111 -219 -110q-98 0 -154 52q-55 52 -55 144q0 115 178 285q-135 0 -236 -6q-14 8 -14 36t12 36l39 4q51 4 64 31q12 28 12 137v309q0 67 -6 91t-33 40l-29 18q-10 8 -10 31t10 31q195 53 304 119q25 0 36 -19q-6 -92 -6 -244z" />
    <glyph glyph-name="Idotaccent" unicode="&#x130;" horiz-adv-x="759" 
d="M382 1458q-56 0 -94 33t-40 92q0 59 39 98t95 39t93 -37t37 -93t-37 -94t-93 -38zM526 1053v-754q0 -141 18 -176t89 -47l57 -10q12 -10 11 -36t-13 -36q-166 6 -309 6t-309 -6q-12 10 -13 37q0 27 13 35l57 10q72 12 89 47t17 176v754q0 141 -17 176t-89 47l-57 10
q-12 8 -13 35q0 27 13 37q166 -6 310 -6t310 6q12 -10 12 -37t-12 -35l-57 -10q-71 -12 -89 -47t-18 -176z" />
    <glyph glyph-name="dotlessi" unicode="&#x131;" horiz-adv-x="585" 
d="M438 614v-376q0 -109 12 -137t64 -31l39 -4q12 -8 12 -36t-14 -36q-109 6 -250 6t-242 -6q-14 8 -14 36t12 36l39 4q51 4 64 31q12 28 12 137v309q0 67 -6 91t-33 40l-29 18q-10 8 -10 31t10 31q195 53 304 119q25 0 36 -19q-6 -92 -6 -244z" />
    <glyph glyph-name="Kcommaaccent" unicode="&#x136;" horiz-adv-x="1464" 
d="M594 -228q0 54 35 84t95 31q60 0 113 -52q54 -52 54 -166q0 -115 -77 -189t-202 -98q-20 2 -26 30t8 37q53 21 99 65t46 91q0 76 -94 98q-51 15 -51 69zM526 1057v-250q0 -47 8 -61t34 -15q24 0 73 40t80 79q301 362 301 401q0 20 -35 27l-47 8q-16 10 -14 38t22 34
q156 -6 268 -6t234 6q18 -6 20 -33t-10 -39q-123 -14 -176 -37q-113 -45 -303 -262l-94 -106q-27 -29 -27 -46t48 -89t172 -264q123 -192 189 -276t99 -104t80 -26l65 -10q11 -14 9 -39t-15 -33q-153 6 -299 6t-317 -6q-20 6 -21 35q0 29 17 37l51 12q35 10 35 20
q-1 16 -11 32q-98 154 -124 192l-109 165q-61 94 -92 128t-63 34q-32 1 -40 -25t-8 -114v-215q0 -141 18 -176t87 -45l57 -8q12 -10 12 -36t-12 -36q-164 6 -308 6t-308 -6q-12 10 -13 37q0 27 13 35l57 8q70 10 87 45t17 176v762q0 141 -17 176t-87 45l-57 8q-16 8 -17 35
q0 27 17 37q154 -6 303 -6t313 6q14 -10 14 -37t-14 -35l-57 -8q-69 -10 -87 -45t-18 -176z" />
    <glyph glyph-name="kcommaaccent" unicode="&#x137;" horiz-adv-x="1089" 
d="M529 -92q53 0 109 -52t56 -161t-74 -181t-194 -96q-20 2 -26 31q-5 29 10 37q51 18 95 58t44 87q0 78 -90 103q-49 14 -49 64t32 80q33 30 87 30zM156 238v901q0 69 -6 91t-35 38l-35 20q-10 10 -10 30t10 32q109 27 313 114q23 0 35 -14q-6 -127 -6 -299v-643
q0 -16 6 -22t23 -7q70 0 118 58l86 100q49 59 50 82q0 16 -39 20l-52 9q-14 14 -12 40t16 31h50q199 0 387 29q14 -8 16 -34t-8 -38l-66 -14q-61 -12 -138 -72t-136 -119q-12 -14 -12 -30q-1 -16 123 -204q124 -187 158 -218t122 -47l31 -6q12 -10 9 -38t-17 -34
q-96 6 -260 6t-250 -6q-14 8 -18 33q-3 25 9 39l27 6q33 6 33 18t-35 64l-145 221q-20 31 -52 31q-25 0 -24 -50v-118q0 -106 13 -134t67 -34l33 -4q12 -8 12 -36t-15 -36q-98 6 -243 6t-252 -6q-14 8 -14 36t12 36l39 4q54 6 68 34t14 134z" />
    <glyph glyph-name="Lacute" unicode="&#x139;" horiz-adv-x="1198" 
d="M768 1780q37 0 70 -64q63 -109 -45 -139l-402 -131q-32 12 -22 51l331 248q47 35 68 35zM526 1057v-717q0 -152 29 -188t71 -47t136 -11t133 4t84 29t80 73t80 138q12 14 40 10t38 -22q-8 -76 -37 -182t-52 -150q-162 6 -473 6h-274q-133 0 -324 -6q-14 10 -16 36t10 36
l78 10q70 10 87 44t17 175v762q0 141 -17 176t-87 45l-59 8q-16 8 -16 36q1 28 20 36q160 -6 308 -6t302 6q12 -10 12 -37t-12 -35l-53 -8q-69 -10 -87 -45t-18 -176z" />
    <glyph glyph-name="lacute" unicode="&#x13a;" horiz-adv-x="569" 
d="M514 1841q37 0 70 -63q63 -108 -45 -140l-402 -131q-32 13 -22 52l331 247q47 35 68 35zM156 238v901q0 69 -6 91t-35 38l-35 20q-10 10 -10 30t10 32q113 27 313 114q23 0 35 -14q-6 -127 -6 -299v-913q0 -106 13 -134t67 -34l35 -4q12 -8 12 -36t-14 -36q-99 6 -241 6
t-251 -6q-14 8 -14 36t12 36l39 4q52 4 64 32t12 136z" />
    <glyph glyph-name="Lcommaaccent" unicode="&#x13b;" horiz-adv-x="1198" 
d="M620 -113q60 0 114 -52t54 -166q0 -115 -76 -189t-202 -98q-20 2 -26 30t8 37q53 21 99 65t46 91q0 76 -94 98q-51 15 -51 69t34 85q34 30 94 30zM526 1057v-717q0 -152 29 -188t71 -47t136 -11t133 4t84 29t80 73t80 138q12 14 40 10t38 -22q-8 -76 -37 -182t-52 -150
q-162 6 -473 6h-274q-133 0 -324 -6q-14 10 -16 36t10 36l78 10q70 10 87 44t17 175v762q0 141 -17 176t-87 45l-59 8q-16 8 -16 36q1 28 20 36q160 -6 308 -6t302 6q12 -10 12 -37t-12 -35l-53 -8q-69 -10 -87 -45t-18 -176z" />
    <glyph glyph-name="lcommaaccent" unicode="&#x13c;" horiz-adv-x="569" 
d="M269 -92q53 0 109 -52t56 -161t-75 -181t-193 -96q-20 2 -26 31q-5 29 10 37q51 18 95 58t44 87q0 78 -90 103q-49 14 -49 64t32 80q33 30 87 30zM156 238v901q0 69 -6 91t-35 38l-35 20q-10 10 -10 30t10 32q113 27 313 114q23 0 35 -14q-6 -127 -6 -299v-913
q0 -106 13 -134t67 -34l35 -4q12 -8 12 -36t-14 -36q-99 6 -241 6t-251 -6q-14 8 -14 36t12 36l39 4q52 4 64 32t12 136z" />
    <glyph glyph-name="Lcaron" unicode="&#x13d;" horiz-adv-x="1198" 
d="M920 1434q58 0 114 -58t56 -176q0 -119 -80 -203t-201 -112q-23 3 -29 31t11 36q59 27 105 73t46 103q0 82 -98 111q-53 13 -53 89q0 38 35 72q36 34 94 34zM526 1057v-717q0 -152 29 -188t71 -47t136 -11t133 4t84 29t80 73t80 138q12 14 40 10t38 -22q-8 -76 -37 -182
t-52 -150q-162 6 -473 6h-274q-133 0 -324 -6q-14 10 -16 36t10 36l78 10q70 10 87 44t17 175v762q0 141 -17 176t-87 45l-59 8q-16 8 -16 36q1 28 20 36q160 -6 308 -6t302 6q12 -10 12 -37t-12 -35l-53 -8q-69 -10 -87 -45t-18 -176z" />
    <glyph glyph-name="lcaron" unicode="&#x13e;" horiz-adv-x="569" 
d="M694 1464q45 0 45 -103t-50 -226t-111 -185q-18 -6 -38 -2q-19 4 -14 19q53 131 54 264q0 30 -18 65l-19 39q-4 14 -4 36q0 21 52 57t103 36zM156 238v901q0 69 -6 91t-35 38l-35 20q-10 10 -10 30t10 32q113 27 313 114q23 0 35 -14q-6 -127 -6 -299v-913
q0 -106 13 -134t67 -34l35 -4q12 -8 12 -36t-14 -36q-99 6 -241 6t-251 -6q-14 8 -14 36t12 36l39 4q52 4 64 32t12 136z" />
    <glyph glyph-name="Lslash" unicode="&#x141;" horiz-adv-x="1210" 
d="M539 340q1 -152 29 -188t70 -47t136 -11t133 4t84 29t80 73t80 138q12 14 40 10t38 -22q-8 -76 -37 -182t-51 -150q-162 6 -473 6h-275q-133 0 -323 -6q-14 10 -17 36q-2 26 10 36l78 10q70 10 87 44t18 175v180l-168 -104q-16 12 -30 42q-13 30 -7 56l205 127v461
q0 141 -18 176t-87 45l-59 8q-16 8 -16 35t16 37q160 -6 309 -6t305 6q12 -10 12 -37t-12 -35l-53 -8q-70 -10 -87 -45t-17 -176v-281l241 150q23 -4 35 -34t8 -58l-284 -177v-317z" />
    <glyph glyph-name="lslash" unicode="&#x142;" horiz-adv-x="585" 
d="M434 238q0 -106 13 -134t67 -34l35 -4q12 -8 12 -36t-14 -36q-99 6 -241 6t-251 -6q-14 8 -14 36t12 36l39 4q51 4 64 31q12 28 12 137v403l-115 -57q-16 8 -25 37t-5 43l145 77v377q0 82 -6 107t-35 43l-35 20q-10 10 -10 30t10 32q109 25 314 114q23 0 34 -14
q-6 -127 -6 -299v-277l133 70q15 -8 25 -34t8 -48l-166 -90v-534z" />
    <glyph glyph-name="Nacute" unicode="&#x143;" horiz-adv-x="1531" 
d="M1057 1780q37 0 69 -64q64 -109 -45 -139l-401 -131q-33 12 -23 51l332 248q47 35 68 35zM1335 838v-490q0 -262 4 -330q-10 -18 -47 -32t-73 -15l-21 29q-58 89 -145 195l-473 585q-195 238 -224 262q-10 -20 -10 -131v-397q0 -299 31 -375q23 -51 119 -65l57 -8
q12 -12 11 -37t-11 -35q-167 6 -277 6t-227 -6q-10 10 -11 35t11 37l35 6q94 16 113 67q29 70 28 375v520q0 141 -14 174q-27 57 -117 70l-57 8q-12 12 -9 40t17 32q145 -6 267 -6t188 6q24 -98 206 -310q36 -42 132 -157l172 -203q158 -186 196 -225q8 20 8 92v283
q0 299 -30 374q-23 51 -119 66l-55 8q-12 12 -12 37q1 25 12 35q166 -6 274 -6t229 6q9 -10 11 -35t-11 -37l-36 -6q-88 -14 -111 -68q-31 -75 -31 -374z" />
    <glyph glyph-name="nacute" unicode="&#x144;" horiz-adv-x="1126" 
d="M874 1296q0 -31 -45 -75l-288 -285q-46 -6 -52 33l187 372q28 61 62 61t81 -32q55 -43 55 -74zM446 750q8 0 41 16q139 82 249 82t176 -74t67 -184v-352q0 -106 13 -134t69 -34l33 -4q12 -8 12 -36t-14 -36q-96 6 -238 6t-231 -6q-14 8 -15 36q0 28 13 36l36 6
q37 6 46 28t10 107v346q0 65 -35 105t-112 40t-111 -49q-16 -18 -17 -76v-366q0 -84 10 -109t50 -28l32 -4q12 -8 12 -36t-14 -36q-94 6 -228 6t-241 -6q-14 8 -14 36t12 36l33 4q55 6 69 33q13 29 13 135v309q0 67 -6 91t-33 40l-29 18q-10 8 -10 31t10 31q201 55 304 119
q25 0 36 -19l-6 -92q0 -16 8 -16z" />
    <glyph glyph-name="Ncommaaccent" unicode="&#x145;" horiz-adv-x="1531" 
d="M627 -228q1 54 35 84t94 31q60 0 113 -52q55 -52 55 -166q0 -115 -77 -189t-202 -98q-21 2 -27 30t9 37q53 21 99 65t46 91q0 76 -94 98q-51 15 -51 69zM1335 838v-490q0 -262 4 -330q-10 -18 -47 -32t-73 -15l-21 29q-58 89 -145 195l-473 585q-195 238 -224 262
q-10 -20 -10 -131v-397q0 -299 31 -375q23 -51 119 -65l57 -8q12 -12 11 -37t-11 -35q-167 6 -277 6t-227 -6q-10 10 -11 35t11 37l35 6q94 16 113 67q29 70 28 375v520q0 141 -14 174q-27 57 -117 70l-57 8q-12 12 -9 40t17 32q145 -6 267 -6t188 6q24 -98 206 -310
q36 -42 132 -157l172 -203q158 -186 196 -225q8 20 8 92v283q0 299 -30 374q-23 51 -119 66l-55 8q-12 12 -12 37q1 25 12 35q166 -6 274 -6t229 6q9 -10 11 -35t-11 -37l-36 -6q-88 -14 -111 -68q-31 -75 -31 -374z" />
    <glyph glyph-name="ncommaaccent" unicode="&#x146;" horiz-adv-x="1126" 
d="M548 -92q54 0 109 -52t55 -161t-74 -181q-75 -72 -194 -96q-20 2 -25 31t9 37q51 18 95 58t44 87q0 78 -90 103q-49 14 -49 64t33 80t87 30zM446 750q8 0 41 16q139 82 249 82t176 -74t67 -184v-352q0 -106 13 -134t69 -34l33 -4q12 -8 12 -36t-14 -36q-96 6 -238 6
t-231 -6q-14 8 -15 36q0 28 13 36l36 6q37 6 46 28t10 107v346q0 65 -35 105t-112 40t-111 -49q-16 -18 -17 -76v-366q0 -84 10 -109t50 -28l32 -4q12 -8 12 -36t-14 -36q-94 6 -228 6t-241 -6q-14 8 -14 36t12 36l33 4q55 6 69 33q13 29 13 135v309q0 67 -6 91t-33 40
l-29 18q-10 8 -10 31t10 31q201 55 304 119q25 0 36 -19l-6 -92q0 -16 8 -16z" />
    <glyph glyph-name="Ncaron" unicode="&#x147;" horiz-adv-x="1531" 
d="M477 1763l248 -102q41 -16 72 -2l245 104q14 0 22 -17t5 -36l-264 -240q-47 -41 -90 0l-262 240q-2 18 6 34t18 19zM1335 838v-490q0 -262 4 -330q-10 -18 -47 -32t-73 -15l-21 29q-58 89 -145 195l-473 585q-195 238 -224 262q-10 -20 -10 -131v-397q0 -299 31 -375
q23 -51 119 -65l57 -8q12 -12 11 -37t-11 -35q-167 6 -277 6t-227 -6q-10 10 -11 35t11 37l35 6q94 16 113 67q29 70 28 375v520q0 141 -14 174q-27 57 -117 70l-57 8q-12 12 -9 40t17 32q145 -6 267 -6t188 6q24 -98 206 -310q36 -42 132 -157l172 -203q158 -186 196 -225
q8 20 8 92v283q0 299 -30 374q-23 51 -119 66l-55 8q-12 12 -12 37q1 25 12 35q166 -6 274 -6t229 6q9 -10 11 -35t-11 -37l-36 -6q-88 -14 -111 -68q-31 -75 -31 -374z" />
    <glyph glyph-name="ncaron" unicode="&#x148;" horiz-adv-x="1126" 
d="M563 934q-33 0 -47 27l-217 391q14 33 59 37l164 -189q33 -39 42 -39t42 37l164 191q43 -4 57 -37l-217 -391q-14 -27 -47 -27zM446 750q8 0 41 16q139 82 249 82t176 -74t67 -184v-352q0 -106 13 -134t69 -34l33 -4q12 -8 12 -36t-14 -36q-96 6 -238 6t-231 -6
q-14 8 -15 36q0 28 13 36l36 6q37 6 46 28t10 107v346q0 65 -35 105t-112 40t-111 -49q-16 -18 -17 -76v-366q0 -84 10 -109t50 -28l32 -4q12 -8 12 -36t-14 -36q-94 6 -228 6t-241 -6q-14 8 -14 36t12 36l33 4q55 6 69 33q13 29 13 135v309q0 67 -6 91t-33 40l-29 18
q-10 8 -10 31t10 31q201 55 304 119q25 0 36 -19l-6 -92q0 -16 8 -16z" />
    <glyph glyph-name="Omacron" unicode="&#x14c;" horiz-adv-x="1613" 
d="M1085 1562q0 -52 -20 -77h-518q-18 25 -19 77q0 52 19 76h518q20 -24 20 -76zM1204 656q0 269 -110 452q-111 182 -296 182t-287 -157q-101 -158 -101 -399t85 -439q44 -104 131 -169t205 -65q190 0 282 163q91 163 91 432zM82 660q0 312 207 518t525 206t518 -196
t200 -516q0 -322 -203 -513t-526 -191t-522 190t-199 502z" />
    <glyph glyph-name="omacron" unicode="&#x14d;" horiz-adv-x="1056" 
d="M250 1090q0 49 18 73h518q20 -25 20 -73t-20 -74h-518q-18 25 -18 74zM528 754q-78 0 -124 -78t-46 -241t50 -266t137 -103q158 0 153 317q-2 159 -47 265t-123 106zM526 -29q-200 0 -330 110q-130 109 -132 315t138 329t333 123t325 -115t133 -325q0 -210 -134 -323
q-134 -114 -333 -114z" />
    <glyph glyph-name="Ohungarumlaut" unicode="&#x150;" horiz-adv-x="1613" 
d="M760 1802q31 0 78 -41t47 -84q0 -25 -68 -73l-217 -158q-12 0 -30 13q-17 14 -19 28l149 274q29 41 60 41zM1112 1802q30 0 74 -39q49 -47 49 -79t-66 -80l-217 -158q-12 0 -30 14t-19 27l150 274q29 41 59 41zM1204 656q0 269 -110 452q-111 182 -296 182t-287 -157
q-101 -158 -101 -399t85 -439q44 -104 131 -169t205 -65q190 0 282 163q91 163 91 432zM82 660q0 312 207 518t525 206t518 -196t200 -516q0 -322 -203 -513t-526 -191t-522 190t-199 502z" />
    <glyph glyph-name="ohungarumlaut" unicode="&#x151;" horiz-adv-x="1056" 
d="M829 1382q35 0 82 -32q55 -43 55 -72t-40 -80l-224 -283q-23 -5 -40 5t-19 28l131 371q20 63 55 63zM471 1382q35 0 82 -32q55 -43 55 -72t-41 -80l-225 -283q-51 -8 -57 33l131 371q20 63 55 63zM528 754q-78 0 -124 -78t-46 -241t50 -266t137 -103q158 0 153 317
q-2 159 -47 265t-123 106zM526 -29q-200 0 -330 110q-130 109 -132 315t138 329t333 123t325 -115t133 -325q0 -210 -134 -323q-134 -114 -333 -114z" />
    <glyph glyph-name="OE" unicode="&#x152;" horiz-adv-x="2084" 
d="M1104 248v827q0 84 -14 122q-26 71 -183 73q-235 0 -365 -170t-130 -417t133 -424t381 -177q96 0 137 34t41 132zM1681 1352q236 0 275 6l26 -318q-6 -16 -34 -19t-41 11q-37 119 -78 162q-63 63 -201 63h-164q-49 0 -58 -11t-9 -68v-359q0 -43 8 -52t49 -9h141
q82 0 110 19t42 93l10 52q10 12 39 12t37 -14q-6 -98 -6 -218t6 -217q-8 -14 -37 -15t-39 13l-10 52q-14 74 -43 94t-109 20h-141q-41 0 -49 -9t-8 -54v-244q1 -148 27 -186t70 -50t138 -12t130 5q38 5 85 28t81 71t77 134q12 16 41 12t35 -22q-6 -76 -35 -180t-51 -148
q-162 6 -473 6h-205l-434 -12q-383 0 -592 183t-209 487t223 505t629 201l397 -12h350z" />
    <glyph glyph-name="oe" unicode="&#x153;" horiz-adv-x="1515" 
d="M1077 575h90q55 -1 77 13t22 59t-32 76t-90 31t-110 -49q-53 -49 -53 -99q1 -20 21 -26t75 -5zM1425 485h-405q-39 0 -47 -6t-8 -35q1 -125 79 -212t212 -87t200 107q49 0 49 -47q-55 -121 -150 -177t-204 -57q-197 0 -311 133q-48 -59 -138 -96t-188 -37
q-188 0 -318 111q-130 110 -132 316t138 328t330 122q102 0 188 -41t132 -109q53 66 138 108t173 42q162 0 249 -85t87 -210q1 -33 -15 -51t-59 -17zM369 434q0 -164 50 -266t138 -102q160 0 156 317q-2 160 -48 265q-46 106 -125 106t-125 -78t-46 -242z" />
    <glyph glyph-name="Racute" unicode="&#x154;" horiz-adv-x="1359" 
d="M930 1780q37 0 69 -64q64 -109 -45 -139l-401 -131q-33 12 -23 51l332 248q47 35 68 35zM514 1159v-399q0 -54 18 -66t112 -12t161 66q65 66 65 208t-73 225q-74 83 -195 83q-64 0 -76 -16t-12 -89zM233 295v725q0 156 -13 194t-77 46l-55 8q-16 8 -15 36t19 35
q276 19 532 19t377 -74q180 -106 181 -303q0 -121 -62 -191t-155 -116q-25 -12 -11 -45q111 -225 180 -339q134 -221 275 -231q12 -8 14 -26t-6 -27q-43 -18 -172 -18q-255 0 -387 215q-78 129 -160 317q-33 72 -108 72q-52 0 -64 -7t-12 -38v-252q0 -139 17 -173t87 -46
l56 -10q10 -8 10 -35t-10 -37q-162 6 -301 6t-299 -6q-12 10 -13 37q0 27 13 35l55 10q70 12 87 46t17 173z" />
    <glyph glyph-name="racute" unicode="&#x155;" horiz-adv-x="759" 
d="M696 1296q0 -31 -45 -75l-289 -285q-45 -6 -51 33l187 372q28 61 62 61t81 -32q55 -43 55 -74zM172 233v310q0 67 -6 91t-33 40l-29 18q-10 8 -10 31t10 31q193 55 299 123q25 0 37 -19q-8 -82 -8 -88q0 -20 21 -25q10 7 72 55t117 48q56 0 90 -33t34 -93t-38 -94
t-86 -34t-87 37q-49 41 -78 41q-39 0 -39 -123v-316q0 -106 12 -134t64 -31l66 -7q12 -7 12 -35t-14 -36q-146 6 -282 6t-237 -6q-14 8 -14 36t12 35l39 5q51 4 64 31q12 27 12 136z" />
    <glyph glyph-name="Rcommaaccent" unicode="&#x156;" horiz-adv-x="1359" 
d="M557 -228q0 54 35 84q34 30 94 31q60 0 114 -52t54 -166q0 -115 -77 -189t-202 -98q-20 2 -26 30t8 37q53 21 99 65t46 91q0 76 -94 98q-51 15 -51 69zM514 1159v-399q0 -54 18 -66t112 -12t161 66q65 66 65 208t-73 225q-74 83 -195 83q-64 0 -76 -16t-12 -89zM233 295
v725q0 156 -13 194t-77 46l-55 8q-16 8 -15 36t19 35q276 19 532 19t377 -74q180 -106 181 -303q0 -121 -62 -191t-155 -116q-25 -12 -11 -45q111 -225 180 -339q134 -221 275 -231q12 -8 14 -26t-6 -27q-43 -18 -172 -18q-255 0 -387 215q-78 129 -160 317q-33 72 -108 72
q-52 0 -64 -7t-12 -38v-252q0 -139 17 -173t87 -46l56 -10q10 -8 10 -35t-10 -37q-162 6 -301 6t-299 -6q-12 10 -13 37q0 27 13 35l55 10q70 12 87 46t17 173z" />
    <glyph glyph-name="rcommaaccent" unicode="&#x157;" horiz-adv-x="759" 
d="M300 -92q54 0 110 -52t55 -161q0 -109 -75 -181t-193 -96q-20 2 -26 31q-5 29 9 37q51 18 95 58t44 87q0 78 -90 103q-49 14 -49 64t33 80t87 30zM172 233v310q0 67 -6 91t-33 40l-29 18q-10 8 -10 31t10 31q193 55 299 123q25 0 37 -19q-8 -82 -8 -88q0 -20 21 -25
q10 7 72 55t117 48q56 0 90 -33t34 -93t-38 -94t-86 -34t-87 37q-49 41 -78 41q-39 0 -39 -123v-316q0 -106 12 -134t64 -31l66 -7q12 -7 12 -35t-14 -36q-146 6 -282 6t-237 -6q-14 8 -14 36t12 35l39 5q51 4 64 31q12 27 12 136z" />
    <glyph glyph-name="Rcaron" unicode="&#x158;" horiz-adv-x="1359" 
d="M336 1763l260 -110q39 -18 76 0l258 110q14 0 22 -17t4 -36l-276 -240q-49 -43 -94 0l-277 240q-2 18 6 35q9 16 21 18zM514 1159v-399q0 -54 18 -66t112 -12t161 66q65 66 65 208t-73 225q-74 83 -195 83q-64 0 -76 -16t-12 -89zM233 295v725q0 156 -13 194t-77 46
l-55 8q-16 8 -15 36t19 35q276 19 532 19t377 -74q180 -106 181 -303q0 -121 -62 -191t-155 -116q-25 -12 -11 -45q111 -225 180 -339q134 -221 275 -231q12 -8 14 -26t-6 -27q-43 -18 -172 -18q-255 0 -387 215q-78 129 -160 317q-33 72 -108 72q-52 0 -64 -7t-12 -38v-252
q0 -139 17 -173t87 -46l56 -10q10 -8 10 -35t-10 -37q-162 6 -301 6t-299 -6q-12 10 -13 37q0 27 13 35l55 10q70 12 87 46t17 173z" />
    <glyph glyph-name="rcaron" unicode="&#x159;" horiz-adv-x="759" 
d="M412 934q-33 0 -47 27l-218 391q14 33 60 37l164 -189q33 -39 42 -39t42 37l163 191q44 -4 58 -37l-217 -391q-14 -27 -47 -27zM172 233v310q0 67 -6 91t-33 40l-29 18q-10 8 -10 31t10 31q193 55 299 123q25 0 37 -19q-8 -82 -8 -88q0 -20 21 -25q10 7 72 55t117 48
q56 0 90 -33t34 -93t-38 -94t-86 -34t-87 37q-49 41 -78 41q-39 0 -39 -123v-316q0 -106 12 -134t64 -31l66 -7q12 -7 12 -35t-14 -36q-146 6 -282 6t-237 -6q-14 8 -14 36t12 35l39 5q51 4 64 31q12 27 12 136z" />
    <glyph glyph-name="Sacute" unicode="&#x15a;" horiz-adv-x="1036" 
d="M788 1780q37 0 70 -64q64 -109 -45 -139l-401 -131q-33 12 -23 51l332 248q47 35 67 35zM977 383q0 -188 -141 -302q-142 -114 -364 -114t-359 78q-29 33 -47 129t-19 203q10 20 38 21t40 -15q37 -117 135 -219t210 -102t170 60q58 62 58 146q0 186 -278 326
q-309 156 -309 399q-2 176 126 284t349 107q125 0 233 -32q35 -10 70 -17q37 -100 37 -293q-8 -18 -37 -20t-43 14q-33 98 -102 176t-168 78t-154 -55t-55 -129t52 -135t134 -105l135 -71q289 -154 289 -412z" />
    <glyph glyph-name="sacute" unicode="&#x15b;" horiz-adv-x="733" 
d="M558 1380q34 0 81 -32q55 -43 55 -74t-45 -76l-289 -285q-45 -6 -51 33l187 373q28 61 62 61zM326 -29q-162 0 -244 64q-39 72 -33 231q8 14 35 16t35 -12q25 -76 81 -140t128 -64q46 0 76 28t30 78q0 86 -135 154q-211 104 -211 258q0 128 92 196t234 68q72 0 135 -14
t84 -29q31 -68 31 -205q-6 -16 -35 -18t-37 10q-55 162 -160 162q-45 0 -74 -25t-28 -65q0 -68 131 -132q225 -109 225 -286q-2 -131 -100 -203t-260 -72z" />
    <glyph glyph-name="Scedilla" unicode="&#x15e;" horiz-adv-x="1036" 
d="M461 -33q-211 0 -348 78q-29 33 -47 129t-19 203q10 20 38 21t40 -15q37 -117 135 -219t210 -102t170 60q58 62 58 146q0 186 -278 326q-309 156 -309 399q-2 176 126 284t349 107q125 0 233 -32q35 -10 70 -17q37 -100 37 -293q-8 -18 -37 -20t-43 14q-33 98 -102 176
t-168 78t-154 -55t-55 -129t52 -135t134 -105l135 -71q289 -154 289 -412q-1 -157 -103 -265t-278 -138l-55 -76q-12 -14 -10 -22q3 -7 26 -17q113 -61 113 -158q0 -74 -71 -123t-165 -49q-141 0 -141 82q0 25 16 43t43 18t67 -34t57 -33q17 0 33 12q15 12 15 33
q0 76 -139 133l-6 14l113 166q-8 -2 -31 -2z" />
    <glyph glyph-name="scedilla" unicode="&#x15f;" horiz-adv-x="733" 
d="M434 172q0 86 -135 154q-211 104 -211 258q0 128 92 196t234 68q72 0 135 -14t84 -29q31 -68 31 -205q-6 -16 -35 -18t-37 10q-55 162 -160 162q-45 0 -74 -25t-28 -65q0 -68 131 -132q225 -109 225 -286q-2 -106 -66 -173t-174 -89l-65 -90q-12 -16 -8 -24t26 -20
q125 -68 125 -174q0 -82 -78 -136t-182 -54q-158 0 -158 90q0 29 18 48q18 20 49 20q30 0 74 -38t63 -38t37 14q17 14 18 37q0 82 -156 148l-6 16l129 188q-168 0 -250 64q-39 72 -33 231q8 14 35 16t35 -12q25 -76 81 -140t128 -64q46 0 76 28t30 78z" />
    <glyph glyph-name="Scaron" unicode="&#x160;" horiz-adv-x="1036" 
d="M246 1763l248 -102q41 -16 71 -2l246 104q15 0 23 -17t4 -36l-265 -240q-47 -41 -90 0l-262 240q-1 18 7 34t18 19zM977 383q0 -188 -141 -302q-142 -114 -364 -114t-359 78q-29 33 -47 129t-19 203q10 20 38 21t40 -15q37 -117 135 -219t210 -102t170 60q58 62 58 146
q0 186 -278 326q-309 156 -309 399q-2 176 126 284t349 107q125 0 233 -32q35 -10 70 -17q37 -100 37 -293q-8 -18 -37 -20t-43 14q-33 98 -102 176t-168 78t-154 -55t-55 -129t52 -135t134 -105l135 -71q289 -154 289 -412z" />
    <glyph glyph-name="scaron" unicode="&#x161;" horiz-adv-x="733" 
d="M406 934q-33 0 -48 27l-217 391q14 33 60 37l164 -189q33 -39 41 -39t43 37l163 191q44 -4 58 -37l-217 -391q-14 -27 -47 -27zM326 -29q-162 0 -244 64q-39 72 -33 231q8 14 35 16t35 -12q25 -76 81 -140t128 -64q46 0 76 28t30 78q0 86 -135 154q-211 104 -211 258
q0 128 92 196t234 68q72 0 135 -14t84 -29q31 -68 31 -205q-6 -16 -35 -18t-37 10q-55 162 -160 162q-45 0 -74 -25t-28 -65q0 -68 131 -132q225 -109 225 -286q-2 -131 -100 -203t-260 -72z" />
    <glyph glyph-name="Tcommaaccent" unicode="&#x162;" horiz-adv-x="1320" 
d="M522 -228q0 54 35 84t95 31q60 0 113 -52q54 -52 54 -166q0 -115 -77 -189t-201 -98q-21 2 -27 30t8 37q54 21 100 65t46 91q0 76 -95 98q-51 15 -51 69zM522 295v903q0 39 -7 49t-42 10h-127q-104 0 -152 -51t-102 -180q-18 -10 -43 -5t-33 23q43 152 68 349
q14 10 30 10t27 -8q8 -29 35 -36t137 -7h762q106 0 139 7t46 38q12 6 29 6t28 -14q-39 -131 -31 -353q-8 -14 -38 -16t-38 10q-16 61 -27 93t-35 68q-44 66 -155 66h-123q-37 0 -46 -10t-9 -49v-903q-1 -141 17 -175t88 -44l81 -10q11 -8 11 -35t-11 -37q-199 6 -329 6
t-346 -6q-12 10 -13 36q0 26 13 36l92 10q70 8 87 43t17 176z" />
    <glyph glyph-name="tcommaaccent" unicode="&#x163;" horiz-adv-x="661" 
d="M378 -92q54 0 109 -52t55 -161t-74 -181q-75 -72 -194 -96q-20 2 -25 31t9 37q51 18 95 58t44 87q0 78 -90 103q-49 14 -49 64t33 80t87 30zM453 709q-21 1 -25 -7t-4 -40v-308q0 -152 34 -196q34 -45 109 -45q39 0 86 30q35 -10 29 -53q-47 -49 -126 -84t-169 -35
q-229 0 -229 234v457q0 34 -6 40t-33 7h-64q-16 5 -20 29t8 34q68 25 170 92q80 57 152 160q9 6 31 4t30 -14v-154q0 -29 5 -35t34 -6h182q17 -12 17 -53t-27 -57h-184z" />
    <glyph glyph-name="Tcaron" unicode="&#x164;" horiz-adv-x="1320" 
d="M383 1763l248 -102q41 -16 71 -2l246 104q14 0 22 -17t5 -36l-264 -240q-47 -41 -90 0l-263 240q-2 18 6 34t19 19zM522 295v903q0 39 -7 49t-42 10h-127q-104 0 -152 -51t-102 -180q-18 -10 -43 -5t-33 23q43 152 68 349q14 10 30 10t27 -8q8 -29 35 -36t137 -7h762
q106 0 139 7t46 38q12 6 29 6t28 -14q-39 -131 -31 -353q-8 -14 -38 -16t-38 10q-16 61 -27 93t-35 68q-44 66 -155 66h-123q-37 0 -46 -10t-9 -49v-903q-1 -141 17 -175t88 -44l81 -10q11 -8 11 -35t-11 -37q-199 6 -329 6t-346 -6q-12 10 -13 36q0 26 13 36l92 10
q70 8 87 43t17 176z" />
    <glyph glyph-name="tcaron" unicode="&#x165;" horiz-adv-x="661" 
d="M541 1372q0 20 51 56t95 36t44 -102t-44 -200t-105 -163q-18 -5 -34 7t-11 26q53 131 53 215q0 37 -31 76q-18 29 -18 49zM453 709q-21 1 -25 -7t-4 -40v-308q0 -152 34 -196q34 -45 109 -45q39 0 86 30q35 -10 29 -53q-47 -49 -126 -84t-169 -35q-229 0 -229 234v457
q0 34 -6 40t-33 7h-64q-16 5 -20 29t8 34q68 25 170 92q80 57 152 160q9 6 31 4t30 -14v-154q0 -29 5 -35t34 -6h182q17 -12 17 -53t-27 -57h-184z" />
    <glyph glyph-name="Umacron" unicode="&#x16a;" horiz-adv-x="1515" 
d="M1073 1566q0 -56 -20 -81h-518q-18 25 -19 77q0 52 19 76h518q20 -16 20 -72zM223 545v512q0 139 -16 173t-88 48l-51 10q-12 8 -13 35q0 27 17 35q147 -6 299 -6t299 6q12 -10 12 -35t-12 -35l-49 -8q-70 -12 -87 -47t-18 -176v-473q0 -290 84 -398q36 -46 100 -76
t154 -30q342 0 342 510v248q0 303 -31 374q-20 47 -118 66l-56 10q-12 12 -11 36t11 34q166 -6 277 -6t227 6q10 -10 11 -34t-11 -36l-37 -8q-90 -20 -110 -68q-31 -72 -31 -374v-230q0 -168 -27 -288t-104 -205q-138 -147 -404 -147t-412 119q-146 120 -147 458z" />
    <glyph glyph-name="umacron" unicode="&#x16b;" horiz-adv-x="1114" 
d="M279 1102q0 49 18 74h518q20 -16 20 -70t-20 -78h-518q-18 25 -18 74zM965 643v-373q0 -98 10 -136t44 -38t83 17q14 -2 13 -41t-19 -47q-113 -4 -189 -23q-75 -18 -111 -28t-59 -15l-20 -8q-20 2 -25 24q6 37 6 65t-22 30q-53 -34 -82 -50q-87 -47 -205 -48
q-231 -2 -231 261v349q0 78 -12 100t-50 33l-26 8q-10 14 -9 38q2 24 17 34q170 6 229 23q58 18 77 24t22 6q20 0 24 -25q-6 -78 -6 -180v-338q0 -90 28 -137t100 -47t124 39q23 16 22 61v387q0 62 -16 82t-72 29l-28 4q-12 10 -11 38q2 28 21 34q216 10 333 47q22 6 25 6
q16 0 21 -25q-6 -110 -6 -180z" />
    <glyph glyph-name="Uring" unicode="&#x16e;" horiz-adv-x="1515" 
d="M815 1489q43 0 68 36t24 89q0 53 -24 90q-25 37 -68 37t-67 -37t-25 -90q1 -53 25 -89t67 -36zM815 1411q-94 0 -152 60q-59 59 -59 141t58 142t153 60t153 -60t58 -141t-58 -142q-59 -60 -153 -60zM223 545v512q0 139 -16 173t-88 48l-51 10q-12 8 -13 35q0 27 17 35
q147 -6 299 -6t299 6q12 -10 12 -35t-12 -35l-49 -8q-70 -12 -87 -47t-18 -176v-473q0 -290 84 -398q36 -46 100 -76t154 -30q342 0 342 510v248q0 303 -31 374q-20 47 -118 66l-56 10q-12 12 -11 36t11 34q166 -6 277 -6t227 6q10 -10 11 -34t-11 -36l-37 -8
q-90 -20 -110 -68q-31 -72 -31 -374v-230q0 -168 -27 -288t-104 -205q-138 -147 -404 -147t-412 119q-146 120 -147 458z" />
    <glyph glyph-name="uring" unicode="&#x16f;" horiz-adv-x="1114" 
d="M557 1014q45 0 72 36t26 89q0 53 -26 90q-27 37 -72 37t-72 -37t-27 -90t28 -89q26 -36 71 -36zM558 936q-99 0 -161 60q-61 60 -61 142t61 141q61 60 161 60t160 -59t60 -141t-60 -143q-61 -60 -160 -60zM965 643v-373q0 -98 10 -136t44 -38t83 17q14 -2 13 -41t-19 -47
q-113 -4 -189 -23q-75 -18 -111 -28t-59 -15l-20 -8q-20 2 -25 24q6 37 6 65t-22 30q-53 -34 -82 -50q-87 -47 -205 -48q-231 -2 -231 261v349q0 78 -12 100t-50 33l-26 8q-10 14 -9 38q2 24 17 34q170 6 229 23q58 18 77 24t22 6q20 0 24 -25q-6 -78 -6 -180v-338
q0 -90 28 -137t100 -47t124 39q23 16 22 61v387q0 62 -16 82t-72 29l-28 4q-12 10 -11 38q2 28 21 34q216 10 333 47q22 6 25 6q16 0 21 -25q-6 -110 -6 -180z" />
    <glyph glyph-name="Uhungarumlaut" unicode="&#x170;" horiz-adv-x="1515" 
d="M752 1802q32 0 78 -41t47 -84q0 -25 -68 -73l-217 -158q-12 0 -30 13q-17 14 -19 28l149 274q29 41 60 41zM1103 1802q30 0 75 -39q49 -47 49 -79t-66 -80l-217 -158q-12 0 -30 13q-17 14 -19 28l149 274q29 41 59 41zM223 545v512q0 139 -16 173t-88 48l-51 10
q-12 8 -13 35q0 27 17 35q147 -6 299 -6t299 6q12 -10 12 -35t-12 -35l-49 -8q-70 -12 -87 -47t-18 -176v-473q0 -290 84 -398q36 -46 100 -76t154 -30q342 0 342 510v248q0 303 -31 374q-20 47 -118 66l-56 10q-12 12 -11 36t11 34q166 -6 277 -6t227 6q10 -10 11 -34
t-11 -36l-37 -8q-90 -20 -110 -68q-31 -72 -31 -374v-230q0 -168 -27 -288t-104 -205q-138 -147 -404 -147t-412 119q-146 120 -147 458z" />
    <glyph glyph-name="uhungarumlaut" unicode="&#x171;" horiz-adv-x="1114" 
d="M995 1288q0 -29 -41 -80l-223 -282q-23 -4 -40 5t-19 27l131 371q20 63 55 63t82 -32q55 -43 55 -72zM637 1288q0 -29 -41 -80l-225 -282q-52 -9 -58 32l131 371q20 63 56 63t82 -32q55 -43 55 -72zM965 643v-373q0 -98 10 -136t44 -38t83 17q14 -2 13 -41t-19 -47
q-113 -4 -189 -23q-75 -18 -111 -28t-59 -15l-20 -8q-20 2 -25 24q6 37 6 65t-22 30q-53 -34 -82 -50q-87 -47 -205 -48q-231 -2 -231 261v349q0 78 -12 100t-50 33l-26 8q-10 14 -9 38q2 24 17 34q170 6 229 23q58 18 77 24t22 6q20 0 24 -25q-6 -78 -6 -180v-338
q0 -90 28 -137t100 -47t124 39q23 16 22 61v387q0 62 -16 82t-72 29l-28 4q-12 10 -11 38q2 28 21 34q216 10 333 47q22 6 25 6q16 0 21 -25q-6 -110 -6 -180z" />
    <glyph glyph-name="Uogonek" unicode="&#x172;" horiz-adv-x="1515" 
d="M223 545v512q0 139 -16 173t-88 48l-51 10q-12 8 -13 35q0 27 17 35q147 -6 299 -6t299 6q12 -10 12 -35t-12 -35l-49 -8q-70 -12 -87 -47t-18 -176v-473q0 -290 84 -398q36 -46 100 -76t154 -30q188 0 265 128t77 382v248q0 303 -31 374q-20 47 -118 66l-56 10
q-12 12 -11 36t11 34q166 -6 277 -6t227 6q10 -10 11 -34t-11 -36l-37 -8q-90 -20 -110 -68q-31 -72 -31 -374v-230q0 -400 -190 -539q-25 -19 -53 -35t-34 -22q-129 -104 -129 -233q0 -51 32 -85t77 -34t115 27q18 -6 18 -45q-37 -49 -101 -81t-148 -32q-83 0 -133 55
t-50 123q0 123 194 279q-57 -18 -135 -19q-264 0 -410 120t-147 458z" />
    <glyph glyph-name="uogonek" unicode="&#x173;" horiz-adv-x="1114" 
d="M897 -251q0 -122 113 -122q57 0 106 23q20 -6 21 -39q-76 -113 -217 -113q-113 0 -162 54t-49 131q0 160 249 327q-129 -23 -208 -49l-33 -10q-20 2 -25 24q6 37 6 65t-22 30q-53 -34 -82 -50q-87 -47 -205 -48q-231 -2 -231 261v349q0 78 -12 100t-50 33l-26 8
q-10 14 -9 38q2 24 17 34q170 6 229 23q58 18 77 24t22 6q20 0 24 -25q-6 -78 -6 -180v-338q0 -90 28 -137t100 -47t124 39q23 16 22 61v387q0 62 -16 82t-72 29l-28 4q-12 10 -11 38q2 28 21 34q216 10 333 47q22 6 25 6q16 0 21 -25q-6 -110 -6 -180v-373q0 -98 10 -136
t44 -38t83 17q14 -2 13 -41t-19 -47q-23 0 -33 -2q-72 -55 -119 -137t-47 -137z" />
    <glyph glyph-name="Ydieresis" unicode="&#x178;" horiz-adv-x="1177" 
d="M874 1458q-53 0 -88 31t-36 88q0 57 35 94q36 37 89 37q52 0 88 -36t36 -89t-36 -89q-35 -36 -88 -36zM446 1458q-53 0 -88 31t-36 88q0 57 35 94q36 37 89 37q52 0 88 -36t36 -89t-36 -89q-35 -36 -88 -36zM752 438v-143q0 -141 17 -175t87 -44l82 -10q10 -10 10 -36
t-10 -36q-201 6 -336 6t-317 -6q-12 10 -13 36q0 26 13 36l69 10q70 10 87 45t18 174v102q0 82 -9 124t-47 120l-243 504q-35 69 -58 95t-73 34l-70 12q-14 12 -12 40t20 32q139 -6 311 -6t277 6q14 -6 16 -33t-12 -39l-70 -16q-49 -10 -49 -19q0 -25 54 -143l96 -219
q44 -96 69 -147q26 -50 33 -66q30 47 152 290t123 279q0 18 -82 33l-39 8q-12 8 -12 36t14 36q124 -6 232 -6t198 6q18 -6 19 -34t-11 -38l-53 -10q-78 -12 -107 -49q-59 -74 -178 -291l-129 -234q-41 -74 -54 -126t-13 -138z" />
    <glyph glyph-name="Zacute" unicode="&#x179;" horiz-adv-x="1257" 
d="M938 1796q39 0 74 -65q35 -57 20 -95q-8 -33 -67 -53l-422 -137q-13 4 -21 20t-4 33l350 260q51 37 70 37zM737 1257h-221q-212 0 -279 -95q-32 -44 -71 -140q-20 -12 -47 -7t-37 21q37 139 80 363q6 6 23 6t30 -4q10 -33 37 -41t137 -8h586q188 0 239 6q16 -10 13 -31
q-76 -80 -307 -438l-224 -346q-27 -41 -140 -219t-118 -203q0 -27 189 -27h190q158 0 230 45t153 213q18 12 44 7t36 -21q-10 -86 -38 -197t-52 -147q-258 6 -428 6h-516q-158 0 -207 -6q-25 10 -16 35q23 25 188 274l403 615q190 295 193 327q0 12 -70 12z" />
    <glyph glyph-name="zacute" unicode="&#x17a;" horiz-adv-x="849" 
d="M626 1382q34 0 81 -32q55 -43 55 -74t-45 -76l-289 -285q-45 -6 -51 33l186 373q29 61 63 61zM457 0h-199q-150 0 -199 -6q-23 8 -14 33q94 141 180 295l191 337q23 43 22 60q0 10 -57 10h-64q-113 0 -145 -39q-39 -39 -66 -119q-14 -12 -40 -6t-33 23q27 178 63 270
q8 8 22 8t21 -8q3 -27 21 -33t94 -6h369q133 0 170 6q16 -8 12 -26q-18 -25 -146 -240l-219 -373q-37 -63 -37 -84q0 -12 82 -12h50q150 0 192 70q23 31 61 110q12 12 39 8t35 -18q-4 -57 -31 -146t-47 -120q-251 6 -327 6z" />
    <glyph glyph-name="Zdotaccent" unicode="&#x17b;" horiz-adv-x="1257" 
d="M691 1458q-56 0 -94 33t-40 92q0 59 39 98t94 39t93 -37t38 -93t-37 -94t-93 -38zM737 1257h-221q-212 0 -279 -95q-32 -44 -71 -140q-20 -12 -47 -7t-37 21q37 139 80 363q6 6 23 6t30 -4q10 -33 37 -41t137 -8h586q188 0 239 6q16 -10 13 -31q-76 -80 -307 -438
l-224 -346q-27 -41 -140 -219t-118 -203q0 -27 189 -27h190q158 0 230 45t153 213q18 12 44 7t36 -21q-10 -86 -38 -197t-52 -147q-258 6 -428 6h-516q-158 0 -207 -6q-25 10 -16 35q23 25 188 274l403 615q190 295 193 327q0 12 -70 12z" />
    <glyph glyph-name="zdotaccent" unicode="&#x17c;" horiz-adv-x="849" 
d="M442 997q-55 0 -91 32t-38 89q0 57 37 94t91 37t90 -36t36 -90t-35 -90t-90 -36zM457 0h-199q-150 0 -199 -6q-23 8 -14 33q94 141 180 295l191 337q23 43 22 60q0 10 -57 10h-64q-113 0 -145 -39q-39 -39 -66 -119q-14 -12 -40 -6t-33 23q27 178 63 270q8 8 22 8t21 -8
q3 -27 21 -33t94 -6h369q133 0 170 6q16 -8 12 -26q-18 -25 -146 -240l-219 -373q-37 -63 -37 -84q0 -12 82 -12h50q150 0 192 70q23 31 61 110q12 12 39 8t35 -18q-4 -57 -31 -146t-47 -120q-251 6 -327 6z" />
    <glyph glyph-name="Zcaron" unicode="&#x17d;" horiz-adv-x="1257" 
d="M422 1763l248 -102q41 -16 71 -2l246 104q15 0 23 -17t4 -36l-264 -240q-47 -41 -91 0l-262 240q-1 18 7 34t18 19zM737 1257h-221q-212 0 -279 -95q-32 -44 -71 -140q-20 -12 -47 -7t-37 21q37 139 80 363q6 6 23 6t30 -4q10 -33 37 -41t137 -8h586q188 0 239 6
q16 -10 13 -31q-76 -80 -307 -438l-224 -346q-27 -41 -140 -219t-118 -203q0 -27 189 -27h190q158 0 230 45t153 213q18 12 44 7t36 -21q-10 -86 -38 -197t-52 -147q-258 6 -428 6h-516q-158 0 -207 -6q-25 10 -16 35q23 25 188 274l403 615q190 295 193 327q0 12 -70 12z
" />
    <glyph glyph-name="zcaron" unicode="&#x17e;" horiz-adv-x="849" 
d="M438 934q-33 0 -47 27l-217 391q14 33 59 37l164 -189q33 -39 41 -39t43 37l164 191q43 -4 57 -37l-217 -391q-14 -27 -47 -27zM457 0h-199q-150 0 -199 -6q-23 8 -14 33q94 141 180 295l191 337q23 43 22 60q0 10 -57 10h-64q-113 0 -145 -39q-39 -39 -66 -119
q-14 -12 -40 -6t-33 23q27 178 63 270q8 8 22 8t21 -8q3 -27 21 -33t94 -6h369q133 0 170 6q16 -8 12 -26q-18 -25 -146 -240l-219 -373q-37 -63 -37 -84q0 -12 82 -12h50q150 0 192 70q23 31 61 110q12 12 39 8t35 -18q-4 -57 -31 -146t-47 -120q-251 6 -327 6z" />
    <glyph glyph-name="florin" unicode="&#x192;" horiz-adv-x="1064" 
d="M848 1427q90 -1 133 -29t43 -74t-39 -86t-76 -40t-57 37q-47 84 -86 84q-63 0 -143 -445h231q14 -8 8 -40t-28 -52h-228q-22 -112 -62 -352t-93 -366t-152 -214q-106 -100 -254 -100q-76 0 -114 39q-37 39 -37 94t14 90t36 35t56 -39q96 -102 135 -102q33 0 49 92
q31 172 76 444t64 379h-181q-10 14 -4 49q7 35 25 43h174q33 168 86 274t164 193q111 86 260 86z" />
    <glyph glyph-name="Scommaaccent" unicode="&#x218;" horiz-adv-x="1036" 
d="M488 -113q60 0 113 -52q54 -52 54 -166q-1 -115 -77 -189t-201 -98q-21 2 -27 30t8 37q54 21 100 65t46 91q0 76 -94 98q-52 15 -52 69t35 84t95 31zM977 383q0 -188 -141 -302q-142 -114 -364 -114t-359 78q-29 33 -47 129t-19 203q10 20 38 21t40 -15q37 -117 135 -219
t210 -102t170 60q58 62 58 146q0 186 -278 326q-309 156 -309 399q-2 176 126 284t349 107q125 0 233 -32q35 -10 70 -17q37 -100 37 -293q-8 -18 -37 -20t-43 14q-33 98 -102 176t-168 78t-154 -55t-55 -129t52 -135t134 -105l135 -71q289 -154 289 -412z" />
    <glyph glyph-name="scommaaccent" unicode="&#x219;" horiz-adv-x="733" 
d="M331 -92q54 0 109 -52q56 -52 56 -161t-75 -181t-194 -96q-20 2 -25 31t9 37q51 18 95 58t44 87q0 78 -90 103q-49 14 -49 64t33 80t87 30zM326 -29q-162 0 -244 64q-39 72 -33 231q8 14 35 16t35 -12q25 -76 81 -140t128 -64q46 0 76 28t30 78q0 86 -135 154
q-211 104 -211 258q0 128 92 196t234 68q72 0 135 -14t84 -29q31 -68 31 -205q-6 -16 -35 -18t-37 10q-55 162 -160 162q-45 0 -74 -25t-28 -65q0 -68 131 -132q225 -109 225 -286q-2 -131 -100 -203t-260 -72z" />
    <glyph glyph-name="uni021A" unicode="&#x21a;" horiz-adv-x="1320" 
d="M522 -228q0 54 35 84t95 31q60 0 113 -52q54 -52 54 -166q0 -115 -77 -189t-201 -98q-21 2 -27 30t8 37q54 21 100 65t46 91q0 76 -95 98q-51 15 -51 69zM522 295v903q0 39 -7 49t-42 10h-127q-104 0 -152 -51t-102 -180q-18 -10 -43 -5t-33 23q43 152 68 349
q14 10 30 10t27 -8q8 -29 35 -36t137 -7h762q106 0 139 7t46 38q12 6 29 6t28 -14q-39 -131 -31 -353q-8 -14 -38 -16t-38 10q-16 61 -27 93t-35 68q-44 66 -155 66h-123q-37 0 -46 -10t-9 -49v-903q-1 -141 17 -175t88 -44l81 -10q11 -8 11 -35t-11 -37q-199 6 -329 6
t-346 -6q-12 10 -13 36q0 26 13 36l92 10q70 8 87 43t17 176z" />
    <glyph glyph-name="uni021B" unicode="&#x21b;" horiz-adv-x="661" 
d="M378 -92q54 0 109 -52t55 -161t-74 -181q-75 -72 -194 -96q-20 2 -25 31t9 37q51 18 95 58t44 87q0 78 -90 103q-49 14 -49 64t33 80t87 30zM453 709q-21 1 -25 -7t-4 -40v-308q0 -152 34 -196q34 -45 109 -45q39 0 86 30q35 -10 29 -53q-47 -49 -126 -84t-169 -35
q-229 0 -229 234v457q0 34 -6 40t-33 7h-64q-16 5 -20 29t8 34q68 25 170 92q80 57 152 160q9 6 31 4t30 -14v-154q0 -29 5 -35t34 -6h182q17 -12 17 -53t-27 -57h-184z" />
    <glyph glyph-name="circumflex" unicode="&#x2c6;" horiz-adv-x="778" 
d="M387 1149q-6 0 -41 -37l-164 -180q-43 4 -57 37l217 391q14 26 47 26t47 -26l217 -391q-14 -33 -59 -37l-164 178q-37 39 -43 39z" />
    <glyph glyph-name="caron" unicode="&#x2c7;" horiz-adv-x="778" 
d="M389 934q-33 0 -47 27l-217 391q14 33 59 37l164 -179q37 -39 43 -39t41 37l164 181q43 -4 57 -37l-217 -391q-14 -27 -47 -27z" />
    <glyph glyph-name="uni02C9" unicode="&#x2c9;" horiz-adv-x="778" 
d="M111 1099q0 48 18 72h518q20 -25 20 -73t-20 -72h-518q-18 25 -18 73z" />
    <glyph glyph-name="breve" unicode="&#x2d8;" horiz-adv-x="778" 
d="M389 999q-125 0 -189 82t-59 234q11 8 31 8t31 -8q14 -68 66 -110t121 -42t120 39t65 113q11 8 31 8t31 -8q5 -152 -59 -234t-189 -82z" />
    <glyph glyph-name="dotaccent" unicode="&#x2d9;" horiz-adv-x="778" 
d="M391 1008q-55 0 -91 32t-38 88q0 56 37 94t91 38t90 -36t36 -90t-35 -90t-90 -36z" />
    <glyph glyph-name="ring" unicode="&#x2da;" horiz-adv-x="778" 
d="M389 1018q45 0 72 36t26 89q0 53 -26 90q-27 37 -72 37t-72 -37t-27 -90t28 -89q26 -36 71 -36zM390 940q-99 0 -161 60q-61 60 -61 142t61 141q61 60 161 60t160 -59t60 -141t-60 -143q-61 -60 -160 -60z" />
    <glyph glyph-name="ogonek" unicode="&#x2db;" horiz-adv-x="778" 
d="M367 -254q0 -119 110 -119q51 0 109 23q20 -6 20 -39q-76 -113 -223 -113q-109 0 -157 54t-48 134q0 78 64 156t221 189h76q-88 -88 -130 -154t-42 -131z" />
    <glyph glyph-name="tilde" unicode="&#x2dc;" horiz-adv-x="778" 
d="M471 1055h-115q-119 0 -176 -101q-8 -6 -33 -3t-30 16q39 121 84 178q47 57 125 57h114q68 0 103 18t57 78q12 4 34 1t28 -11q-18 -102 -68 -176q-39 -57 -123 -57z" />
    <glyph glyph-name="hungarumlaut" unicode="&#x2dd;" horiz-adv-x="778" 
d="M827 1298q0 -29 -41 -79l-223 -283q-23 -4 -40 6t-19 27l131 370q20 63 55 63t82 -32q55 -43 55 -72zM469 1298q0 -29 -41 -79l-225 -283q-52 -8 -58 33l131 370q20 63 56 63t82 -32q55 -43 55 -72z" />
    <glyph glyph-name="pi" unicode="&#x3c0;" horiz-adv-x="1103" 
d="M342 819h444q203 0 236 19q18 9 18 -17q0 -47 -20 -99t-49 -71q-31 -18 -140 -18q-39 -145 -41 -263q-3 -218 93 -218q57 0 114 67q21 25 41 15t9 -48q-76 -215 -283 -215q-182 0 -182 213q0 148 125 449h-261q-51 -330 -84 -473q-43 -188 -149 -189q-113 0 -111 111
q0 37 41 65q131 90 197 486q-205 0 -264 -86q-10 -16 -24 -13q-13 4 -17 38t20 102q25 68 91 106t196 39z" />
    <glyph glyph-name="uni2010" unicode="&#x2010;" horiz-adv-x="671" 
d="M61 398q0 48 31 87l490 45q28 -33 28 -83t-26 -82l-492 -46q-31 31 -31 79z" />
    <glyph glyph-name="figuredash" unicode="&#x2012;" horiz-adv-x="1064" 
d="M86 715h893v-142h-893v142z" />
    <glyph glyph-name="endash" unicode="&#x2013;" horiz-adv-x="1024" 
d="M0 496h1024v-142h-1024v142z" />
    <glyph glyph-name="emdash" unicode="&#x2014;" horiz-adv-x="2048" 
d="M0 496h2048v-142h-2048v142z" />
    <glyph glyph-name="quoteleft" unicode="&#x2018;" horiz-adv-x="518" 
d="M276 848q-66 0 -131 63q-63 63 -63 193t93 220q93 91 231 122q26 -2 32 -28t-12 -36q-68 -24 -121 -74t-53 -116q0 -98 113 -127q61 -19 61 -81t-42 -99t-108 -37z" />
    <glyph glyph-name="quoteright" unicode="&#x2019;" horiz-adv-x="518" 
d="M242 1434q66 0 130 -64t64 -192t-93 -220t-230 -122q-25 2 -32 28t11 35q68 25 121 75t53 116q0 98 -112 127q-62 19 -62 81t42 99t108 37z" />
    <glyph glyph-name="quotesinglbase" unicode="&#x201a;" horiz-adv-x="518" 
d="M242 348q66 0 131 -64q63 -65 63 -196t-92 -218t-231 -120q-25 2 -32 28t11 36q68 24 121 74t53 116q0 98 -112 127q-62 19 -62 81t42 99t108 37z" />
    <glyph glyph-name="quotedblleft" unicode="&#x201c;" horiz-adv-x="966" 
d="M874 984q0 -62 -42 -99t-108 -37t-130 63t-64 193t94 220q94 91 230 122q25 -2 32 -28t-12 -36q-68 -24 -120 -74t-54 -116q0 -98 113 -127q61 -19 61 -81zM276 848q-66 0 -131 63q-63 63 -63 193t93 220q93 91 231 122q26 -2 32 -28t-12 -36q-68 -24 -121 -74t-53 -116
q0 -98 113 -127q61 -19 61 -81t-42 -99t-108 -37z" />
    <glyph glyph-name="quotedblright" unicode="&#x201d;" horiz-adv-x="966" 
d="M692 1434q66 0 129 -64t63 -192t-92 -220q-93 -92 -231 -122q-25 2 -32 28t12 35q68 25 121 75t53 116q0 98 -113 127q-61 19 -61 81t42 99q43 37 109 37zM242 1434q66 0 130 -64t64 -192t-93 -220t-230 -122q-25 2 -32 28t11 35q68 25 121 75t53 116q0 98 -112 127
q-62 19 -62 81t42 99t108 37z" />
    <glyph glyph-name="quotedblbase" unicode="&#x201e;" horiz-adv-x="966" 
d="M692 348q66 0 129 -64t63 -196q0 -131 -91 -218q-92 -87 -232 -120q-25 2 -32 28t12 36q68 24 121 74t53 116q0 98 -113 127q-61 19 -61 81t42 99q43 37 109 37zM242 348q66 0 131 -64q63 -65 63 -196t-92 -218t-231 -120q-25 2 -32 28t11 36q68 24 121 74t53 116
q0 98 -112 127q-62 19 -62 81t42 99t108 37z" />
    <glyph glyph-name="dagger" unicode="&#x2020;" horiz-adv-x="1003" 
d="M561 -260h-119v260q0 256 -84 537q82 100 82 323q-57 0 -132 -33q-76 -33 -118 -33t-75 30t-33 81t33 82t76 31t117 -33t132 -33q-4 90 -41 172t-37 131t37 89t103 40t102 -40t37 -88q0 -50 -37 -132t-41 -172q57 0 133 33t118 33t75 -31t33 -81t-33 -81t-75 -31t-118 34
q-76 32 -133 32q0 -223 82 -323q-84 -281 -84 -537v-260z" />
    <glyph glyph-name="daggerdbl" unicode="&#x2021;" horiz-adv-x="1007" 
d="M504 1384q74 0 104 -41t29 -84q0 -43 -35 -123t-39 -167q66 -1 147 31q80 32 116 32t68 -31t32 -79t-32 -78q-32 -31 -68 -31t-116 32t-147 32q0 -203 86 -289q-86 -78 -86 -305q66 -1 147 31q82 32 118 32t67 -32t31 -80t-32 -78t-68 -29q-36 0 -116 32t-147 31
q0 -84 37 -174t37 -142t-34 -90t-98 -38t-99 38t-35 90t37 142t36 174q-66 0 -146 -32t-114 -31q-36 0 -69 30q-33 29 -33 77t32 80t69 32t117 -32t144 -31q0 227 -86 305q86 86 86 289q-66 0 -146 -32t-116 -32t-68 31t-32 79q0 49 33 79t69 30t116 -32t144 -31
q-4 86 -38 167q-35 82 -35 124t29 83q30 41 104 41z" />
    <glyph glyph-name="bullet" unicode="&#x2022;" horiz-adv-x="808" 
d="M403 1008q133 0 227 -94t93 -227q0 -134 -93 -227q-94 -93 -226 -93t-225 93t-93 227q0 133 92 227t225 94z" />
    <glyph glyph-name="onedotenleader" unicode="&#x2024;" horiz-adv-x="1024" 
d="M516 -29q-70 0 -120 47t-50 119t48 121t119 49t118 -51t47 -121t-46 -117t-116 -47z" />
    <glyph glyph-name="twodotenleader" unicode="&#x2025;" horiz-adv-x="1024" 
d="M772 -29q-70 0 -120 47t-50 119t48 121t119 49t118 -51t47 -121t-46 -117t-116 -47zM260 -29q-70 0 -120 47t-50 119t48 121t119 49t118 -51t47 -121t-46 -117t-116 -47z" />
    <glyph glyph-name="ellipsis" unicode="&#x2026;" horiz-adv-x="2048" 
d="M346 -29q-70 0 -120 47t-50 119t48 121t119 49t118 -51t47 -121t-46 -117t-116 -47zM1710 -29q-70 0 -120 47t-50 119t48 121t119 49t118 -51t47 -121t-46 -117t-116 -47zM1028 -29q-70 0 -120 47t-50 119t48 121t119 49t118 -51t47 -121t-46 -117t-116 -47z" />
    <glyph glyph-name="perthousand" unicode="&#x2030;" horiz-adv-x="2433" 
d="M492 -82q-27 -6 -55 8t-38 41q414 737 758 1372q25 4 55 -10t37 -39q-413 -737 -757 -1372zM2152 355q0 196 -58 263q-26 31 -62 31q-36 1 -65 -29q-64 -67 -64 -266q-1 -108 29 -202t100 -95q120 0 120 298zM2028 -25q-111 0 -188 65q-134 113 -134 312q0 136 71 249
q35 58 101 94t150 36t150 -36q111 -61 154 -216q17 -63 17 -138q0 -188 -134 -301q-76 -65 -187 -65zM520 933q0 110 -26 203q-27 93 -97 93q-71 0 -99 -92t-28 -202t29 -204t99 -94t96 93t26 203zM395 555q-161 0 -241 118t-80 259t80 260t241 119q111 0 188 -65
q134 -113 134 -313t-134 -313q-77 -65 -188 -65zM1336 88q59 70 59 266t-59 264q-26 31 -62 31q-36 1 -65 -29q-64 -67 -64 -266q0 -108 30 -202t99 -95q37 0 62 31zM1270 -25q-111 0 -188 65q-134 113 -134 312q0 133 71 249q35 58 101 94t150 36t150 -36q114 -63 154 -216
q17 -63 17 -138q0 -190 -134 -301q-76 -65 -187 -65z" />
    <glyph glyph-name="guilsinglleft" unicode="&#x2039;" horiz-adv-x="522" 
d="M449 786l-156 -327q-14 -29 0 -60l156 -333q-16 -33 -46 -31q-176 209 -311 356q-31 37 0 74q150 162 311 352q36 -8 46 -31z" />
    <glyph glyph-name="guilsinglright" unicode="&#x203a;" horiz-adv-x="522" 
d="M229 459l-155 327q10 23 45 31q162 -190 311 -352q31 -37 0 -74q-135 -147 -311 -356q-29 -2 -45 31l155 333q14 31 0 60z" />
    <glyph glyph-name="fraction" unicode="&#x2044;" horiz-adv-x="204" 
d="M530 1290l-757 -1372q-29 -6 -58 8t-39 41l758 1372q26 4 58 -10t38 -39z" />
    <glyph glyph-name="zero.superior" unicode="&#x2070;" 
d="M410 1391q-59 0 -83 -109q-24 -108 -24 -230t24 -232t83 -109q85 0 104 239q4 52 4 102q0 221 -53 303q-22 36 -55 36zM72 1050q0 166 87 288t252 122t252 -123t87 -287t-87 -287q-87 -122 -253 -122t-252 122t-86 287z" />
    <glyph glyph-name="four.superior" unicode="&#x2074;" 
d="M410 811v29q0 28 -4 32t-27 5h-313q-23 12 -15 47l443 579q20 25 41 25h59q22 0 18 -23q-2 -10 -12 -22l-401 -506q-2 -20 30 -23h150q20 0 25 6t6 29v154q0 35 36 45q123 37 157 37t34 -21v-215q0 -23 5 -29t26 -6h90q16 -6 16 -38t-16 -39h-90q-23 1 -27 -5t-4 -32v-29
q0 -61 11 -79t63 -23l26 -2q11 -7 11 -27t-13 -29q-159 4 -243 4t-203 -4q-11 7 -13 27t9 29l41 2q60 2 72 18t12 84z" />
    <glyph glyph-name="five.superior" unicode="&#x2075;" 
d="M276 1427l375 39q12 -2 15 -20q-20 -102 -84 -148l-287 -32q-31 -4 -33 -21q-9 -26 2 -34q10 -9 50 -15q193 -29 290 -98q96 -69 95 -182t-94 -193q-164 -141 -480 -143q-21 8 -23 34t15 41q116 0 237 36q64 19 102 63t36 104q-2 145 -316 174q-33 4 -42 16t-1 48l82 293
q6 20 18 27t43 11z" />
    <glyph glyph-name="six.superior" unicode="&#x2076;" 
d="M322 981q0 -113 34 -191t93 -79q86 0 86 131q0 82 -29 146t-78 77q-20 6 -57 2q-14 16 -9 41q53 53 156 53q102 -1 168 -71t66 -182t-90 -190q-90 -77 -249 -77t-246 91t-87 251q0 205 168 360q76 72 198 118t265 46q12 -8 12 -27t-10 -28q-195 -46 -293 -160t-98 -311z
" />
    <glyph glyph-name="seven.superior" unicode="&#x2077;" 
d="M295 1446h254q160 0 194 4q10 -2 11 -23q-16 -29 -60 -93t-69 -109l-385 -635q-27 -8 -51 7t-33 44l327 524q39 63 39 95q0 18 -39 18h-221q-53 0 -85 -16t-50 -62q-8 -12 -33 -6t-28 18q43 106 65 238q78 -4 164 -4z" />
    <glyph glyph-name="eight.superior" unicode="&#x2078;" 
d="M528 1252q0 64 -35 102q-36 37 -82 37t-77 -29t-31 -78q0 -84 168 -147q57 51 57 115zM410 711q56 -1 86 27q31 28 30 73q0 121 -180 182q-68 -55 -68 -125t38 -114q38 -43 94 -43zM731 858q0 -94 -85 -156q-86 -62 -236 -61q-150 0 -236 51t-86 158q0 66 47 118t119 70
q-139 76 -139 184t78 174q78 64 218 64t215 -53t74 -154q0 -59 -42 -102t-93 -66q166 -88 166 -227z" />
    <glyph glyph-name="nine.superior" unicode="&#x2079;" 
d="M295 942q-90 0 -157 62q-66 62 -66 178t91 197t245 81t242 -93q89 -93 89 -248t-92 -279q-174 -234 -526 -260q-17 4 -21 28t11 35q188 49 287 176t100 305q0 111 -28 189t-79 78t-77 -42t-26 -111q0 -68 34 -134q33 -66 84 -74h28q10 -4 13 -19t-3 -24q-59 -45 -149 -45
z" />
    <glyph glyph-name="parenleft.superior" unicode="&#x207d;" horiz-adv-x="491" 
d="M74 1040q0 174 92 316t256 217q14 -2 23 -14t6 -27q-179 -203 -179 -492t179 -491q5 -15 -5 -27t-24 -14q-164 76 -256 217t-92 315z" />
    <glyph glyph-name="parenright.superior" unicode="&#x207e;" horiz-adv-x="491" 
d="M418 1040q0 -174 -92 -315t-256 -217q-14 2 -24 14q-9 12 -5 27q178 203 178 491t-178 492q-4 14 5 26t24 15q164 -75 256 -217t92 -316z" />
    <glyph glyph-name="n.superior" unicode="&#x207f;" horiz-adv-x="919" 
d="M362 1008v-228q0 -70 25 -75l23 -5q14 -6 13 -30t-15 -29q-56 4 -166 4t-181 -4q-14 4 -14 28t10 31l35 5q33 3 42 25t9 91v207q0 46 -6 64t-35 34l-18 11q-10 8 -9 24t11 25q141 31 254 80q23 0 27 -17q-4 -53 -5 -63q0 -12 15 -15q115 74 205 74t142 -53t52 -143v-228
q0 -71 9 -93t40 -23l37 -5q10 -4 9 -30t-11 -29q-74 4 -183 4t-165 -4q-14 4 -16 28t10 31l22 5q29 6 29 75v238q0 53 -26 86q-25 33 -71 33q-46 1 -72 -25t-26 -104z" />
    <glyph glyph-name="zero.inferior" unicode="&#x2080;" 
d="M410 397q-59 -1 -83 -109t-24 -230t24 -232t83 -109q86 0 104 240q4 51 4 101t-8 147t-37 144q-30 48 -63 48zM411 467q165 0 252 -123t87 -288q0 -164 -87 -286t-253 -122t-252 122t-86 286t87 288q87 123 252 123z" />
    <glyph glyph-name="one.inferior" unicode="&#x2081;" 
d="M307 -139v327q0 59 -11 82t-54 29l-64 8q-12 9 -12 29t12 29q203 27 342 102q20 0 25 -16q-6 -104 -6 -181v-409q0 -63 2 -83q5 -48 59 -57l62 -8q10 -8 8 -28t-13 -27q-153 4 -235 4t-234 -4q-10 6 -12 26t8 29l62 8q45 6 53 30t8 110z" />
    <glyph glyph-name="two.inferior" unicode="&#x2082;" 
d="M102 262q106 205 336 205q114 1 186 -63q73 -64 72 -166q0 -147 -200 -297l-64 -47l-51 -44q-14 -14 -9 -24t25 -10h127q78 0 113 12t59 57q29 10 47 -8q-25 -133 -79 -219q-111 4 -234 4h-197q-88 0 -133 -4q-23 12 -14 39q102 80 207 186q154 162 153 324q0 63 -32 102
q-33 39 -88 39q-98 0 -166 -121q-16 -12 -37 -1q-20 11 -21 36z" />
    <glyph glyph-name="three.inferior" unicode="&#x2083;" 
d="M479 -134q1 186 -143 185q-70 0 -127 -51q-29 6 -38 32t5 42q182 64 232 132q24 34 24 72t-24 60t-68 22q-84 0 -152 -102q-18 -8 -35 4t-16 31q43 82 122 128t173 46t156 -43q62 -42 63 -100q0 -58 -33 -95t-124 -73q-25 -11 16 -19q92 -10 154 -58t61 -142
q-1 -151 -161 -253t-326 -102q-59 0 -108 28q-48 28 -48 70q0 95 88 95q26 0 50 -20t34 -37t12 -19q23 -35 68 -36t95 55t50 148z" />
    <glyph glyph-name="four.inferior" unicode="&#x2084;" 
d="M410 -182v28q0 27 -4 32t-27 5h-313q-23 12 -15 47l443 580q20 25 41 25h59q23 0 18 -23q-2 -10 -12 -23l-401 -505q-2 -20 30 -23h150q20 0 25 6t6 29v154q0 35 36 45q123 37 157 37t34 -21v-215q0 -23 5 -29t26 -6h90q16 -6 16 -37t-16 -41h-90q-23 0 -27 -5t-4 -32
v-28q0 -62 11 -80t63 -23l26 -2q11 -8 11 -27t-13 -28q-159 4 -243 4t-203 -4q-11 6 -13 26t9 29l41 2q60 3 72 19t12 84z" />
    <glyph glyph-name="five.inferior" unicode="&#x2085;" 
d="M276 434l375 39q12 -2 15 -20q-20 -102 -84 -148l-287 -33q-31 -4 -33 -20q-9 -26 2 -34q10 -9 81 -20t145 -37q73 -26 113 -55q97 -70 96 -184q-1 -112 -94 -192q-163 -139 -480 -144q-20 8 -23 35q-2 27 15 41q122 0 211 28t128 70q38 43 36 105q-2 145 -316 174
q-33 4 -42 16t-1 47l82 293q6 19 18 27t43 12z" />
    <glyph glyph-name="six.inferior" unicode="&#x2086;" 
d="M322 -12q0 -113 34 -192t93 -79q86 0 86 131q0 82 -29 147t-78 77q-20 6 -57 2q-14 16 -9 41q53 53 156 53q102 0 168 -71t66 -183t-90 -190q-90 -76 -249 -76t-246 91t-87 251q0 205 168 360q76 72 198 118t265 46q12 -8 12 -28t-10 -27q-195 -45 -293 -159t-98 -312z
" />
    <glyph glyph-name="seven.inferior" unicode="&#x2087;" 
d="M295 453h254q160 0 194 4q10 -2 11 -23q-16 -30 -60 -94t-69 -109l-385 -634q-27 -8 -51 7t-33 44l327 524q39 63 39 94q0 18 -39 19h-221q-53 -1 -85 -17t-50 -61q-8 -12 -33 -6t-28 18q43 106 65 238q78 -4 164 -4z" />
    <glyph glyph-name="eight.inferior" unicode="&#x2088;" 
d="M528 258q0 66 -35 102q-36 37 -82 37q-46 -1 -77 -29t-31 -77q0 -85 168 -148q57 49 57 115zM410 -283q56 0 86 28q31 28 30 73q0 121 -180 182q-68 -56 -68 -126t38 -114q38 -43 94 -43zM731 -135q0 -93 -85 -155q-86 -62 -236 -62t-236 51t-86 158q0 65 47 117t119 71
q-139 77 -139 185t78 172t218 65q140 0 215 -53t74 -154q0 -59 -42 -102t-93 -66q166 -88 166 -227z" />
    <glyph glyph-name="nine.inferior" unicode="&#x2089;" 
d="M295 -51q-90 0 -157 61q-66 61 -66 178t91 198t245 81t242 -93q89 -93 89 -248t-92 -279q-172 -232 -526 -261q-16 4 -21 29q-4 25 11 35q188 49 287 176t100 305q0 111 -28 189t-79 77q-51 0 -77 -42q-26 -43 -26 -111t34 -134q33 -66 84 -73h28q10 -3 13 -19t-3 -24
q-59 -45 -149 -45z" />
    <glyph glyph-name="parenleft.inferior" unicode="&#x208d;" horiz-adv-x="491" 
d="M74 57q0 173 92 315t256 218q14 -2 23 -14t6 -27q-179 -203 -179 -492t179 -491q5 -14 -5 -26t-24 -15q-164 76 -256 217t-92 315z" />
    <glyph glyph-name="parenright.inferior" unicode="&#x208e;" horiz-adv-x="491" 
d="M418 57q0 -174 -92 -315t-256 -217q-14 2 -24 14q-9 12 -5 27q178 204 178 492t-178 491q-4 14 5 26t24 15q164 -76 256 -218t92 -315z" />
    <glyph glyph-name="colonmonetary" unicode="&#x20a1;" horiz-adv-x="1255" 
d="M766 84q125 0 217 87t143 200q12 10 34 8t26 -17q-31 -184 -86 -299q-18 -3 -129 -33t-177 -30q-67 0 -81 4l-35 -137q-14 -10 -42 -10t-42 10l35 143q-45 4 -109 23l-41 -166q-14 -10 -42 -10t-42 10l47 194q-180 70 -268 227t-88 353q0 319 221 504q180 152 436 162
l29 114q12 11 42 11t42 -11l-29 -112q29 0 115 -11l29 123q12 10 42 10t42 -10l-35 -137q63 -14 119 -29q-4 -51 22 -292q-13 -13 -33 -15t-28 13q-39 129 -111 192l-256 -1065q10 -4 33 -4zM807 1225l-254 -1055q41 -39 100 -61l265 1089q-48 23 -111 27zM485 244l238 977
q-145 -27 -247 -170t-102 -399t111 -408z" />
    <glyph glyph-name="franc" unicode="&#x20a3;" horiz-adv-x="1064" 
d="M197 430v574q-1 132 -17 166t-82 44l-39 7q-14 9 -13 35t17 32q123 -6 273 -6h401q221 0 262 6q0 -172 5 -262q-6 -14 -31 -16t-39 8q-25 66 -62 110q-53 66 -190 66h-152q-47 0 -55 -11t-8 -69v-280q0 -42 7 -50t46 -8h152q76 0 100 16t43 72l8 25q10 14 38 13t38 -13
q-6 -66 -6 -154t6 -176q-10 -12 -38 -13t-38 11l-14 45q-14 43 -39 56t-98 14h-152q-37 0 -45 -9t-8 -49v-184h352q12 -8 12 -39t-12 -53h-352v-57q0 -95 7 -135q8 -40 26 -54t65 -20l72 -11q10 -9 10 -33t-10 -34q-178 6 -303 6t-301 -6q-10 10 -10 35t10 32l65 11
q66 10 82 43t17 166v57h-144q-12 10 -12 47t12 45h144z" />
    <glyph glyph-name="lira" unicode="&#x20a4;" horiz-adv-x="1064" 
d="M190 772q29 0 29 33q-1 221 145 363t359 143q88 0 133 -31q25 -23 25 -67q0 -45 -27 -81q-26 -36 -50 -36t-46 20q-98 80 -160 80q-46 0 -77 -106q-17 -62 -17 -180t20 -133q8 -5 35 -5h262q12 -16 8 -45t-18 -47h-250q-29 0 -37 -5t-8 -24v-47q0 -20 8 -25t37 -6h254
q12 -16 8 -45t-18 -47h-273q-18 0 -32 -30q-47 -119 -201 -195l2 -4q74 10 141 -2q68 -8 193 -72t187 -65q62 1 64 25q4 24 -20 81t-4 85t58 28t70 -31t32 -96q0 -95 -100 -191t-213 -96t-261 93t-223 93q-35 0 -53 -24t-22 -53q-4 -19 -58 -37t-78 -19q-39 0 -39 37
q0 53 103 133q137 111 143 330q0 25 -31 25h-174q-12 12 -10 43t21 49h172q14 0 19 6t5 27v34q0 25 -30 25h-177q-12 12 -10 43q3 31 21 49h163z" />
    <glyph glyph-name="peseta" unicode="&#x20a7;" horiz-adv-x="1064" 
d="M133 944v10q0 158 -13 196t-77 46l-63 8q-14 8 -14 34q1 26 18 36q244 18 438 18t323 -49q207 -78 236 -299h80q16 -8 16 -46t-16 -46h-78q-6 -86 -42 -154t-82 -104q-122 -94 -277 -94q-43 0 -66 2q-12 8 -14 26t8 29q111 35 155 108t48 187h-310v-557q-1 -141 17 -176
t88 -45l65 -11q17 -7 17 -33t-17 -36q-171 6 -301 6t-297 -6q-16 10 -18 36t14 33l58 11q70 12 87 47t17 174v557h-172q-14 8 -14 45t14 47h172zM403 944h308q-15 106 -75 180t-153 74q-53 0 -66 -19t-14 -85v-150z" />
    <glyph glyph-name="Euro" unicode="&#x20ac;" horiz-adv-x="1064" 
d="M424 586h461q12 -8 5 -46t-24 -46h-434q18 -428 283 -428q96 0 159 68t97 159q9 12 31 9t30 -17q-31 -164 -71 -254q-27 -6 -60 -17q-117 -43 -233 -43q-224 1 -364 141t-165 382h-112q-10 10 -2 46t20 46h88q0 90 4 123h-84q-10 10 -2 46q9 36 21 46h80q37 223 182 365
t364 143q85 0 187 -29l100 -27q0 -154 21 -260q-8 -18 -33 -22t-33 8q-27 76 -49 120q-23 44 -75 80t-128 35q-223 0 -258 -413h514q6 -16 1 -50t-21 -42h-500q-2 -19 -1 -67t1 -56z" />
    <glyph glyph-name="uni2113" unicode="&#x2113;" horiz-adv-x="890" 
d="M463 1036v-338q209 190 209 414q0 78 -31 133t-94 55q-35 0 -59 -68t-25 -196zM193 866q0 238 96 379t270 141q113 0 176 -72t64 -198q0 -270 -336 -547v-233q0 -233 110 -234q47 0 86 33t91 121q8 14 38 -4t31 -35q-92 -246 -344 -246q-155 -1 -219 101t-63 301v35
q-82 -59 -123 -86q-16 0 -37 26q-20 27 -17 39q66 47 177 137v342z" />
    <glyph glyph-name="trademark" unicode="&#x2122;" horiz-adv-x="1257" 
d="M1156 1352q57 0 81 2q8 -2 9 -20t-7 -21q-46 -9 -52 -19q-7 -10 -7 -90t4 -140q4 -61 9 -71t21 -14l31 -8q8 -5 8 -21t-8 -20q-29 2 -118 2t-119 -2q-4 4 -6 20q-1 16 6 21l30 8q16 4 21 13q4 9 4 36l-4 201q0 20 -4 22q-2 0 -39 -88l-39 -90q-47 -111 -57 -143
q-33 -10 -52 2q-4 14 -47 123l-47 112q-41 92 -47 97q-8 -24 -8 -98v-134q2 -35 9 -46t50 -15q4 -5 4 -19t-4 -22q-20 2 -95 2t-97 -2q-4 2 -5 18t3 23l12 2q49 8 51 49q19 170 19 225t-50 62l-16 4q-12 4 -11 21t13 20l82 -2q61 0 135 2q0 -25 47 -115l39 -76
q16 -31 25 -30q10 0 24 24l35 76q31 66 47 121q63 -2 120 -2zM233 1073v199q0 18 -3 21t-19 3h-16q-66 0 -93 -71q-4 -10 -21 -8t-20 14q16 104 29 145q4 8 16 8t15 -8q14 -16 23 -20t40 -4h260q37 0 62 24q4 8 15 8t16 -8q-14 -63 -11 -151q-2 -15 -19 -15t-20 11
q-8 39 -25 57t-54 18h-27q-12 0 -14 -3t-2 -21v-205q0 -51 6 -69t30 -21l33 -6q6 -3 5 -21t-7 -20q-45 2 -137 2t-129 -2q-6 2 -6 17t4 24l33 6q23 3 29 25t7 71z" />
    <glyph glyph-name="Omega" unicode="&#x2126;" horiz-adv-x="1685" 
d="M89 348q33 0 51 -28q56 -88 136 -104q39 -7 99 -7h125q-51 35 -75 51q-23 16 -89 74t-102 110t-68 134t-33 165q0 293 202 467t506 174t506 -169t195 -463q-4 -209 -127 -344q-61 -68 -111 -108t-128 -91h124q102 0 150 29t94 94q8 16 42 16t38 -16q-20 -68 -40 -184
q-19 -115 -30 -162q-166 14 -204 14h-420v61q135 164 217 331t82 385q-1 217 -107 365t-284 148t-284 -148t-108 -377t86 -389t213 -315v-61h-419l-205 -14q-10 47 -29 152t-41 194q4 16 38 16z" />
    <glyph glyph-name="estimated" unicode="&#x212e;" horiz-adv-x="1658" 
d="M1303 674v368q0 25 -19 43q-186 191 -454 191t-455 -195q-18 -18 -19 -47v-360q0 -10 11 -10h927q9 0 9 10zM1577 627h-1210q-10 0 -11 -11v-364q0 -23 17 -43q186 -197 458 -197q141 0 267 58t215 163h108q-104 -121 -259 -191t-333 -71q-309 0 -528 197
q-219 198 -219 476t219 476t528 197q309 0 529 -198t219 -476v-16z" />
    <glyph glyph-name="onethird" unicode="&#x2153;" horiz-adv-x="1720" 
d="M1374 204q0 186 -144 185q-70 0 -126 -51q-29 6 -38 32t5 42q182 64 232 132q25 34 25 72t-25 60q-25 23 -68 22q-84 0 -152 -102q-18 -8 -35 4t-16 31q43 82 122 128t173 46q95 0 157 -43q62 -42 62 -100t-33 -95t-124 -73q-18 -8 6 -17q4 -2 10 -2q91 -10 153 -58
t62 -143q0 -152 -170 -258q-151 -96 -317 -96q-59 0 -108 28q-48 28 -48 70q0 95 88 95q26 0 50 -20t34 -37t12 -19q23 -35 68 -36t95 55t50 148zM1255 1290l-757 -1372q-29 -6 -58 8t-39 41l758 1372q27 4 59 -10t37 -39zM242 705v327q0 59 -12 82t-54 29l-63 8
q-13 9 -13 29t13 28q203 27 342 103q20 0 24 -17q-6 -104 -6 -180v-409q0 -63 2 -83q5 -48 60 -57l61 -8q10 -9 8 -29t-12 -26q-152 4 -235 4t-234 -4q-10 6 -12 26t8 29l61 8q46 6 54 30t8 110z" />
    <glyph glyph-name="twothirds" unicode="&#x2154;" horiz-adv-x="1720" 
d="M1419 204q1 186 -143 185q-70 0 -127 -51q-29 6 -38 32t5 42q182 64 232 132q24 34 24 72t-24 60q-25 23 -68 22q-84 0 -152 -102q-18 -8 -35 4t-16 31q43 82 122 128t173 46t156 -43q62 -42 63 -100q-1 -58 -33 -95t-124 -73q-18 -8 6 -17q4 -2 10 -2q92 -10 154 -58
t61 -143q0 -152 -170 -258q-151 -96 -317 -96q-59 0 -108 28q-48 28 -48 70q0 95 88 95q26 0 50 -20t34 -37t12 -19q23 -35 68 -36t95 55t50 148zM1325 1290l-758 -1372q-29 -6 -57 8t-39 41l758 1372q27 4 59 -10t37 -39zM403 506h-196q-88 0 -133 -4q-23 12 -15 39
q102 80 207 186q154 162 154 324q0 63 -33 102t-88 39q-98 0 -166 -121q-14 -12 -36 -1t-21 36q104 202 334 204q114 0 187 -62q73 -64 73 -167q0 -147 -201 -297l-63 -47l-52 -43q-14 -14 -9 -24t26 -11h127q78 1 112 13t60 57q29 10 47 -8q-25 -133 -80 -219
q-111 4 -234 4z" />
    <glyph glyph-name="oneeighth" unicode="&#x215b;" horiz-adv-x="1720" 
d="M1243 1290l-758 -1372q-29 -6 -57 8t-39 41l758 1372q27 4 59 -10t37 -39zM236 705v327q0 59 -12 82t-54 29l-64 8q-12 9 -12 29t12 28q203 27 343 103q20 0 24 -17q-6 -104 -6 -180v-409q0 -63 2 -83q5 -48 59 -57l62 -8q10 -9 8 -29t-12 -26q-152 4 -235 4t-234 -4
q-10 6 -13 26q-2 20 9 29l61 8q46 6 54 30t8 110zM1423 596q0 64 -35 102q-36 37 -82 37q-46 -1 -77 -29t-31 -77q0 -85 168 -148q57 51 57 115zM1304 55q56 0 87 28t30 73q0 121 -180 182q-67 -56 -67 -126t37 -114q37 -43 93 -43zM1626 203q0 -93 -85 -155t-235 -62
t-237 51q-86 51 -86 158q0 65 47 117t119 71q-139 76 -139 184t77 173q79 65 219 65t215 -53t74 -154q0 -59 -42 -102t-93 -66q166 -88 166 -227z" />
    <glyph glyph-name="threeeighths" unicode="&#x215c;" horiz-adv-x="1720" 
d="M1286 1290l-758 -1372q-30 -6 -58 8t-38 41l758 1372q26 4 58 -10t38 -39zM209 426q-59 0 -108 28q-48 28 -48 70t22 68t56 26t57 -17t34 -36q12 -19 16 -22q24 -35 68 -36t94 55t50 148t-36 138q-37 47 -107 47t-127 -51q-29 6 -38 32t5 42q182 64 232 132q25 34 25 72
t-25 60q-25 23 -68 22q-84 0 -151 -102q-18 -8 -36 4q-17 12 -15 31q43 82 121 128q79 46 173 46q95 0 157 -43q62 -42 62 -100t-32 -95q-33 -37 -125 -74q-23 -10 16 -18q91 -10 153 -58t62 -143q0 -152 -170 -258q-151 -96 -317 -96zM1466 596q0 64 -35 102q-36 37 -82 37
q-46 -1 -77 -29t-31 -77q0 -85 168 -148q57 51 57 115zM1348 55q56 0 86 28q31 28 30 73q0 121 -180 182q-68 -56 -68 -126t38 -114q38 -43 94 -43zM1669 203q0 -93 -85 -155q-86 -62 -236 -62t-236 51t-86 158q0 65 47 117t119 71q-139 76 -139 184t77 173q78 65 218 65
t216 -53q75 -53 74 -154q0 -59 -42 -102t-93 -66q166 -88 166 -227z" />
    <glyph glyph-name="fiveeighths" unicode="&#x215d;" horiz-adv-x="1720" 
d="M1255 1290l-757 -1372q-29 -6 -58 8t-39 41l758 1372q27 4 59 -10t37 -39zM680 767q0 -114 -93 -194q-161 -138 -481 -143q-20 8 -22 35t14 41q123 0 212 28t127 70q38 43 36 105q-2 145 -315 174q-33 4 -42 16t-1 47l82 293q6 19 18 27t43 12l375 39q12 -2 14 -21
q-20 -102 -84 -147l-287 -33q-31 -4 -32 -20q-8 -27 2 -35t50 -14q188 -28 289 -97q95 -69 95 -183zM1318 735q-46 -1 -77 -29t-31 -77q0 -85 168 -148q58 51 58 115t-36 102q-36 37 -82 37zM1317 55q55 0 86 28t31 73q-1 121 -181 182q-67 -56 -67 -126t38 -114t93 -43z
M1318 -14q-150 0 -237 51q-86 51 -86 158q0 65 47 117t119 71q-139 76 -139 184t78 173t218 65t215 -53t75 -154q0 -59 -42 -102t-93 -66q166 -88 165 -227q0 -93 -84 -155q-86 -62 -236 -62z" />
    <glyph glyph-name="seveneighths" unicode="&#x215e;" horiz-adv-x="1720" 
d="M1196 1290l-758 -1372q-30 -6 -58 8t-38 41l758 1372q26 4 58 -10t38 -39zM309 1296h254q160 0 195 4q10 -2 10 -22q-16 -30 -59 -94t-70 -109l-385 -635q-26 -8 -50 7t-34 45l328 524q39 63 39 94q0 18 -39 18h-222q-53 0 -85 -16t-50 -61q-9 -13 -33 -7t-28 19
q43 106 65 237q78 -4 164 -4zM1322 735q-46 -1 -77 -29t-31 -77q0 -85 168 -148q58 51 58 115t-36 102q-36 37 -82 37zM1321 55q55 0 86 28t31 73q-1 121 -181 182q-67 -56 -67 -126t38 -114t93 -43zM1322 -14q-150 0 -237 51q-86 51 -86 158q-1 65 47 117t119 71
q-139 76 -139 184t78 173t218 65t215 -53t75 -154q0 -59 -42 -102t-93 -66q166 -88 165 -227q0 -94 -84 -156q-86 -61 -236 -61z" />
    <glyph glyph-name="partialdiff" unicode="&#x2202;" horiz-adv-x="1122" 
d="M573 733q-90 0 -148 -125t-58 -263q-1 -138 33 -209q34 -70 94 -70t107 55q107 122 163 487q-29 45 -80 85q-52 40 -111 40zM82 393q0 185 124 323t302 138t278 -131q18 71 22 223t-58 264q-61 112 -201 113q-80 0 -279 -109q-36 -20 -58 8t-22 96t70 101q82 43 195 43
q186 0 322 -112q135 -112 199 -276q64 -165 64 -353q0 -256 -108 -465q-63 -123 -174 -204t-256 -81q-190 0 -305 119t-115 303z" />
    <glyph glyph-name="Delta" unicode="&#x2206;" horiz-adv-x="1392" 
d="M326 164h592q49 0 59 12t-2 35l-281 690q-12 31 -35 80t-28 66h-6q-20 -43 -58 -129l-305 -711q-10 -23 4 -33t60 -10zM1315 0h-1235q-14 0 -18 37t16 82q168 344 233 489l244 535q53 113 47 143q74 14 152 98q33 0 39 -18q20 -53 114 -274l410 -957q14 -33 14 -84
t-16 -51z" />
    <glyph glyph-name="product" unicode="&#x220f;" horiz-adv-x="1652" 
d="M1020 1339h-387q-74 0 -88 -9t-15 -56v-1194q0 -189 40 -216q19 -13 73 -20l47 -6q10 -10 9 -37t-13 -32q-135 6 -302 6t-302 -6q-12 7 -13 33t9 36l45 6q55 6 75 20q39 27 40 216v1059q0 177 -40 206q-19 13 -75 19l-45 6q-10 10 -9 37t13 33q135 -6 272 -6h944
q137 0 273 6q12 -6 13 -33t-9 -37l-45 -6q-54 -6 -74 -19q-40 -27 -41 -206v-1069q0 -180 40 -206q19 -13 75 -20l45 -6q10 -18 9 -41t-13 -28q-135 6 -303 6t-301 -6q-11 7 -13 33t9 36l45 6q53 6 73 22q41 32 41 204v1204q0 47 -14 56t-88 9z" />
    <glyph glyph-name="summation" unicode="&#x2211;" horiz-adv-x="1433" 
d="M301 1434h928l12 -314q-4 -14 -37 -14t-37 14q-23 59 -39 90t-54 66q-68 63 -259 63h-369l449 -659q31 -43 2 -74l-516 -594h629q123 0 177 29t107 133q8 18 42 13t38 -33l-80 -394l-143 15h-940q-57 0 -131 -4q-18 -1 -18 31t10 42l553 648q23 29 2 59l-543 817
q-10 16 -3 43t19 27q49 -4 201 -4z" />
    <glyph glyph-name="minus" unicode="&#x2212;" horiz-adv-x="1064" 
d="M944 362h-821v148h821v-148z" />
    <glyph glyph-name="uni2215" unicode="&#x2215;" horiz-adv-x="204" 
d="M530 1290l-757 -1372q-29 -6 -58 8t-39 41l758 1372q26 4 58 -10t38 -39z" />
    <glyph glyph-name="uni2219" unicode="&#x2219;" horiz-adv-x="532" 
d="M270 258q-70 0 -120 47t-50 119t48 121t119 49t118 -51t47 -121t-46 -117t-116 -47z" />
    <glyph glyph-name="radical" unicode="&#x221a;" horiz-adv-x="1124" 
d="M80 848l-39 82l352 180l346 -690l224 1409l110 -12l-313 -1942l-524 1045z" />
    <glyph glyph-name="infinity" unicode="&#x221e;" horiz-adv-x="1609" 
d="M1192 729q-39 -1 -85 -23t-71 -41q-26 -19 -76 -65t-57 -53q4 -6 27 -30q24 -24 30 -32q6 -7 28 -29t33 -30t31 -24t35 -24l34 -17q32 -15 89 -15q58 0 110 53t52 133t-49 139q-49 58 -131 58zM238 536q0 -80 54 -136t130 -56q125 0 297 180q-13 13 -43 48t-51 52t-39 33
q-83 74 -168 74q-84 0 -132 -58t-48 -137zM391 881q161 0 299 -121q16 -14 62 -58t57 -53q72 72 121 113t130 80t157 39q123 1 217 -97t94 -244t-90 -239q-90 -94 -225 -94t-227 63q-91 63 -132 106q-41 44 -47 48l-37 -39q-122 -129 -242 -162q-57 -16 -118 -16
q-152 0 -240 100q-88 99 -88 243t92 238t217 93z" />
    <glyph glyph-name="integral" unicode="&#x222b;" 
d="M242 799v131q0 270 100 465q47 92 124 144q78 52 146 52q68 1 104 -27t36 -77t-30 -77t-78 -28t-102 48t-59 -21q-3 -23 9 -123q37 -321 34 -651l-2 -236q-2 -338 -114 -520t-289 -182q-59 0 -99 30t-40 78q0 76 55 105q74 39 149 -43q66 -68 80 35q6 35 4 90
q-28 557 -28 807z" />
    <glyph glyph-name="approxequal" unicode="&#x2248;" horiz-adv-x="1064" 
d="M887 391l94 -112q-84 -99 -189 -131t-186 6l-172 61q-52 19 -99 17t-63 -13q-16 -10 -26 -16q-30 -18 -62 -64l-100 94q156 225 377 148l182 -66q55 -19 123 1t121 75zM891 774l90 -106q-170 -207 -375 -138l-172 60q-55 20 -102 15t-78 -24q-32 -20 -43 -34
q-12 -15 -27 -35l-100 94q156 227 377 150l182 -64q127 -45 248 82z" />
    <glyph glyph-name="notequal" unicode="&#x2260;" horiz-adv-x="1064" 
d="M123 659h471l125 189l139 -49l-92 -140h178v-147h-274l-99 -147h373v-148h-471l-143 -217l-140 49l111 168h-178v148h276l99 147h-375v147z" />
    <glyph glyph-name="lessequal" unicode="&#x2264;" horiz-adv-x="1064" 
d="M135 709l797 364v-170l-586 -252v-4l586 -254v-168l-797 363v121zM944 0h-821v147h821v-147z" />
    <glyph glyph-name="greaterequal" unicode="&#x2265;" horiz-adv-x="1064" 
d="M135 1073l797 -364v-121l-797 -363v168l586 254v4l-586 252v170zM944 0h-821v147h821v-147z" />
    <glyph glyph-name="lozenge" unicode="&#x25ca;" horiz-adv-x="1196" 
d="M915 696l-319 586l-315 -586l315 -604zM682 -92h-168l-422 788l422 768h168l422 -768z" />
    <glyph glyph-name="Euro.fitted" unicode="&#xe000;" horiz-adv-x="1267" 
d="M786 -29q-264 1 -422 137t-188 386h-121q-10 10 -2 46t21 46h96q-6 47 4 123h-80q-10 10 -2 46q9 36 21 46h75q47 223 213 365t416 143q127 0 279 -43l49 -13q0 -122 24 -260q-9 -18 -33 -22t-32 8q-80 236 -297 235q-129 0 -222 -102t-116 -311h600q6 -16 1 -50t-21 -42
h-588q-8 -39 0 -123h549q12 -8 5 -46t-24 -46h-522q19 -209 117 -319t248 -109q120 0 198 84q50 52 111 143q10 12 32 9t29 -17q-39 -186 -84 -254q-27 -6 -59 -17q-117 -43 -275 -43z" />
    <glyph glyph-name="Euro.oldstyle" unicode="&#xe001;" horiz-adv-x="1189" 
d="M793 1090q111 0 191 -18t91 -21q2 -10 8 -100t17 -142q-8 -16 -32 -19t-34 7q-25 82 -88 139q-62 57 -168 57t-190 -79t-107 -232h592q10 -24 4 -54t-22 -38h-584q-2 -14 -2 -53t2 -54h545q12 -8 5 -46t-24 -46h-516q23 -155 105 -237t200 -82q156 0 279 184q12 12 34 6
t27 -29q-37 -160 -82 -221q-12 -2 -36 -8q-129 -33 -246 -33q-246 0 -393 111t-176 309h-123q-14 10 -3 46t23 46h94q-4 19 -2 55t6 52h-79q-16 8 -8 46q10 38 28 46h74q45 182 206 295t384 113z" />
    <glyph glyph-name="bullet.001" unicode="&#xe007;" horiz-adv-x="1740" 
d="M295 381q127 37 199 135q59 86 73 209q-123 -25 -197 -116t-75 -228zM1253 1246q0 58 -53 102q-12 10 -7 17t17 5q78 -12 134 -74t57 -144q0 -81 -40 -134t-103 -92t-101 -54q-39 -16 -46 -20t-13 -6q-76 -37 -76 -105q0 -16 8 -32q80 94 188 94t204 -85q94 -85 160 -85
t110 76q6 10 14 11q14 2 14 -48q0 -96 -79 -186t-193 -89q-70 0 -132 29t-149 115q-47 43 -63 58q-49 46 -92 46q-44 -31 0 -118q4 -9 16 -27t23 -37t39 -55q61 -90 81 -130q21 -40 21 -100t-56 -119t-129 -59t-34 29q57 37 57 80t-24 67t-117 80q-154 94 -154 221
q0 61 48 119t120 94q-94 49 -223 49q-20 0 -27 -2q-12 -168 -110 -272t-246 -131q4 -66 30 -112t48 -58t74 -12q4 -2 5 -10t-1 -13q-74 -70 -140 -70q-27 0 -51 31q-78 98 -78 262t100 293t285 158q-2 127 -46 213t-115 86q-47 0 -60 -64q-2 -8 -10 -16q-20 -10 -49 -10
t-53 24t-25 63q0 39 34 71t89 32q135 0 225 -123t96 -268h4q145 0 252 -74l4 4q-127 106 -127 232q0 67 56 111t137 44l123 -6q53 0 101 33t48 91z" />
    <glyph glyph-name="bullet.002" unicode="&#xe008;" horiz-adv-x="2336" 
d="M82 650q0 224 144 360q144 137 296 137q109 1 205 -61t96 -175q0 -71 -46 -113q-47 -42 -107 -43t-106 37t-46 78t14 59t56 48q37 35 37 61q1 51 -119 48t-206 -92t-85 -181q0 -92 35 -143t69 -73q34 -21 52 -33t51 -21q33 -11 46 -15t45 -11t36 -9q98 -27 98 -113
q0 -57 -17 -96t-18 -68q0 -29 58 -28q170 0 407 338q-31 39 -34 94t39 99t86 45t71 -9q141 201 257 287t280 90q201 4 340 -141t139 -380t-128 -370t-296 -139q-111 -2 -198 51t-87 149q0 63 43 113t111 49q68 0 102 -41t33 -86q0 -45 -28 -67q-27 -22 -27 -46t24 -41
t62 -16q88 2 178 78t90 206t-54 185t-209 99t-155 124q0 26 16 84t17 74q0 33 -55 33q-100 -2 -190 -88t-206 -250q31 -35 34 -92t-39 -100t-87 -45t-67 6q-133 -182 -262 -278t-299 -101q-217 -6 -357 151q-139 158 -139 382z" />
    <glyph glyph-name="bullet.003" unicode="&#xe009;" horiz-adv-x="1193" 
d="M582 1010q-41 0 -68 -31t-27 -70t29 -67t69 -27q39 0 67 28q28 27 28 67t-28 70t-70 30zM467 1029q0 11 -34 69t-34 134q-1 75 57 130t155 57t149 -55t51 -138q0 -81 -66 -161q-51 -51 -25 -79q9 -9 17 -9t33 13q164 85 280 -8q62 -50 62 -138t-46 -154q-46 -68 -153 -69
q-127 -4 -198 108q-25 35 -53 35q-8 0 -26 -26q-48 -67 -48 -148q4 -123 225 -254q186 -109 188 -258q3 -98 -75 -182t-203 -84t-317 155q-90 76 -136 72q-53 0 -100 -115q-33 0 -33 29q17 94 65 137t86 44t74 -6t69 -29q51 -33 92 -66q165 -131 261 -131q49 0 83 37t34 85
t-13 69q-14 21 -20 33t-23 26q-17 16 -23 23t-30 23t-29 19q-5 5 -32 21q-242 148 -242 280q-1 82 39 146t40 82q0 16 -24 16q-22 0 -45 -30t-88 -70t-122 -41q-102 -2 -155 62q-52 65 -52 155t61 138q61 50 129 51t115 -15t55 -16t16 10q8 12 9 23z" />
    <glyph glyph-name="uniF634" unicode="&#xf634;" horiz-adv-x="512" 
d="M117 -228q1 54 35 84t94 31q60 0 113 -52q55 -52 55 -166q0 -115 -77 -189t-202 -98q-20 2 -26 30t8 37q53 21 99 65t46 91q0 76 -94 98q-51 15 -51 69z" />
    <glyph glyph-name="space_uni0326" unicode="&#xf6c3;" horiz-adv-x="778" 
d="M372 -92q54 0 109 -52t55 -161t-74 -181q-75 -72 -194 -96q-20 2 -25 31t9 37q51 18 95 58t44 87q0 78 -90 103q-49 14 -49 64t33 80t87 30z" />
    <glyph glyph-name="acute.cap" unicode="&#xf6c9;" horiz-adv-x="778" 
d="M639 1780q37 0 70 -64q63 -109 -45 -139l-402 -131q-32 12 -22 51l331 248q47 35 68 35z" />
    <glyph glyph-name="caron.cap" unicode="&#xf6ca;" horiz-adv-x="778" 
d="M100 1763l248 -102q41 -16 72 -2l246 104q14 0 22 -17t4 -36l-264 -240q-47 -41 -90 0l-262 240q-2 18 6 34t18 19z" />
    <glyph glyph-name="dieresis.cap" unicode="&#xf6cb;" horiz-adv-x="778" 
d="M604 1458q-53 0 -88 31t-37 88q0 57 36 94t89 37t88 -36t35 -89t-35 -89t-88 -36zM176 1458q-53 0 -88 31t-37 88q0 57 36 94t89 37t88 -36t35 -89t-35 -89t-88 -36z" />
    <glyph glyph-name="grave.cap" unicode="&#xf6ce;" horiz-adv-x="778" 
d="M225 1749l332 -242q12 -31 -22 -61l-402 131q-107 30 -45 139q33 63 70 64q22 0 67 -31z" />
    <glyph glyph-name="hungarumlaut.cap" unicode="&#xf6cf;" horiz-adv-x="778" 
d="M342 1802q30 0 78 -41q47 -41 47 -84q0 -25 -68 -73l-217 -158q-12 0 -30 14t-19 27l150 274q29 41 59 41zM694 1802q30 0 74 -39q49 -47 49 -79t-65 -80l-217 -158q-12 0 -30 14t-20 27l150 274q29 41 59 41z" />
    <glyph glyph-name="macron.cap" unicode="&#xf6d0;" horiz-adv-x="778" 
d="M111 1562q0 52 18 76h518q20 -24 20 -76t-20 -77h-518q-18 25 -18 77z" />
    <glyph glyph-name="R_p" unicode="&#xf6dd;" horiz-adv-x="2248" 
d="M1589 530v-321q0 -72 41 -109q33 -37 92 -37q86 -2 133 83q47 86 47 226t-60 220t-154 80q-55 0 -78 -29q-21 -21 -21 -113zM1331 520q0 63 -5 85t-32 38l-26 19q-10 10 -11 30q0 20 11 29q156 41 284 121q29 4 41 -23q-4 -23 -4 -55t15 -37q139 78 243 78
q150 -1 239 -105t89 -266q0 -205 -132 -333t-343 -128q-61 0 -82 7q-29 -6 -29 -58v-205q-1 -104 11 -131t61 -28l65 -4q12 -8 12 -34t-14 -34q-143 6 -270 6t-231 -6q-12 8 -13 34q0 26 11 34l39 2q49 2 60 30t11 131v265q-37 -2 -141 -2q-220 0 -334 194q-78 127 -172 336
q-29 61 -85 61q-57 0 -67 -7t-10 -42v-237q0 -143 18 -179t85 -40l47 -5q10 -9 10 -33t-10 -34q-148 6 -284 6t-284 -6q-10 10 -10 35t10 32l48 5q68 6 84 40t16 179v700q0 160 -13 199t-73 41l-41 2q-16 8 -15 37t19 30q209 16 473 16t391 -71q164 -94 164 -295t-215 -303
q-18 -10 -2 -45q110 -223 176 -331t144 -169q30 -25 71 -33v457zM522 1118v-381q0 -53 16 -64t101 -11t151 62t66 200q0 137 -70 215t-184 78q-56 -1 -68 -17t-12 -82z" />
    <glyph glyph-name="cent.inferior" unicode="&#xf6df;" 
d="M566 -184q42 0 96 32t77 76q17 2 31 -8t14 -25q-94 -182 -305 -188l-26 -158q-10 -16 -39 -16t-39 16l26 160q-147 15 -235 107t-88 225q0 178 129 277t313 102l23 127q10 14 39 14t41 -14l-23 -131q72 -6 119 -23q41 -31 41 -79t-16 -72t-29 -25q-14 0 -27 6
q-82 82 -102 96q-2 0 -2 -4l-84 -489q24 -6 66 -6zM494 340q-90 0 -136 -80t-45 -176q0 -173 113 -236l82 490q-2 2 -14 2z" />
    <glyph glyph-name="cent.superior" unicode="&#xf6e0;" 
d="M566 799q42 -1 96 31t77 77q17 2 31 -8t14 -25q-94 -182 -305 -188l-26 -158q-10 -16 -39 -16t-39 16l26 160q-147 16 -235 108t-88 224q0 178 129 277t313 102l23 127q10 14 39 14t41 -14l-23 -131q72 -6 119 -23q41 -31 41 -79q0 -49 -16 -73t-29 -24q-14 0 -27 6
q-82 82 -102 96q-2 0 -2 -4l-84 -489q24 -6 66 -6zM494 1323q-90 0 -136 -80t-45 -176q0 -173 113 -236l82 490q-2 2 -14 2z" />
    <glyph glyph-name="comma.inferior" unicode="&#xf6e1;" horiz-adv-x="409" 
d="M362 -277q0 -116 -82 -194t-204 -107q-23 2 -29 25t10 31q59 23 107 66q47 44 47 104q0 80 -100 112q-51 14 -53 90q0 38 36 69q36 32 96 32t116 -56t56 -172z" />
    <glyph glyph-name="comma.superior" unicode="&#xf6e2;" horiz-adv-x="409" 
d="M362 706q0 -116 -82 -194t-204 -106q-23 2 -29 24t10 31q59 23 107 66q47 44 47 104q0 80 -100 112q-51 13 -53 89q0 38 36 70t96 32t116 -56t56 -172z" />
    <glyph glyph-name="dollar.inferior" unicode="&#xf6e3;" 
d="M745 -90q0 -116 -94 -180t-260 -68l-20 -127q-8 -10 -39 -10t-39 10l20 133q-63 6 -118 24t-74 34q-47 63 -47 217q6 16 28 19t35 -11q17 -66 65 -124t124 -79l39 248q-260 70 -261 229q0 111 87 174t247 68l15 96q8 15 40 15t39 -15l-14 -100q31 -2 84 -13t80 -14
q27 -63 25 -205q-6 -14 -28 -15t-32 13q-8 37 -45 83t-98 67l-33 -213q274 -78 274 -256zM395 190l31 201q-147 -2 -147 -102q-1 -64 116 -99zM551 -150q0 82 -111 123l-37 -233q68 0 108 31t40 79z" />
    <glyph glyph-name="dollar.superior" unicode="&#xf6e4;" 
d="M745 893q0 -115 -94 -179t-260 -69l-20 -127q-8 -10 -39 -10t-39 10l20 133q-63 5 -118 23t-74 35q-47 63 -47 217q6 16 28 19t35 -11q17 -66 65 -124t124 -79l39 248q-260 70 -261 229q0 111 87 174t247 68l15 96q8 14 40 14t39 -14l-14 -100q31 -2 84 -13t80 -14
q27 -63 25 -205q-6 -14 -28 -15t-32 13q-8 38 -45 84t-98 66l-33 -213q274 -78 274 -256zM395 1174l31 200q-147 -2 -147 -102q-1 -63 116 -98zM551 834q0 81 -111 122l-37 -233q68 0 108 31t40 80z" />
    <glyph glyph-name="hyphen.inferior" unicode="&#xf6e5;" horiz-adv-x="573" 
d="M51 74q0 52 23 63h428q23 -11 23 -63t-23 -68h-428q-23 16 -23 68z" />
    <glyph glyph-name="hyphen.superior" unicode="&#xf6e6;" horiz-adv-x="573" 
d="M51 1056q0 52 23 64h428q23 -12 23 -64t-23 -67h-428q-23 15 -23 67z" />
    <glyph glyph-name="period.inferior" unicode="&#xf6e7;" horiz-adv-x="409" 
d="M208 -352q-56 0 -96 38t-40 97t38 98t96 39t95 -40t37 -98t-37 -96t-93 -38z" />
    <glyph glyph-name="period.superior" unicode="&#xf6e8;" horiz-adv-x="409" 
d="M208 631q-56 0 -96 38t-40 97t38 98t96 39t95 -40t37 -98t-37 -96t-93 -38z" />
    <glyph glyph-name="b.superior" unicode="&#xf6ea;" horiz-adv-x="882" 
d="M352 1067v-203q0 -68 31 -114t74 -45q125 0 125 208q0 100 -50 167t-118 67q-31 0 -47 -17q-15 -8 -15 -63zM352 1384v-143q0 -33 13 -37q78 41 153 41q133 0 214 -83t81 -221t-106 -224t-279 -86q-96 0 -148 19q-52 20 -70 20t-44 -23q-23 0 -37 15q4 37 4 139v565
q0 46 -5 64t-26 28l-28 15q-8 8 -8 25t8 26q80 16 256 80q16 0 26 -11q-4 -59 -4 -209z" />
    <glyph glyph-name="d.superior" unicode="&#xf6eb;" horiz-adv-x="884" 
d="M532 805v264q0 25 -12 49q-33 53 -82 53t-91 -59q-42 -58 -42 -150t40 -160t116 -69q31 0 55 15q16 14 16 57zM752 1384v-499q0 -94 7 -126t35 -32t62 10q12 -8 12 -34t-12 -35q-152 -7 -297 -52q-23 0 -27 21l5 45q-4 18 -15 10q-94 -61 -160 -61q-128 0 -210 82
q-82 81 -82 215t106 226t264 91q51 0 76 -6q16 4 16 27v110q0 46 -4 62t-26 24l-27 11q-10 6 -10 25t10 26q84 16 256 80q18 0 27 -9q-6 -90 -6 -211z" />
    <glyph glyph-name="e.superior" unicode="&#xf6ec;" horiz-adv-x="737" 
d="M303 1047h94q43 0 58 10q12 12 12 41q0 30 -24 52q-25 22 -69 22t-79 -40q-35 -38 -35 -65q0 -20 43 -20zM610 973h-327q-33 0 -33 -21q0 -57 54 -112q54 -56 160 -56t165 78q37 8 45 -24q-43 -111 -125 -159t-174 -48q-149 2 -225 89t-76 212t92 219t224 94
q132 1 207 -65t75 -158q-1 -49 -62 -49z" />
    <glyph glyph-name="i.superior" unicode="&#xf6ed;" horiz-adv-x="516" 
d="M373 1073v-252q0 -72 10 -91t49 -25l29 -5q14 -8 12 -32t-14 -27q-161 4 -215 4t-176 -4q-12 4 -15 29q-2 25 13 30l28 5q39 6 49 25t11 91v215q0 42 -6 58t-29 28l-23 13q-10 8 -10 25t10 26q131 33 254 80q27 4 27 -21q-4 -82 -4 -172zM264 1604q53 0 87 -38t34 -93
t-39 -91t-92 -34q-53 0 -87 36t-34 90t39 92t92 38z" />
    <glyph glyph-name="l.superior" unicode="&#xf6ee;" horiz-adv-x="505" 
d="M143 819v531q0 68 -6 87t-51 46q-10 8 -10 26t10 25q90 16 252 70q23 4 29 -17q-4 -53 -5 -209v-559q0 -70 10 -90t50 -24l35 -5q14 -8 13 -32t-15 -27q-160 4 -215 4t-187 -4q-14 8 -15 30t13 29l33 5q39 4 49 24t10 90z" />
    <glyph glyph-name="m.superior" unicode="&#xf6ef;" horiz-adv-x="1333" 
d="M1190 1049v-228q0 -71 9 -93t40 -23l37 -5q10 -4 9 -30t-11 -29q-74 4 -184 4t-164 -4q-14 4 -17 28q-2 24 11 31l22 5q29 6 29 75v238q0 53 -26 86t-73 33t-75 -35q-20 -20 -21 -94v-187q0 -68 7 -88t34 -26l29 -7q12 -10 11 -30t-13 -29q-56 4 -166 4t-166 -4
q-14 4 -16 28t10 31l22 5q29 6 29 75v238q0 53 -26 86q-25 33 -71 33t-79 -33q-18 -18 -19 -96v-228q0 -74 25 -75l31 -5q10 -6 6 -30t-16 -29q-56 4 -166 4t-181 -4q-14 4 -14 28t10 31l35 5q33 3 42 25t9 91v207q0 46 -6 64t-35 34l-18 11q-10 8 -9 24t11 25
q143 29 260 80q23 0 27 -17q-4 -53 -4 -64t14 -14q115 74 190 74q129 0 181 -88l28 19q106 70 206 70t150 -54q52 -53 52 -143z" />
    <glyph glyph-name="r.superior" unicode="&#xf6f1;" horiz-adv-x="634" 
d="M143 819v209q0 46 -5 64t-29 34l-25 17q-6 6 -5 22t7 21q160 27 252 80q16 0 22 -15q-4 -53 -4 -65q0 -18 17 -19q6 4 58 41t97 37q45 1 71 -25t26 -71t-30 -72q-57 -51 -120 -11t-88 40t-25 -92v-187q0 -76 10 -96t52 -24l61 -7q9 -6 9 -30t-11 -29q-176 4 -229 4
t-197 -4q-10 4 -11 30t9 29l29 5q39 6 49 25t10 89z" />
    <glyph glyph-name="s.superior" unicode="&#xf6f2;" horiz-adv-x="634" 
d="M82 1053q0 92 74 142t180 50t194 -37q29 -63 25 -151q-10 -13 -33 -15t-33 9q-49 121 -145 120q-35 0 -55 -15q-21 -15 -21 -40t30 -43t103 -41q172 -55 172 -201q1 -96 -77 -148t-206 -52t-200 53q-12 18 -21 72t-8 96q8 14 32 14t30 -10q25 -68 74 -110t97 -42
q87 1 89 66q0 32 -24 54t-91 44q-186 61 -186 185z" />
    <glyph glyph-name="t.superior" unicode="&#xf6f3;" horiz-adv-x="573" 
d="M391 1143q-20 0 -24 -7t-5 -44v-191q0 -82 22 -123t73 -41t90 27q14 -2 20 -20t0 -33q-92 -80 -233 -80q-98 0 -145 45q-46 45 -46 121v301q0 33 -4 39t-24 6h-56q-12 5 -13 27t9 28q79 26 115 50t131 102q10 12 33 9t28 -16v-88q0 -18 4 -23t27 -5h150q12 -4 11 -35
t-19 -49h-144z" />
    <glyph glyph-name="dollar.oldstyle" unicode="&#xf724;" horiz-adv-x="944" 
d="M874 258q0 -131 -112 -206t-313 -79l-23 -147q-8 -10 -45 -10t-45 10l24 149q-133 10 -235 68q-55 49 -55 262q12 17 36 17t33 -15q25 -79 85 -147t151 -90l45 292l-10 3q-135 27 -219 93q-83 68 -83 184t104 188q103 72 292 75l18 115q8 16 45 16t45 -16l-18 -119
q43 -4 117 -20t80 -19q39 -80 36 -241q-7 -13 -33 -15t-36 12q-49 156 -178 189l-39 -248l22 -6q311 -84 311 -295zM641 190q0 101 -135 146l-43 -275q80 4 129 38t49 91zM455 584l34 231q-172 -2 -172 -117q1 -73 138 -114z" />
    <glyph glyph-name="zero.oldstyle" unicode="&#xf730;" horiz-adv-x="1105" 
d="M301 438q0 -143 71 -229q72 -86 182 -86t180 86t71 229q0 144 -71 230q-72 86 -182 86t-180 -86t-71 -230zM553 905q213 0 346 -133t133 -334t-133 -334t-346 -133t-346 133t-133 334t133 334t346 133z" />
    <glyph glyph-name="one.oldstyle" unicode="&#xf731;" horiz-adv-x="794" 
d="M262 264v348q0 115 -19 151t-85 44l-64 8q-12 10 -11 36t15 32q114 -6 302 -6t292 6q14 -6 16 -32t-12 -36l-63 -8q-66 -8 -85 -44t-20 -151v-348q0 -116 20 -150t85 -42l84 -11q12 -9 11 -35t-15 -32q-115 6 -318 6t-317 -6q-14 6 -16 32q-1 26 12 35l84 11q66 8 85 42
t19 150z" />
    <glyph glyph-name="two.oldstyle" unicode="&#xf732;" horiz-adv-x="995" 
d="M629 0h-320q-174 0 -225 -6q-27 14 -14 47q110 66 264 212t153 302q0 84 -42 132t-113 48q-119 0 -215 -166q-19 -7 -39 7t-23 36q61 137 169 215t250 78t226 -78t84 -192t-72 -194q-72 -81 -151 -146t-102 -84q2 -25 43 -25h168q113 0 170 18t100 93q39 20 70 -14
l-127 -289q-160 6 -254 6z" />
    <glyph glyph-name="three.oldstyle" unicode="&#xf733;" horiz-adv-x="851" 
d="M485 35q0 164 -88 237q-41 31 -92 31t-129 -65q-27 -2 -41 30t-2 68q180 73 241 138q62 65 62 153q0 53 -33 91t-86 38q-86 0 -174 -140q-25 -6 -44 10t-19 42q53 102 144 170t216 68t201 -64q76 -63 76 -175t-172 -196q-29 -12 -29 -31q0 -12 35 -22q98 -26 152 -98
t55 -168q0 -225 -230 -394q-88 -66 -190 -104t-162 -39q-60 0 -87 30q-26 30 -26 66q0 63 50 64q8 -1 60 -11t89 -10q223 0 223 281z" />
    <glyph glyph-name="four.oldstyle" unicode="&#xf734;" horiz-adv-x="1069" 
d="M285 150h229q33 0 39 7t6 50v352h-4l-295 -373q-10 -12 -2 -24t27 -12zM850 27q-35 1 -41 -9t-6 -55v-325q-13 -18 -121 -18t-123 18v325q0 45 -6 54t-39 10h-457q-27 20 -20 63l125 146q36 42 278 340t260 321q41 8 45 8q37 0 58 -39v-659q0 -43 6 -50t41 -7h172
q23 -16 23 -62t-31 -61h-164z" />
    <glyph glyph-name="five.oldstyle" unicode="&#xf735;" horiz-adv-x="837" 
d="M246 592q0 -31 143 -96q303 -137 303 -396q0 -88 -38 -167q-91 -190 -376 -299q-69 -26 -135 -40q-25 4 -31 31t7 41q113 38 210 110q126 94 126 236q0 164 -191 262q-152 82 -151 191q0 86 64 219q65 133 118 152q39 14 133 24l213 23q80 6 113 28q14 0 24 -8t8 -18
q-68 -211 -174 -223l-276 -29q-54 -7 -72 -15t-18 -26z" />
    <glyph glyph-name="six.oldstyle" unicode="&#xf736;" horiz-adv-x="1071" 
d="M381 406q0 -154 56 -247q57 -93 133 -93q160 0 159 215q0 135 -53 233t-148 98q-8 0 -28 -4q-12 8 -16 26t5 32q109 70 226 70t199 -94q82 -93 83 -241q0 -197 -135 -313q-136 -116 -336 -117q-200 0 -317 123q-117 122 -117 322t85 363q158 304 532 450q170 68 344 80
q10 -7 12 -27t-4 -29q-96 -41 -136 -58t-123 -67t-147 -106q-274 -242 -274 -616z" />
    <glyph glyph-name="seven.oldstyle" unicode="&#xf737;" horiz-adv-x="1032" 
d="M348 877h359q276 0 299 6q18 -8 14 -33q-76 -102 -281 -453l-475 -800q-2 -3 -26 -3t-50 18q-25 18 -32 42l506 840q59 98 59 139q0 31 -55 31h-349q-96 0 -135 -23t-84 -96q-18 -8 -38 3q-19 11 -23 27q63 131 104 308q64 -6 207 -6z" />
    <glyph glyph-name="eight.oldstyle" unicode="&#xf738;" horiz-adv-x="976" 
d="M653 977q0 84 -42 142q-42 59 -109 59q-66 0 -110 -50t-44 -129q0 -154 221 -268q84 94 84 246zM330 279q0 -93 47 -153t113 -60t105 45q40 45 40 122q0 178 -203 295q-102 -92 -102 -249zM104 924q0 150 110 249t289 99t281 -85t103 -235q0 -174 -223 -295
q227 -150 227 -352q0 -147 -108 -240t-292 -93q-185 0 -295 79q-110 80 -110 232q0 193 233 325q-215 127 -215 316z" />
    <glyph glyph-name="nine.oldstyle" unicode="&#xf739;" horiz-adv-x="1046" 
d="M670 485q0 147 -46 237t-116 89q-70 0 -110 -65q-40 -64 -40 -158t29 -173t86 -116q27 -18 82 -14q18 -18 6 -54q-88 -53 -164 -53q-145 0 -231 87t-86 227q0 182 130 298t328 116t308 -126q108 -124 108 -314q-1 -397 -284 -646q-238 -206 -584 -226q-12 8 -15 30t5 32
q190 51 297 141q297 248 297 688z" />
    <glyph glyph-name="cent.oldstyle" unicode="&#xf7a2;" horiz-adv-x="888" 
d="M616 156q40 0 99 34q57 35 86 91q47 0 47 -33q-90 -199 -313 -209l-25 -172q-14 -14 -45 -14t-43 14l24 174q-162 15 -258 113t-96 243q0 191 133 297t328 111l18 135q14 10 42 10t46 -10l-18 -137q90 -8 141 -25q43 -37 43 -87t-17 -77q-18 -26 -34 -26t-24 8
q-86 86 -123 106l-76 -542q25 -4 65 -4zM344 440q0 -182 123 -250l74 535q-101 -2 -149 -90t-48 -195z" />
    <glyph glyph-name="fi" unicode="&#xfb01;" horiz-adv-x="1159" 
d="M172 238v413q0 41 -7 49t-44 9h-76q-10 6 -12 26t6 29l88 45q45 25 45 53q0 199 64 334q125 268 430 268q152 0 246 -60t94 -151q0 -61 -43 -97t-106 -36t-89 43q-8 12 -27 51q-18 39 -28 56q-53 92 -127 92q-39 0 -70 -29q-30 -29 -54 -117t-24 -231v-115q0 -39 7 -45
t47 -6h157q266 0 338 17q33 0 35 -31q-10 -109 -10 -236v-331q0 -111 12 -139t63 -33l33 -5q12 -7 12 -33t-14 -34q-98 6 -232 6t-233 -6q-14 8 -14 34t12 33l33 5q41 4 51 32t10 140v292q0 121 -16 150t-90 29h-147q-38 1 -46 -7t-8 -47v-417q0 -111 12 -138t64 -34l27 -5
q12 -7 12 -33t-14 -34q-87 6 -231 6t-242 -6q-14 8 -15 34q0 26 12 33l33 5q51 6 64 33q12 28 12 139z" />
    <glyph glyph-name="fl" unicode="&#xfb02;" horiz-adv-x="1159" 
d="M492 819h198q39 0 47 7t8 44v330q0 57 -36 112q-37 54 -102 54t-112 -87q-55 -97 -57 -355v-47q0 -41 7 -50q8 -8 47 -8zM121 709h-76q-10 6 -12 26t6 29l88 45q45 25 45 53q0 219 57 341t159 192q102 69 236 69q136 0 224 -61q66 23 135 61q23 0 35 -14q-6 -125 -6 -299
v-913q0 -106 12 -134t63 -34l33 -4q12 -8 12 -36t-14 -36q-98 6 -232 6t-233 -6q-14 8 -14 34t12 33l33 5q41 4 51 32t10 140v419q0 37 -8 44t-47 8h-198q-38 -1 -46 -9t-8 -49v-413q0 -111 12 -138t64 -34l27 -5q12 -7 12 -33t-14 -34q-87 6 -231 6t-242 -6q-14 8 -15 36
q0 28 12 36l33 4q51 6 64 33q12 28 12 135v413q0 41 -7 49t-44 9z" />
    <glyph glyph-name="zero.slash" horiz-adv-x="1064" 
d="M725 625q0 155 -18 274l-328 -639q53 -195 153 -194q120 0 168 263q26 141 25 296zM532 1217q-132 0 -182 -399q-10 -87 -10 -138t7 -136t9 -124l322 633q-51 164 -146 164zM1006 641q0 -378 -205 -568q-111 -101 -269 -101t-268 98l-65 -123l-78 57l76 141
q-137 188 -138 496q0 374 205 566q111 103 260 103t258 -85l64 118l84 -49l-78 -143q154 -186 154 -510z" />
    <glyph glyph-name="i.dot" horiz-adv-x="585" 
d="M311 1309q63 0 103 -42t41 -108q0 -65 -45 -105t-110 -40q-66 0 -104 41t-38 105t45 107q45 42 108 42zM438 614v-376q0 -109 12 -137t64 -31l39 -4q12 -8 12 -36t-14 -36q-109 6 -250 6t-242 -6q-14 8 -14 36t12 36l39 4q51 4 64 31q12 28 12 137v309q0 67 -6 91t-33 40
l-29 18q-10 8 -10 31t10 31q195 53 304 119q25 0 36 -19q-6 -92 -6 -244z" />
    <glyph glyph-name="percent.oldstyle" horiz-adv-x="1724" 
d="M545 -74q-27 -4 -53 8t-33 33q420 680 708 1168q25 3 53 -9t35 -34q-370 -595 -710 -1166zM422 504q113 0 113 268t-115 268t-121 -266q0 -270 123 -270zM418 1110q160 0 240 -105t79 -231q1 -126 -79 -234q-80 -106 -234 -106t-240 95t-86 233t80 242q80 106 240 106z
M1190 313q0 -268 121 -268q113 0 113 268t-113 269q-121 -1 -121 -269zM1307 -25q-160 -1 -240 105t-80 233t80 233t240 105q159 0 239 -105q80 -104 80 -232t-80 -234t-239 -105z" />
    <glyph glyph-name="perthousand.oldstyle" horiz-adv-x="2437" 
d="M422 504q113 0 113 268t-115 268t-121 -266q0 -270 123 -270zM418 1110q160 0 240 -105t79 -231q1 -126 -79 -234q-80 -106 -234 -106t-240 95t-86 233t80 242q80 106 240 106zM545 -74q-27 -4 -53 8t-33 33q420 680 708 1168q25 3 53 -9t35 -34q-370 -595 -710 -1166z
M1190 313q0 -268 121 -268q113 0 113 268t-113 269q-121 -1 -121 -269zM1307 -25q-160 -1 -240 105t-80 233t80 233t240 105q159 0 239 -105q80 -104 80 -232t-80 -234t-239 -105zM1903 313q0 -268 120 -268q113 0 113 268t-113 269q-120 -1 -120 -269zM2019 -25
q-159 -1 -239 105t-80 233t80 233t240 105q160 0 239 -105q80 -104 80 -232t-80 -234t-240 -105z" />
    <glyph glyph-name="zero.fitted" horiz-adv-x="1064" 
d="M532 66q168 0 175 575q-1 171 -23 311t-59 202t-93 62q-138 1 -167 -406q-7 -83 -7 -169t6 -169q20 -251 76 -345q37 -61 92 -61zM532 1311q158 1 269 -103q203 -189 204 -567t-204 -568q-111 -101 -269 -101t-268 100q-204 188 -205 566q0 377 205 569q110 104 268 104z
" />
    <glyph glyph-name="one.fitted" horiz-adv-x="847" 
d="M573 1053v-789q1 -122 19 -154t94 -38l84 -6q14 -8 12 -38t-16 -34q-111 6 -328 6t-327 -6q-14 4 -17 34q-2 30 12 38l84 6q76 6 95 38q18 32 18 154v670q0 104 -16 137t-82 41l-94 12q-14 8 -16 36q-1 28 11 36q228 32 413 113q26 10 32 10q23 0 29 -23q-7 -71 -7 -243z
" />
    <glyph glyph-name="two.fitted" horiz-adv-x="1064" 
d="M453 211h247q117 0 154 16t80 97q10 12 37 9t33 -22q-14 -92 -44 -185t-57 -132q-123 6 -287 6h-325q-176 0 -230 -6q-29 6 -20 45q188 174 316 314q128 139 199 269t71 259q1 129 -61 199t-163 71q-154 0 -264 -188q-18 -13 -42 -5t-25 33q61 152 189 236t293 84
q165 1 270 -99q106 -100 106 -236t-65 -242t-244 -277l-99 -92q-109 -100 -108 -129q0 -25 39 -25z" />
    <glyph glyph-name="three.fitted" horiz-adv-x="1064" 
d="M436 1182q-139 0 -252 -170q-20 -6 -39 7q-18 13 -18 32q61 123 175 191t258 69q144 0 233 -66q88 -66 88 -170q-1 -74 -53 -136t-205 -128q-25 -12 -2 -23q8 -4 20 -4q141 4 243 -85t101 -232q0 -244 -235 -418q-227 -164 -474 -164q-92 0 -156 36t-65 110q0 45 33 79
t77 34t70 -19q26 -18 39 -33q12 -16 18 -23t14 -19q34 -62 108 -62q73 0 169 99q95 99 95 253t-66 242t-174 88t-202 -86q-31 6 -47 34q-15 29 -1 64q236 88 326 163t90 187q0 58 -47 104t-121 46z" />
    <glyph glyph-name="four.fitted" horiz-adv-x="1064" 
d="M567 264v58q0 41 -7 50t-40 9h-473q-37 16 -22 65l665 951q35 49 68 49h59q61 0 21 -55l-615 -852q-16 -19 -8 -31t53 -12h252q33 0 40 9t7 50v287q0 57 45 73q150 63 199 64q27 0 27 -35v-389q0 -41 7 -50t40 -9h135q22 -12 22 -56t-22 -59h-135q-33 0 -40 -9t-7 -50
v-58q0 -124 17 -156t85 -38l43 -4q14 -8 12 -38t-16 -34q-111 6 -305 6t-299 -6q-14 4 -17 34q-2 30 13 38l84 6q76 6 94 36t18 156z" />
    <glyph glyph-name="five.fitted" horiz-adv-x="1064" 
d="M958 444q0 -283 -294 -442q-236 -127 -555 -135q-23 10 -28 46t15 50q274 12 410 92q190 113 190 277q0 84 -36 146t-82 95q-47 33 -127 56q-81 23 -133 29t-116 12q-64 4 -77 19q-12 15 -2 52l123 471q10 36 24 46t68 16l543 65q23 0 22 -24q-31 -133 -112 -211
l-463 -51q-35 -4 -47 -60l-13 -47q-8 -33 6 -44t50 -15q281 -33 396 -91q238 -118 238 -352z" />
    <glyph glyph-name="six.fitted" horiz-adv-x="1064" 
d="M59 520q0 172 72 336q142 322 493 477q175 78 355 86q16 -9 18 -31t-12 -40q-178 -43 -279 -109t-194 -178q-154 -190 -154 -522q0 -181 60 -327t166 -146q84 0 120 70t35 156q0 203 -96 323q-55 71 -137 71q-12 2 -47 -2q-18 12 -15 37q30 33 92 61t113 29
q181 0 275 -113t94 -274q0 -203 -128 -328t-349 -125q-221 -1 -351 151t-131 398z" />
    </font>
</defs>
</svg>
